<svg width="24" height="24" viewBox="0 0 24 24" fill="none" xmlns="http://www.w3.org/2000/svg">
<path d="M15.7295 11.2715H10.0199L12.0001 9.25165C12.2971 8.95364 12.2971 8.49006 12.0001 8.19205C11.7031 7.89403 11.241 7.89403 10.944 8.19205L7.74266 11.4702C7.44563 11.7682 7.44563 12.2318 7.74266 12.5298L10.944 15.8079C11.076 15.9404 11.274 16.0397 11.472 16.0397C11.6701 16.0397 11.8351 15.9735 12.0001 15.8411C12.2971 15.543 12.2971 15.0795 12.0001 14.7815L10.0199 12.7616H15.7295C16.1255 12.7616 16.4555 12.4305 16.4555 12.0331C16.4885 11.6026 16.1585 11.2715 15.7295 11.2715Z" fill="white"/>
<path d="M12 2C6.48845 2 2 6.4702 2 12C2 17.5298 6.48845 22 12 22C17.5116 22 22 17.5298 22 12C22 6.4702 17.5116 2 12 2ZM12 20.543C7.31353 20.543 3.48515 16.702 3.48515 12C3.48515 7.29801 7.31353 3.45695 12 3.45695C16.6865 3.45695 20.5149 7.29801 20.5149 12C20.5149 16.702 16.6865 20.543 12 20.543Z" fill="white"/>
</svg>
