<svg width="24" height="24" viewBox="0 0 24 24" fill="none" xmlns="http://www.w3.org/2000/svg">
<path d="M21.7427 11.3768L13.8533 3.26087C13.5102 2.91304 12.9767 2.91304 12.6336 3.26087C12.2906 3.6087 12.2906 4.14976 12.6336 4.49758L19.0367 11.1063H2.83849C2.38113 11.1063 2 11.4928 2 11.9565C2 12.4203 2.38113 12.8454 2.83849 12.8454H19.1129L12.6336 19.5314C12.2906 19.8792 12.2906 20.4203 12.6336 20.7681C12.7861 20.9227 13.0148 21 13.2434 21C13.4721 21 13.7008 20.9227 13.8533 20.7295L21.7427 12.6135C22.0858 12.2657 22.0858 11.7246 21.7427 11.3768Z" fill="white"/>
</svg>
