<svg width="24" height="24" viewBox="0 0 24 24" fill="none" xmlns="http://www.w3.org/2000/svg">
<path d="M21.1615 11.1836H4.88709L11.3664 4.49758C11.7094 4.14976 11.7094 3.6087 11.3664 3.26087C11.0233 2.91304 10.4898 2.91304 10.1467 3.26087L2.25727 11.3768C1.91424 11.7246 1.91424 12.2657 2.25727 12.6135L10.1467 20.7295C10.2992 20.8841 10.5279 21 10.7566 21C10.9852 21 11.1758 20.9227 11.3664 20.7681C11.7094 20.4203 11.7094 19.8792 11.3664 19.5314L4.9252 12.9227H21.1615C21.6189 12.9227 22 12.5362 22 12.0725C22 11.57 21.6189 11.1836 21.1615 11.1836Z" fill="white"/>
</svg>
