<svg width="24" height="24" viewBox="0 0 24 24" fill="none" xmlns="http://www.w3.org/2000/svg">
<path d="M20.739 12.687C20.391 12.3435 19.8496 12.3435 19.5016 12.687L12.8894 19.0992V2.83969C12.8894 2.38168 12.5027 2 12.0387 2C11.5746 2 11.188 2.38168 11.188 2.83969V19.1374L4.49839 12.6489C4.15038 12.3053 3.60902 12.3053 3.26101 12.6489C2.913 12.9924 2.913 13.5267 3.26101 13.8702L11.3813 21.771C11.536 21.9237 11.768 22 12 22C12.232 22 12.4253 21.9237 12.6187 21.771L20.739 13.8702C21.087 13.5649 21.087 12.9924 20.739 12.687Z" fill="white"/>
</svg>
