<svg width="24" height="24" viewBox="0 0 24 24" fill="none" xmlns="http://www.w3.org/2000/svg">
<path d="M20.734 10.1467L12.616 2.25727C12.2681 1.91424 11.7269 1.91424 11.379 2.25727L3.26094 10.1467C2.91302 10.4898 2.91302 11.0233 3.26094 11.3664C3.60885 11.7094 4.15005 11.7094 4.49797 11.3664L11.1084 4.96332V21.1615C11.1084 21.6189 11.4949 22 11.9588 22C12.4227 22 12.8479 21.6189 12.8479 21.1615V4.88709L19.5356 11.3664C19.6903 11.5188 19.9222 11.595 20.1542 11.595C20.3861 11.595 20.618 11.5188 20.7727 11.3283C21.0819 11.0233 21.0819 10.4516 20.734 10.1467Z" fill="white"/>
</svg>
