<svg width="24" height="24" viewBox="0 0 24 24" fill="none" xmlns="http://www.w3.org/2000/svg">
<path d="M13.0561 8.19205C12.7591 7.89403 12.2971 7.89403 12 8.19205C11.703 8.49006 11.703 8.95364 12 9.25165L13.9802 11.2715H8.27067C7.87463 11.2715 7.5446 11.6026 7.5446 12C7.5446 12.3973 7.87463 12.7285 8.27067 12.7285H13.9802L12 14.7483C11.703 15.0464 11.703 15.5099 12 15.8079C12.1321 15.9404 12.3301 16.0066 12.5281 16.0066C12.7261 16.0066 12.9241 15.9404 13.0561 15.7748L16.2905 12.4967C16.5875 12.1987 16.5875 11.7351 16.2905 11.4371L13.0561 8.19205Z" fill="white"/>
<path d="M12 2C6.48845 2 2 6.4702 2 12C2 17.5298 6.48845 22 12 22C17.5116 22 22 17.5298 22 12C22 6.4702 17.5116 2 12 2ZM12 20.543C7.31353 20.543 3.48515 16.702 3.48515 12C3.48515 7.29801 7.31353 3.45695 12 3.45695C16.6865 3.45695 20.5149 7.29801 20.5149 12C20.5149 16.702 16.6865 20.543 12 20.543Z" fill="white"/>
</svg>
