<svg width="24" height="24" viewBox="0 0 24 24" fill="none" xmlns="http://www.w3.org/2000/svg">
<path d="M21.2409 19.7987H3.51815V3.75908C3.51815 3.36304 3.18812 3 2.75908 3C2.33003 3 2 3.33003 2 3.75908V20.5578C2 20.9538 2.33003 21.3168 2.75908 21.3168H21.2409C21.637 21.3168 22 20.9868 22 20.5578C22 20.1287 21.637 19.7987 21.2409 19.7987Z" fill="white"/>
<path d="M7.67665 15.1122C9.0958 15.1122 10.2179 13.9571 10.2179 12.571C10.2179 12.3069 10.1849 12.0099 10.0859 11.7789L11.439 10.9208C11.9011 11.3168 12.4621 11.5809 13.1222 11.5809C14.5413 11.5809 15.6635 10.4257 15.6635 9.0396C15.6635 8.80858 15.6305 8.54455 15.5644 8.31353L17.3136 7.35644C17.7757 7.81848 18.4027 8.08251 19.0958 8.08251C20.5149 8.08251 21.6371 6.92739 21.6371 5.54125C21.6371 4.15512 20.4819 3 19.0958 3C17.7097 3 16.5545 4.15512 16.5545 5.54125C16.5545 5.70627 16.5875 5.90429 16.6205 6.06931L14.7724 7.09241C14.3433 6.72937 13.7493 6.49835 13.1552 6.49835C11.7361 6.49835 10.6139 7.65347 10.6139 9.0396C10.6139 9.27063 10.647 9.46865 10.713 9.66667L9.26081 10.5578C8.83177 10.2277 8.30372 10.0297 7.70966 10.0297C6.29051 10.0297 5.1684 11.1848 5.1684 12.571C5.1684 13.9571 6.25751 15.1122 7.67665 15.1122ZM19.0958 4.48515C19.6899 4.48515 20.1519 4.94719 20.1519 5.54125C20.1519 6.13531 19.6899 6.59736 19.0958 6.59736C18.5017 6.59736 18.0397 6.13531 18.0397 5.54125C18.0397 4.94719 18.5017 4.48515 19.0958 4.48515ZM13.1222 7.9835C13.7163 7.9835 14.1783 8.44554 14.1783 9.0396C14.1783 9.63366 13.7163 10.0957 13.1222 10.0957C12.5281 10.0957 12.0661 9.63366 12.0661 9.0396C12.0661 8.44554 12.5281 7.9835 13.1222 7.9835ZM7.67665 11.5149C8.27071 11.5149 8.73276 11.9769 8.73276 12.571C8.73276 13.165 8.27071 13.6271 7.67665 13.6271C7.08259 13.6271 6.62055 13.165 6.62055 12.571C6.62055 11.9769 7.08259 11.5149 7.67665 11.5149Z" fill="white"/>
</svg>
