<svg width="24" height="24" viewBox="0 0 24 24" fill="none" xmlns="http://www.w3.org/2000/svg">
<path d="M19.8038 16.4371C19.273 15.2781 19.1213 13.9205 19.1213 13.755V10.4437C19.1213 7.2649 16.3534 4.61589 12.8271 4.25165V2.72847C12.8271 2.33112 12.4479 2 11.9929 2C11.5379 2 11.1587 2.33112 11.1587 2.72847V4.28476C7.63246 4.649 4.86451 7.29801 4.86451 10.4768V13.7881C4.86451 13.9536 4.71284 15.3113 4.182 16.4702C3.87867 17.1656 3.9545 17.9271 4.4095 18.5232C4.86451 19.1192 5.66077 19.4834 6.49495 19.4834H8.58039C8.88372 20.9073 10.2867 22 11.9929 22C13.6992 22 15.14 20.9073 15.4055 19.4834H17.453C18.2872 19.4834 19.0834 19.1192 19.5384 18.5232C20.0314 17.894 20.1451 17.1324 19.8038 16.4371ZM11.9929 20.543C11.2346 20.543 10.59 20.1126 10.3246 19.5166H13.6613C13.3959 20.0795 12.7513 20.543 11.9929 20.543ZM18.1355 17.6954C17.9838 17.894 17.7184 18.0265 17.453 18.0265H6.53286C6.26744 18.0265 6.00202 17.9271 5.85035 17.6954C5.69869 17.4967 5.66077 17.2318 5.77452 17.0331C6.45703 15.5762 6.57078 13.9205 6.57078 13.8543V13.8212V10.4768C6.57078 7.86092 8.99747 5.70861 11.9929 5.70861C14.9884 5.70861 17.4151 7.82781 17.4151 10.4437V13.7881V13.8212C17.4151 13.8874 17.5288 15.543 18.2113 17C18.3251 17.2318 18.3251 17.4967 18.1355 17.6954Z" fill="white"/>
<circle cx="19" cy="19" r="3" fill="#00FAED"/>
</svg>
