<svg width="24" height="24" viewBox="0 0 24 24" fill="none" xmlns="http://www.w3.org/2000/svg">
<path d="M21.6044 6.35717C21.6044 6.3241 21.5698 6.3241 21.5698 6.29103C21.3278 5.96031 20.9821 5.66267 20.5671 5.49731L13.0988 2.22323C12.4073 1.92559 11.6466 1.92559 10.9551 2.22323L3.52133 5.49731C3.10642 5.66267 2.79524 5.96031 2.51864 6.25796C2.48406 6.29103 2.44948 6.3241 2.41491 6.35717C2.41491 6.39024 2.38033 6.39024 2.38033 6.42332C2.1383 6.82017 2 7.2501 2 7.7131V15.981C2 16.907 2.55321 17.7668 3.4176 18.1637L10.8514 21.7354C11.1971 21.9008 11.612 22 11.9924 22C12.3727 22 12.7876 21.9008 13.1334 21.7354L20.5671 18.1637C21.4315 17.7338 21.9848 16.907 21.9848 15.981V7.7131C22.0539 7.21703 21.881 6.75403 21.6044 6.35717ZM11.612 3.57916C11.7503 3.51302 11.8886 3.47995 12.027 3.47995C12.1653 3.47995 12.3036 3.51302 12.4419 3.57916L19.4262 6.65482L12.027 10.1273L4.62775 6.65482L11.612 3.57916ZM4.10912 16.8408C3.76336 16.6755 3.55591 16.3448 3.55591 15.981V7.81232L11.2317 11.4171V20.2803L4.10912 16.8408ZM19.9448 16.8408L12.7876 20.2803V11.4171L20.4634 7.81232V15.981C20.498 16.3448 20.256 16.6755 19.9448 16.8408Z" fill="white"/>
</svg>
