<svg width="24" height="24" viewBox="0 0 24 24" fill="none" xmlns="http://www.w3.org/2000/svg">
<path d="M19.9208 4.56371H18.1386V3.79923C18.1386 3.38224 17.8086 3 17.3795 3C16.9505 3 16.6205 3.34749 16.6205 3.79923V4.52896H7.34653V3.79923C7.34653 3.38224 7.0165 3 6.58746 3C6.15842 3 5.82838 3.34749 5.82838 3.79923V4.52896H4.07921C2.9571 4.52896 2 5.50193 2 6.71815V18.8108C2 19.9923 2.92409 21 4.07921 21H19.9208C21.0429 21 22 20.027 22 18.8108V6.71815C22 5.53668 21.0429 4.56371 19.9208 4.56371ZM4.07921 6.12741H5.86139V6.82239C5.86139 7.23938 6.19142 7.62162 6.62046 7.62162C7.0495 7.62162 7.37954 7.27413 7.37954 6.82239V6.12741H16.7195V6.82239C16.7195 7.23938 17.0495 7.62162 17.4785 7.62162C17.9076 7.62162 18.2376 7.27413 18.2376 6.82239V6.12741H19.9208C20.2508 6.12741 20.5149 6.40541 20.5149 6.7529V9.04633H3.51815V6.7529C3.51815 6.37066 3.74917 6.12741 4.07921 6.12741ZM19.9208 19.4015H4.07921C3.74917 19.4015 3.48515 19.1236 3.48515 18.7761V10.5753H20.4818V18.8108C20.5149 19.1583 20.2508 19.4015 19.9208 19.4015Z" fill="white"/>
</svg>
