<svg width="24" height="24" viewBox="0 0 24 24" fill="none" xmlns="http://www.w3.org/2000/svg">
<path d="M15.8182 4H8.14876C4.7438 4 2 6.95768 2 10.6281V17.8619C2 19.0379 2.89256 20 3.98347 20H15.8512C19.2562 20 22 17.0423 22 13.3719V10.6281C22 6.99332 19.2231 4 15.8182 4ZM20.5124 13.4076C20.5124 16.1871 18.4298 18.4321 15.8512 18.4321H3.98347C3.71901 18.4321 3.4876 18.1826 3.4876 17.8975V10.6281C3.4876 7.84855 5.57025 5.60356 8.14876 5.60356H15.8512C18.4298 5.60356 20.5124 7.84855 20.5124 10.6281V13.4076Z" fill="white"/>
</svg>
