<svg width="12" height="12" viewBox="0 0 12 12" fill="none" xmlns="http://www.w3.org/2000/svg">
<g clip-path="url(#clip0_15_3028)">
<path d="M5.9999 0.337524C2.86865 0.337524 0.337402 2.86877 0.337402 6.00002C0.337402 9.13128 2.86865 11.6813 5.9999 11.6813C9.13115 11.6813 11.6812 9.13128 11.6812 6.00002C11.6812 2.86877 9.13115 0.337524 5.9999 0.337524ZM5.9999 10.8375C3.3374 10.8375 1.18115 8.66252 1.18115 6.00002C1.18115 3.33752 3.3374 1.18127 5.9999 1.18127C8.6624 1.18127 10.8374 3.35627 10.8374 6.01877C10.8374 8.66252 8.6624 10.8375 5.9999 10.8375Z" fill="white"/>
<path d="M7.61231 4.25626L5.38106 6.43126L4.36856 5.43751C4.19981 5.26876 3.93731 5.28751 3.76856 5.43751C3.59981 5.60626 3.61856 5.86876 3.76856 6.03751L4.96856 7.20001C5.08106 7.31251 5.23106 7.36876 5.38106 7.36876C5.53106 7.36876 5.68106 7.31251 5.79356 7.20001L8.21231 4.87501C8.38106 4.70626 8.38106 4.44376 8.21231 4.27501C8.04356 4.10626 7.78106 4.10626 7.61231 4.25626Z" fill="white"/>
</g>
<defs>
<clipPath id="clip0_15_3028">
<rect width="12" height="12" fill="white"/>
</clipPath>
</defs>
</svg>
