<svg width="24" height="24" viewBox="0 0 24 24" fill="none" xmlns="http://www.w3.org/2000/svg">
<path d="M11.9835 2C6.46281 2 2 6.46281 2 11.9835C2 17.5041 6.46281 22 11.9835 22C17.5041 22 22 17.5041 22 11.9835C22 6.46281 17.5041 2 11.9835 2ZM11.9835 20.5124C7.28926 20.5124 3.4876 16.6777 3.4876 11.9835C3.4876 7.28926 7.28926 3.4876 11.9835 3.4876C16.6777 3.4876 20.5124 7.32231 20.5124 12.0165C20.5124 16.6777 16.6777 20.5124 11.9835 20.5124Z" fill="white"/>
<path d="M15.9174 9.27272L11.9835 13.1405L8.04963 9.27272C7.75211 8.9752 7.2893 8.9752 6.99178 9.27272C6.69426 9.57025 6.69426 10.0331 6.99178 10.3306L11.4546 14.7273C11.5868 14.8595 11.7852 14.9256 11.9835 14.9256C12.1819 14.9256 12.3471 14.8595 12.5124 14.7273L16.9752 10.3306C17.2728 10.0331 17.2728 9.57025 16.9752 9.27272C16.7108 8.9752 16.2149 8.9752 15.9174 9.27272Z" fill="white"/>
</svg>
