<svg width="24" height="24" viewBox="0 0 24 24" fill="none" xmlns="http://www.w3.org/2000/svg">
<path d="M11.9835 2C6.46281 2 2 6.46281 2 11.9835C2 17.5041 6.46281 22 11.9835 22C17.5041 22 22 17.5041 22 11.9835C22 6.46281 17.5041 2 11.9835 2ZM11.9835 20.5124C7.28926 20.5124 3.4876 16.6777 3.4876 11.9835C3.4876 7.28926 7.28926 3.4876 11.9835 3.4876C16.6777 3.4876 20.5124 7.32231 20.5124 12.0165C20.5124 16.6777 16.6777 20.5124 11.9835 20.5124Z" fill="white"/>
<path d="M14.6942 6.99174C14.3967 6.69422 13.9338 6.69422 13.6363 6.99174L9.27268 11.4545C8.97516 11.7521 8.97516 12.2149 9.27268 12.5124L13.6363 16.9752C13.7686 17.1074 13.9669 17.2066 14.1652 17.2066C14.3636 17.2066 14.5289 17.1405 14.6942 17.0083C14.9917 16.7107 14.9917 16.2479 14.6942 15.9504L10.8264 11.9835L14.6942 8.04959C14.9917 7.75207 14.9917 7.2562 14.6942 6.99174Z" fill="white"/>
</svg>
