<svg width="24" height="24" viewBox="0 0 24 24" fill="none" xmlns="http://www.w3.org/2000/svg">
<path d="M11.9835 2C6.46281 2 2 6.46281 2 11.9835C2 17.5041 6.46281 22 11.9835 22C17.5041 22 22 17.5041 22 11.9835C22 6.46281 17.5041 2 11.9835 2ZM11.9835 20.5124C7.28926 20.5124 3.4876 16.6777 3.4876 11.9835C3.4876 7.28926 7.28926 3.4876 11.9835 3.4876C16.6777 3.4876 20.5124 7.32231 20.5124 12.0165C20.5124 16.6777 16.6777 20.5124 11.9835 20.5124Z" fill="white"/>
<path d="M12.5124 9.27272C12.2149 8.9752 11.7521 8.9752 11.4546 9.27272L6.99178 13.6364C6.69426 13.9339 6.69426 14.3967 6.99178 14.6942C7.12401 14.8264 7.32236 14.9256 7.5207 14.9256C7.71905 14.9256 7.88434 14.8595 8.04963 14.7273L11.9835 10.8264L15.9174 14.6942C16.2149 14.9917 16.6777 14.9917 16.9752 14.6942C17.2728 14.3967 17.2728 13.9339 16.9752 13.6364L12.5124 9.27272Z" fill="white"/>
</svg>
