<svg width="24" height="24" viewBox="0 0 24 24" fill="none" xmlns="http://www.w3.org/2000/svg">
<path d="M11.9835 2C6.46281 2 2 6.46281 2 11.9835C2 17.5041 6.46281 22 11.9835 22C17.5041 22 22 17.5041 22 11.9835C22 6.46281 17.5041 2 11.9835 2ZM11.9835 20.5124C7.28926 20.5124 3.4876 16.6777 3.4876 11.9835C3.4876 7.28926 7.28926 3.4876 11.9835 3.4876C16.6777 3.4876 20.5124 7.32231 20.5124 12.0165C20.5124 16.6777 16.6777 20.5124 11.9835 20.5124Z" fill="white"/>
<path d="M10.3305 6.99174C10.033 6.69422 9.57021 6.69422 9.27268 6.99174C8.97516 7.28926 8.97516 7.75207 9.27268 8.04959L13.1405 11.9835L9.27268 15.9174C8.97516 16.2149 8.97516 16.6777 9.27268 16.9752C9.40492 17.1074 9.60326 17.1736 9.80161 17.1736C9.99996 17.1736 10.1983 17.1074 10.3305 16.9422L14.7272 12.4793C15.0248 12.1818 15.0248 11.719 14.7272 11.4215L10.3305 6.99174Z" fill="white"/>
</svg>
