<svg width="24" height="24" viewBox="0 0 24 24" fill="none" xmlns="http://www.w3.org/2000/svg">
<path d="M15.3333 11.2231H8.60064C8.2046 11.2231 7.87457 11.5537 7.87457 11.9835C7.87457 12.3802 8.2046 12.7107 8.63364 12.7107H15.3663C15.7624 12.7107 16.0924 12.3802 16.0924 11.9504C16.0594 11.5537 15.7294 11.2231 15.3333 11.2231Z" fill="white"/>
<path d="M11.967 2C6.45545 2 2 6.46281 2 11.9835C2 17.5041 6.48845 22 12 22C17.5116 22 22 17.5041 22 11.9835C21.967 6.46281 17.4785 2 11.967 2ZM11.967 20.5124C7.28053 20.5124 3.48515 16.6777 3.48515 11.9835C3.48515 7.28926 7.28053 3.4876 11.967 3.4876C16.6535 3.4876 20.4818 7.32231 20.4818 12.0165C20.4818 16.6777 16.6535 20.5124 11.967 20.5124Z" fill="white"/>
</svg>
