<svg width="24" height="24" viewBox="0 0 24 24" fill="none" xmlns="http://www.w3.org/2000/svg">
<path d="M15.3334 11.2231H12.6931V8.61157C12.6931 8.21487 12.3631 7.88429 11.934 7.88429C11.538 7.88429 11.208 8.21487 11.208 8.64462V11.2562H8.6007C8.20466 11.2562 7.87463 11.5868 7.87463 12.0165C7.87463 12.4132 8.20466 12.7438 8.63371 12.7438H11.241V15.3554C11.241 15.7521 11.571 16.0826 12 16.0826C12.3961 16.0826 12.7261 15.7521 12.7261 15.3223V12.7107H15.3334C15.7294 12.7107 16.0594 12.3802 16.0594 11.9504C16.0594 11.5537 15.7294 11.2231 15.3334 11.2231Z" fill="white"/>
<path d="M11.967 2C6.45545 2 2 6.46281 2 11.9835C2 17.5041 6.48845 22 12 22C17.5116 22 22 17.5041 22 11.9835C21.967 6.46281 17.4785 2 11.967 2ZM11.967 20.5124C7.28053 20.5124 3.48515 16.6777 3.48515 11.9835C3.48515 7.28926 7.28053 3.4876 11.967 3.4876C16.6535 3.4876 20.4818 7.28926 20.4818 11.9835C20.4818 16.6777 16.6535 20.5124 11.967 20.5124Z" fill="white"/>
</svg>
