<svg width="24" height="24" viewBox="0 0 24 24" fill="none" xmlns="http://www.w3.org/2000/svg">
<path d="M11.9835 2C6.46281 2 2 6.46281 2 11.9835C2 17.5041 6.46281 22 11.9835 22C17.5041 22 22 17.5041 22 11.9835C22 6.46281 17.5041 2 11.9835 2ZM11.9835 20.5124C7.28926 20.5124 3.4876 16.6777 3.4876 11.9835C3.4876 7.28926 7.28926 3.4876 11.9835 3.4876C16.6777 3.4876 20.5124 7.32231 20.5124 12.0165C20.5124 16.6777 16.6777 20.5124 11.9835 20.5124Z" fill="white"/>
<path d="M14.8264 8.90909L10.8925 12.7438L9.1074 10.9917C8.80988 10.6942 8.34707 10.7273 8.04955 10.9917C7.75203 11.2893 7.78509 11.7521 8.04955 12.0496L10.1653 14.0992C10.3636 14.2975 10.6281 14.3967 10.8925 14.3967C11.157 14.3967 11.4214 14.2975 11.6198 14.0992L15.8843 10C16.1818 9.70248 16.1818 9.23967 15.8843 8.94215C15.5867 8.64463 15.1239 8.64463 14.8264 8.90909Z" fill="white"/>
</svg>
