<svg width="24" height="24" viewBox="0 0 24 24" fill="none" xmlns="http://www.w3.org/2000/svg">
<path d="M11.9835 2C6.46281 2 2 6.46281 2 11.9835C2 17.5041 6.46281 22 11.9835 22C17.5041 22 22 17.5041 22 11.9835C22 6.46281 17.5041 2 11.9835 2ZM11.9835 20.5124C7.28926 20.5124 3.4876 16.6777 3.4876 11.9835C3.4876 7.28926 7.28926 3.4876 11.9835 3.4876C16.6777 3.4876 20.5124 7.32231 20.5124 12.0165C20.5124 16.6777 16.6777 20.5124 11.9835 20.5124Z" fill="white"/>
<path d="M15.0249 8.9091C14.7274 8.61158 14.2645 8.61158 13.967 8.9091L11.9836 10.9256L9.96703 8.9091C9.66951 8.61158 9.2067 8.61158 8.90918 8.9091C8.61166 9.20662 8.61166 9.66943 8.90918 9.96695L10.9257 11.9835L8.90918 14C8.61166 14.2975 8.61166 14.7603 8.90918 15.0579C9.04141 15.1901 9.23976 15.2893 9.4381 15.2893C9.63645 15.2893 9.8348 15.2231 9.96703 15.0579L11.9836 13.0413L14.0001 15.0579C14.1323 15.1901 14.3307 15.2893 14.529 15.2893C14.7274 15.2893 14.9257 15.2231 15.0579 15.0579C15.3555 14.7603 15.3555 14.2975 15.0579 14L13.0414 11.9835L15.0579 9.96695C15.3224 9.66943 15.3224 9.20662 15.0249 8.9091Z" fill="white"/>
</svg>
