<svg width="12" height="12" viewBox="0 0 12 12" fill="none" xmlns="http://www.w3.org/2000/svg">
<path d="M5.99174 1C3.2314 1 1 3.2314 1 5.99174C1 8.75207 3.2314 11 5.99174 11C8.75207 11 11 8.75207 11 5.99174C11 3.2314 8.75207 1 5.99174 1ZM5.99174 10.2562C3.64463 10.2562 1.7438 8.33884 1.7438 5.99174C1.7438 3.64463 3.64463 1.7438 5.99174 1.7438C8.33884 1.7438 10.2562 3.66116 10.2562 6.00826C10.2562 8.33884 8.33884 10.2562 5.99174 10.2562Z" fill="white"/>
<path d="M7.51244 4.45455C7.36368 4.30579 7.13227 4.30579 6.98351 4.45455L5.99178 5.46281L4.98351 4.45455C4.83475 4.30579 4.60335 4.30579 4.45459 4.45455C4.30583 4.60331 4.30583 4.83471 4.45459 4.98347L5.46285 5.99174L4.45459 7C4.30583 7.14876 4.30583 7.38017 4.45459 7.52893C4.5207 7.59504 4.61988 7.64463 4.71905 7.64463C4.81822 7.64463 4.9174 7.61157 4.98351 7.52893L5.99178 6.52066L7.00004 7.52893C7.06616 7.59504 7.16533 7.64463 7.26451 7.64463C7.36368 7.64463 7.46285 7.61157 7.52897 7.52893C7.67773 7.38017 7.67773 7.14876 7.52897 7L6.5207 5.99174L7.52897 4.98347C7.6612 4.83471 7.6612 4.60331 7.51244 4.45455Z" fill="white"/>
</svg>
