<svg width="24" height="24" viewBox="0 0 24 24" fill="none" xmlns="http://www.w3.org/2000/svg">
<path d="M19.1925 3.31012C19.606 2.89663 20.2764 2.89663 20.6899 3.31012C21.1034 3.72362 21.1034 4.39403 20.6899 4.80753L13.4974 12L20.6899 19.1925C21.1034 19.606 21.1034 20.2764 20.6899 20.6899C20.2764 21.1034 19.606 21.1034 19.1925 20.6899L12 13.4974L4.80752 20.6899C4.39403 21.1034 3.72362 21.1034 3.31012 20.6899C2.89663 20.2764 2.89663 19.606 3.31012 19.1925L10.5026 12L3.31012 4.80753C2.89663 4.39403 2.89663 3.72362 3.31012 3.31012C3.72362 2.89663 4.39403 2.89663 4.80753 3.31012L12 10.5026L19.1925 3.31012Z" fill="white"/>
</svg>
