<svg width="24" height="24" viewBox="0 0 24 24" fill="none" xmlns="http://www.w3.org/2000/svg">
<path d="M19.6577 5.79538L16.3892 2.36304C16.1713 2.13201 15.86 2 15.5487 2H9.88334C8.98062 2 8.23353 2.79208 8.23353 3.74917V15.7954C8.23353 16.7525 8.98062 17.5446 9.88334 17.5446H18.3503C19.253 17.5446 20.0001 16.7525 20.0001 15.7954V6.68647C20.0001 6.35643 19.8756 6.0264 19.6577 5.79538ZM16.4514 4.54125L17.6343 5.79538H16.4514V4.54125ZM18.3503 16.0594H9.88334C9.75883 16.0594 9.63431 15.9274 9.63431 15.7954V3.74917C9.63431 3.61716 9.75883 3.48515 9.88334 3.48515H15.0507V6.52145C15.0507 6.91749 15.3619 7.28053 15.7666 7.28053H18.5993V15.8284C18.5993 15.9604 18.4748 16.0594 18.3503 16.0594Z" fill="white"/>
<path d="M15.0506 18.6007C14.677 18.6007 14.3346 18.9307 14.3346 19.3597V20.2508C14.3346 20.3828 14.2101 20.5148 14.0856 20.5148H5.64981C5.52529 20.5148 5.40078 20.3828 5.40078 20.2508V8.17162C5.40078 8.0396 5.52529 7.90759 5.64981 7.90759H6.70817C7.08171 7.90759 7.42412 7.57756 7.42412 7.14851C7.42412 6.71947 7.11284 6.38944 6.70817 6.38944H5.64981C4.74708 6.38944 4 7.18152 4 8.13861V20.2508C4 21.2079 4.74708 22 5.64981 22H14.1167C15.0195 22 15.7665 21.2079 15.7665 20.2508V19.3597C15.7665 18.9307 15.4553 18.6007 15.0506 18.6007Z" fill="white"/>
</svg>
