<svg width="24" height="24" viewBox="0 0 24 24" fill="none" xmlns="http://www.w3.org/2000/svg">
<path d="M21.2707 15.1903C20.8741 15.1903 20.5105 15.5261 20.5105 15.9627V18.9515C20.5105 19.2537 20.2791 19.4888 19.9816 19.4888H4.04937C3.75188 19.4888 3.5205 19.2537 3.5205 18.9515V15.9627C3.5205 15.5597 3.18996 15.1903 2.76025 15.1903C2.33054 15.1903 2 15.5261 2 15.9627V18.9515C2 20.0933 2.89247 21 4.01632 21H19.9816C21.1054 21 21.9979 20.0933 21.9979 18.9515V15.9627C22.031 15.5261 21.6674 15.1903 21.2707 15.1903Z" fill="white"/>
<path d="M11.4867 15.9963C11.6189 16.1306 11.8172 16.1978 12.0155 16.1978C12.2139 16.1978 12.3791 16.1306 12.5444 15.9963L17.2712 11.3284C17.5687 11.0261 17.5687 10.556 17.3042 10.2537C17.0067 9.95149 16.544 9.95149 16.2465 10.2201L12.7758 13.6791V3.77239C12.7758 3.3694 12.4452 3 12.0155 3C11.6189 3 11.2553 3.33582 11.2553 3.77239V13.6791L7.78457 10.2537C7.48708 9.95149 7.02432 9.98507 6.72683 10.2537C6.42934 10.556 6.4624 11.0261 6.72683 11.3284L11.4867 15.9963Z" fill="white"/>
</svg>
