<svg width="24" height="24" viewBox="0 0 24 24" fill="none" xmlns="http://www.w3.org/2000/svg">
<path d="M21.6852 8.87403L19.6671 7.62529C19.6671 6.50799 18.7407 5.555 17.5827 5.555H16.3255C16.2925 5.555 16.2925 5.52214 16.2594 5.52214L12.4216 3.12323C12.19 2.95892 11.8591 2.95892 11.6276 3.12323L7.7236 5.555H6.46639C5.34152 5.555 4.38208 6.47513 4.38208 7.62529L2.36393 8.87403C2.13234 9.00548 2 9.23551 2 9.4984V18.8311C2 20.047 2.99253 21 4.18357 21H19.7994C21.0235 21 21.983 20.0141 21.983 18.8311V9.4984C22.0491 9.23551 21.9168 9.00548 21.6852 8.87403ZM20.5603 9.89274V10.7471L19.6671 11.0758V9.36696L20.5603 9.89274ZM12.0246 4.60201L13.5464 5.555H10.5358L12.0246 4.60201ZM6.46639 7.03377H17.5827C17.9136 7.03377 18.1783 7.29667 18.1783 7.62529V11.6673L11.8922 13.9676L5.87087 11.7987V7.59242C5.87087 7.29667 6.13555 7.03377 6.46639 7.03377ZM4.38208 9.36696V11.2401L3.4888 10.9115V9.9256L4.38208 9.36696ZM19.8325 19.5212H4.21665C3.81964 19.5212 3.52188 19.1926 3.52188 18.8311V12.4888L11.6606 15.4135C11.7268 15.4464 11.8261 15.4464 11.9253 15.4464C12.0246 15.4464 12.0907 15.4464 12.19 15.4135L20.5603 12.3245V18.7983C20.5603 19.1926 20.2295 19.5212 19.8325 19.5212Z" fill="white"/>
<path d="M9.14619 9.82702H14.9029C15.2999 9.82702 15.6638 9.4984 15.6638 9.0712C15.6638 8.644 15.333 8.31538 14.9029 8.31538H9.14619C8.74918 8.31538 8.38525 8.644 8.38525 9.0712C8.38525 9.4984 8.74918 9.82702 9.14619 9.82702Z" fill="white"/>
<path d="M9.14619 12.2259H14.9029C15.2999 12.2259 15.6638 11.8973 15.6638 11.4701C15.6638 11.0429 15.333 10.7143 14.9029 10.7143H9.14619C8.74918 10.7143 8.38525 11.0429 8.38525 11.4701C8.38525 11.8973 8.74918 12.2259 9.14619 12.2259Z" fill="white"/>
</svg>
