<svg width="18" height="18" viewBox="0 0 18 18" fill="none" xmlns="http://www.w3.org/2000/svg">
<path fill-rule="evenodd" clip-rule="evenodd" d="M4.15385 5.36538C3.92433 5.36538 3.70422 5.45656 3.54193 5.61885C3.37964 5.78114 3.28846 6.00126 3.28846 6.23077V13.8462C3.28846 14.0757 3.37964 14.2958 3.54193 14.4581C3.70422 14.6204 3.92433 14.7115 4.15385 14.7115H11.7692C11.9987 14.7115 12.2189 14.6204 12.3812 14.4581C12.5434 14.2958 12.6346 14.0757 12.6346 13.8462V9.69231C12.6346 9.40554 12.8671 9.17308 13.1538 9.17308C13.4406 9.17308 13.6731 9.40554 13.6731 9.69231V13.8462C13.6731 14.3511 13.4725 14.8353 13.1155 15.1924C12.7584 15.5494 12.2742 15.75 11.7692 15.75H4.15385C3.64891 15.75 3.16466 15.5494 2.80762 15.1924C2.45058 14.8353 2.25 14.3511 2.25 13.8462V6.23077C2.25 5.72584 2.45058 5.24159 2.80762 4.88455C3.16466 4.52751 3.64891 4.32692 4.15385 4.32692H8.30769C8.59446 4.32692 8.82692 4.55939 8.82692 4.84615C8.82692 5.13292 8.59446 5.36538 8.30769 5.36538H4.15385Z" fill="#161616"/>
<path fill-rule="evenodd" clip-rule="evenodd" d="M15.2308 2.25H11.0769C10.7902 2.25 10.5577 2.48247 10.5577 2.76923C10.5577 3.05599 10.7902 3.28846 11.0769 3.28846H13.9772L7.24823 10.0175C7.04546 10.2202 7.04546 10.549 7.24823 10.7518C7.451 10.9545 7.77976 10.9545 7.98254 10.7518L14.7115 4.02276V6.92308C14.7115 7.20984 14.944 7.44231 15.2308 7.44231C15.5175 7.44231 15.75 7.20984 15.75 6.92308V2.76923C15.75 2.62641 15.6923 2.49706 15.599 2.40318L15.5979 2.40208L15.5968 2.40098C15.5473 2.35174 15.4903 2.31455 15.4295 2.2894C15.3683 2.26401 15.3012 2.25 15.2308 2.25Z" fill="#161616"/>
</svg>
