<svg width="24" height="24" viewBox="0 0 24 24" fill="none" xmlns="http://www.w3.org/2000/svg">
<path fill-rule="evenodd" clip-rule="evenodd" d="M5.53846 7.15385C5.23244 7.15385 4.93896 7.27541 4.72257 7.4918C4.50618 7.70819 4.38462 8.00167 4.38462 8.30769V18.4615C4.38462 18.7676 4.50618 19.061 4.72257 19.2774C4.93896 19.4938 5.23244 19.6154 5.53846 19.6154H15.6923C15.9983 19.6154 16.2918 19.4938 16.5082 19.2774C16.7246 19.061 16.8462 18.7676 16.8462 18.4615V12.9231C16.8462 12.5407 17.1561 12.2308 17.5385 12.2308C17.9208 12.2308 18.2308 12.5407 18.2308 12.9231V18.4615C18.2308 19.1348 17.9633 19.7804 17.4873 20.2565C17.0112 20.7326 16.3656 21 15.6923 21H5.53846C4.86522 21 4.21955 20.7326 3.7435 20.2565C3.26744 19.7804 3 19.1348 3 18.4615V8.30769C3 7.63445 3.26744 6.98878 3.7435 6.51273C4.21955 6.03667 4.86522 5.76923 5.53846 5.76923H11.0769C11.4593 5.76923 11.7692 6.07919 11.7692 6.46154C11.7692 6.84389 11.4593 7.15385 11.0769 7.15385H5.53846Z" fill="white"/>
<path fill-rule="evenodd" clip-rule="evenodd" d="M20.3077 3H14.7692C14.3869 3 14.0769 3.30996 14.0769 3.69231C14.0769 4.07466 14.3869 4.38462 14.7692 4.38462H18.6363L9.66431 13.3566C9.39395 13.627 9.39395 14.0653 9.66431 14.3357C9.93467 14.6061 10.373 14.6061 10.6434 14.3357L19.6154 5.36369V9.23077C19.6154 9.61312 19.9253 9.92308 20.3077 9.92308C20.69 9.92308 21 9.61312 21 9.23077V3.69231C21 3.50188 20.9231 3.32941 20.7987 3.20424L20.7972 3.20277L20.7958 3.20131C20.7297 3.13566 20.6537 3.08607 20.5727 3.05253C20.4911 3.01868 20.4016 3 20.3077 3Z" fill="white"/>
</svg>
