<svg width="24" height="24" viewBox="0 0 24 24" fill="none" xmlns="http://www.w3.org/2000/svg">
<path d="M13.6474 22C13.5087 22 13.3353 21.9669 13.1965 21.9338L9.9711 20.8079C9.45087 20.6424 9.10405 20.1457 9.10405 19.649V13.2914L3.55491 6.7351C3.20809 6.30464 3 5.77483 3 5.24503V3.22517C3 2.5298 3.5896 2 4.28324 2H19.7168C20.4451 2 21 2.56291 21 3.22517V5.24503C21 5.77483 20.7919 6.30464 20.4451 6.7351L14.896 13.2914V20.7748C14.896 21.1722 14.6879 21.5695 14.341 21.8013C14.1676 21.9338 13.9249 22 13.6474 22ZM10.6994 19.4834L13.4046 20.4437V13.0596C13.4046 12.894 13.474 12.7285 13.578 12.596L19.3006 5.84106C19.4393 5.6755 19.5087 5.47682 19.5087 5.27815V3.49007H4.59538V5.27815C4.59538 5.47682 4.66474 5.6755 4.80347 5.84106L10.526 12.596C10.6301 12.7285 10.6994 12.894 10.6994 13.0596V19.4834Z" fill="white"/>
</svg>
