<svg width="24" height="24" viewBox="0 0 24 24" fill="none" xmlns="http://www.w3.org/2000/svg">
<path d="M12.0086 7.89786C9.76625 7.89786 7.91965 9.743 7.91965 11.9835C7.91965 14.257 9.76625 16.0692 12.0086 16.0692C14.2509 16.0692 16.0975 14.257 16.0975 11.9835C16.0975 9.743 14.2509 7.89786 12.0086 7.89786ZM12.0086 14.6194C10.5577 14.6194 9.40353 13.4333 9.40353 12.0165C9.40353 10.5667 10.5577 9.41351 12.0086 9.41351C13.4595 9.41351 14.6136 10.5667 14.6136 11.9835C14.6136 13.4333 13.4265 14.6194 12.0086 14.6194Z" fill="white"/>
<path d="M21.4394 13.9934L19.5928 12.972C19.6588 12.6096 19.6917 12.2471 19.6917 11.8847C19.6917 11.4893 19.6588 11.1269 19.6258 10.7644L21.5054 9.71005C21.934 9.47941 22.0989 8.95222 21.9011 8.49094L19.9885 5.26194C19.7577 4.86656 19.2301 4.70181 18.8014 4.86656L16.8229 5.95387C16.724 5.88797 16.6251 5.78913 16.5591 5.72323C16.1964 5.42669 15.8666 5.13015 15.339 4.86656C15.3061 4.86656 15.2731 4.83361 15.2731 4.76771V3.58155C15.2731 2.72488 14.5806 2 13.6903 2H10.2939C9.4365 2 8.71105 2.72488 8.71105 3.58155V4.86656C8.71105 4.89951 8.67808 4.93245 8.6451 4.9654C8.15048 5.19605 7.78775 5.52554 7.39205 5.82208C7.3261 5.88797 7.22718 5.95387 7.16122 6.01977L5.41355 5.0313C4.75405 4.66886 4.19347 4.89951 3.96264 5.29489L2.14902 8.42504C2.05009 8.68863 2.01712 8.95222 2.08307 9.21582C2.14902 9.47941 2.31389 9.6771 2.54472 9.8089L4.39132 10.7974C4.32537 11.1269 4.32537 11.4893 4.32537 11.9176C4.32537 12.2801 4.35835 12.6425 4.39132 13.0049L2.47877 14.0593C2.05009 14.2899 1.88522 14.8171 2.08307 15.2784L3.99562 18.5074C4.22645 18.9028 4.72107 19.0675 5.18272 18.9028L7.16122 17.8155C7.26015 17.8814 7.3261 17.9473 7.42503 18.0461C7.78775 18.3756 8.15048 18.6722 8.67808 18.9028C8.71105 18.9028 8.74403 18.9357 8.74403 19.0016V20.4185C8.74403 21.2751 9.4365 22 10.3268 22H13.6903C14.5476 22 15.2731 21.2751 15.2731 20.4185V18.9028C15.2731 18.8699 15.3061 18.8369 15.339 18.804C15.8337 18.5733 16.1634 18.2768 16.5591 17.9473C16.658 17.8814 16.724 17.8155 16.8229 17.7166L18.5706 18.7051C19.2301 19.0675 19.7577 18.8369 20.0215 18.4415L21.8681 15.3114C22 15.0807 22.033 14.8171 21.967 14.5865C21.9011 14.3558 21.6702 14.1252 21.4394 13.9934ZM18.9333 17.2554L17.3505 16.3657C16.8889 16.1021 16.3613 16.168 15.9656 16.4975C15.8007 16.6293 15.6688 16.7282 15.5369 16.86C15.2071 17.1565 14.9763 17.3542 14.6466 17.486C14.119 17.7496 13.7562 18.3097 13.7562 18.9028V20.3526C13.7562 20.4185 13.7233 20.4514 13.6573 20.4514H10.2939C10.2279 20.4514 10.1949 20.4185 10.1949 20.3526V18.9357C10.1949 18.3427 9.8322 17.7825 9.3046 17.5189C8.97485 17.3542 8.71105 17.1565 8.3813 16.86C8.2494 16.7611 8.1175 16.6293 7.95263 16.5305C7.7218 16.3657 7.458 16.2669 7.16122 16.2669C6.96337 16.2669 6.73255 16.3328 6.5347 16.4316L4.9519 17.3213L3.63289 15.0807L5.18272 14.2241C5.64437 13.9605 5.90817 13.4662 5.84222 12.9061C5.80925 12.5766 5.77627 12.2471 5.77627 11.9176C5.77627 11.5552 5.80925 11.2257 5.84222 10.9621C5.94115 10.402 5.67735 9.84185 5.18272 9.57825L3.73182 8.75453L5.01785 6.54695L6.60065 7.43657C7.0623 7.70016 7.5899 7.63427 7.9856 7.30478C8.1175 7.20593 8.2494 7.07413 8.3813 6.97529C8.71105 6.67875 8.97485 6.48105 9.3046 6.31631C9.86518 6.05272 10.1949 5.49259 10.1949 4.89951V3.6145C10.1949 3.5486 10.2279 3.51565 10.2939 3.51565H13.6573C13.7233 3.51565 13.7562 3.5486 13.7562 3.6145V4.86656C13.7562 5.45964 14.119 6.01977 14.6466 6.28336C14.9763 6.44811 15.2071 6.6458 15.5369 6.90939C15.6688 7.04119 15.8007 7.14003 15.9656 7.27183C16.3613 7.60132 16.9218 7.63427 17.3505 7.37068L18.9333 6.48105L20.2523 8.72158L18.7355 9.57825C18.2738 9.84185 18.01 10.402 18.1089 10.9621C18.1419 11.2586 18.1749 11.5881 18.1749 11.9176C18.1749 12.2471 18.1419 12.5766 18.076 12.9061C17.977 13.4662 18.2408 13.9934 18.7355 14.257L20.2193 15.0807L18.9333 17.2554Z" fill="white"/>
</svg>
