<svg width="24" height="24" viewBox="0 0 24 24" fill="none" xmlns="http://www.w3.org/2000/svg">
<path d="M8.30367 11.2607C10.3499 11.2607 12.033 9.64356 12.033 7.63036C12.033 5.61716 10.3499 4 8.30367 4C6.25747 4 4.5743 5.61716 4.5743 7.63036C4.5743 9.64356 6.25747 11.2607 8.30367 11.2607ZM8.30367 5.51815C9.5248 5.51815 10.5479 6.47525 10.5479 7.66337C10.5479 8.85148 9.5578 9.80858 8.30367 9.80858C7.04955 9.80858 6.05945 8.85148 6.05945 7.66337C6.05945 6.47525 7.08255 5.51815 8.30367 5.51815Z" fill="white"/>
<path d="M16.5875 12.8449C18.3696 12.8449 19.7888 11.4587 19.7888 9.70957C19.7888 7.9604 18.3366 6.57426 16.5875 6.57426C14.8383 6.57426 13.3861 7.9604 13.3861 9.70957C13.3861 11.4587 14.8383 12.8449 16.5875 12.8449ZM16.5875 8.09241C17.5446 8.09241 18.3036 8.81848 18.3036 9.74258C18.3036 10.6667 17.5446 11.3927 16.5875 11.3927C15.6304 11.3927 14.8713 10.6667 14.8713 9.74258C14.8713 8.81848 15.6304 8.09241 16.5875 8.09241Z" fill="white"/>
<path d="M16.7525 13.1749H16.4554C15.4653 13.1749 14.5083 13.4719 13.6832 13.967C12.7921 12.7789 11.3729 11.9868 9.78878 11.9868H6.85149C4.14521 12.0198 2 14.165 2 16.8383V19.2145C2 19.8416 2.49505 20.3366 3.12211 20.3366H20.8449C21.4719 20.3366 22 19.8086 22 19.1815V18.3894C21.967 15.5181 19.6238 13.1749 16.7525 13.1749ZM3.48515 18.8515V16.8383C3.48515 14.9901 5.0033 13.4719 6.85149 13.4719H9.78878C11.637 13.4719 13.1551 14.9901 13.1551 16.8383V18.8515H3.48515ZM20.4818 18.8515H14.6073V16.8383C14.6073 16.3102 14.5083 15.7822 14.3432 15.2871C14.9373 14.8581 15.6634 14.6601 16.4224 14.6601H16.7195C18.7657 14.6601 20.4488 16.3432 20.4488 18.3894V18.8515H20.4818Z" fill="white"/>
</svg>
