<svg width="24" height="24" viewBox="0 0 24 24" fill="none" xmlns="http://www.w3.org/2000/svg">
<path d="M20.7086 16.5733C20.5323 15.9382 20.1186 15.3994 19.5567 15.0733C18.9948 14.7472 18.33 14.6599 17.7056 14.8303C16.567 15.1598 15.0059 15.6474 13.835 15.9934C13.9422 15.6471 13.9296 15.2737 13.7995 14.9357C13.5028 14.1812 12.6803 13.8451 11.9932 13.8451H8.77416C8.44509 13.8257 8.13579 13.6783 7.90972 13.4332C7.56655 13.1113 7.11767 12.9326 6.65177 12.9324H4.03587C3.48519 12.9445 2.96169 13.1792 2.58016 13.585C2.19862 13.9908 1.99019 14.5346 2.00056 15.0972V19.3344C1.99414 19.6189 2.04272 19.902 2.14352 20.1674C2.24433 20.4327 2.39537 20.6752 2.58802 20.8809C2.78066 21.0865 3.01112 21.2514 3.2662 21.3659C3.52129 21.4805 3.79598 21.5426 4.07457 21.5485H7.21623C7.61972 21.5466 8.01364 21.4228 8.34839 21.1927L8.3871 21.2125C9.30191 21.7277 10.3293 21.9986 11.3739 21.9999C11.9953 22.0028 12.6133 21.9072 13.206 21.7166L19.0442 19.9011H19.0829C19.4036 19.7966 19.7008 19.6281 19.9573 19.4054C20.2138 19.1827 20.4245 18.9102 20.5772 18.6038C20.7299 18.2973 20.8216 17.963 20.8469 17.6201C20.8722 17.2772 20.8307 16.9326 20.7247 16.6062L20.7086 16.5733ZM4.07457 20.2306C3.96537 20.2247 3.85839 20.1968 3.75979 20.1485C3.66119 20.1002 3.57292 20.0324 3.50006 19.9491C3.4272 19.8658 3.3712 19.7686 3.33529 19.6631C3.29937 19.5576 3.28424 19.4459 3.29077 19.3344V15.0972C3.28107 14.8843 3.35381 14.6761 3.49326 14.5176C3.63271 14.3591 3.82764 14.2631 4.03587 14.2504H6.64854C6.79266 14.2504 6.93125 14.307 7.0356 14.4085C7.13843 14.5002 7.24611 14.586 7.35816 14.6655V20.2042C7.31312 20.2091 7.26772 20.2091 7.22268 20.2042L4.07457 20.2306ZM18.6475 18.6425L12.8222 20.448C12.3537 20.5987 11.8651 20.6742 11.3739 20.6721C10.5443 20.6706 9.72857 20.4541 9.00317 20.0428L8.64191 19.8484V15.1565H11.9997C12.1147 15.1453 12.2307 15.1636 12.3371 15.2096C12.4435 15.2556 12.5371 15.3279 12.6093 15.4201C12.6609 15.5551 12.5706 15.9571 11.8932 16.6161L11.5223 16.9752L11.7771 17.4233C12.0545 17.9242 12.0545 17.9242 15.3123 16.9357C16.696 16.5238 18.0766 16.1021 18.0766 16.1021C18.3753 16.0307 18.6894 16.0809 18.9525 16.242C19.2157 16.4032 19.407 16.6626 19.4861 16.9654C19.5439 17.1308 19.5679 17.3066 19.5565 17.4819C19.5452 17.6572 19.4988 17.8282 19.4202 17.9845C19.3416 18.1407 19.2325 18.2788 19.0996 18.3903C18.9667 18.5018 18.8128 18.5842 18.6475 18.6326V18.6425Z" fill="white"/>
<path d="M21.9731 4.82371C21.9528 4.57484 21.8473 4.34124 21.675 4.16405C21.5027 3.98686 21.2748 3.87743 21.0313 3.85502C20.2281 3.79242 18.725 3.85502 17.6735 4.91268C17.4966 5.09245 17.3407 5.29258 17.209 5.50905C17.1261 4.70307 16.8107 3.94043 16.3026 3.31795C15.335 2.20428 13.7222 2.01647 12.8642 2C12.6029 2.00269 12.3521 2.10595 12.162 2.28917C11.9719 2.47239 11.8564 2.72209 11.8385 2.98847C11.7708 3.9308 11.803 5.68038 12.7642 6.78088C13.5609 7.69356 14.7866 7.87807 15.6672 7.87807C15.8827 7.8796 16.0981 7.8686 16.3123 7.84512V12.682C16.3123 12.8568 16.3803 13.0244 16.5013 13.148C16.6222 13.2716 16.7863 13.341 16.9574 13.341C17.1285 13.341 17.2926 13.2716 17.4136 13.148C17.5346 13.0244 17.6025 12.8568 17.6025 12.682V9.71662C18.5186 9.70014 20.0475 9.51563 20.999 8.55023C22.0247 7.4761 22.0505 5.75287 21.9731 4.82371ZM15.9511 6.56341C15.2769 6.60625 14.248 6.52387 13.7125 5.90444C13.1126 5.2224 13.0674 3.95057 13.0965 3.32454C13.7125 3.36408 14.7512 3.53212 15.3253 4.1878C15.8995 4.84348 15.9769 5.94398 15.9511 6.56341ZM20.0636 7.62766C19.4411 8.26028 18.2992 8.39207 17.6154 8.41184C17.7025 7.70015 17.938 6.50081 18.5831 5.84513C19.1572 5.26193 20.0281 5.1565 20.5894 5.1565H20.7087C20.7281 5.75287 20.7087 6.97198 20.0636 7.62766Z" fill="white"/>
</svg>
