<svg width="24" height="24" viewBox="0 0 24 24" fill="none" xmlns="http://www.w3.org/2000/svg">
<path d="M6.71789 6.73614C8.06893 5.38044 9.93592 4.54286 12 4.54286C16.1185 4.54286 19.4571 7.88153 19.4571 12C19.4571 16.1185 16.1185 19.4571 12 19.4571C7.88153 19.4571 4.54286 16.1185 4.54286 12C4.54286 11.574 4.19748 11.2286 3.77143 11.2286C3.34538 11.2286 3 11.574 3 12C3 16.9706 7.02944 21 12 21C16.9706 21 21 16.9706 21 12C21 7.02944 16.9706 3 12 3C9.50933 3 7.25374 4.01275 5.62505 5.64705C5.59887 5.67332 5.57498 5.701 5.55337 5.72984L4.25987 4.43634C4.11877 4.29524 3.90878 4.2485 3.72114 4.31643C3.53351 4.38436 3.40211 4.55471 3.38405 4.75344L3.02039 8.75364C3.00657 8.90564 3.06098 9.05593 3.16891 9.16386C3.27683 9.27178 3.42712 9.3262 3.57913 9.31238L7.57933 8.94872C7.77806 8.93066 7.9484 8.79926 8.01634 8.61162C8.08427 8.42399 8.03753 8.214 7.89642 8.07289L6.63322 6.80969C6.66276 6.78756 6.69107 6.76305 6.71789 6.73614Z" fill="white"/>
<path d="M12.7714 6.85714C12.7714 6.43109 12.426 6.08571 12 6.08571C11.574 6.08571 11.2286 6.43109 11.2286 6.85714V12C11.2286 12.266 11.3656 12.5132 11.5911 12.6542L14.6769 14.5827C15.0381 14.8085 15.5141 14.6987 15.7399 14.3374C15.9657 13.9761 15.8559 13.5002 15.4946 13.2744L12.7714 11.5724V6.85714Z" fill="white"/>
</svg>
