<svg width="24" height="24" viewBox="0 0 24 24" fill="none" xmlns="http://www.w3.org/2000/svg">
<path d="M21.2409 19.5405H19.4587V13.1514C19.4587 12.1135 18.6007 11.3027 17.5776 11.3027H15.6634C14.6073 11.3027 13.7822 12.1459 13.7822 13.1514V19.5405H11.802V8.25405C11.802 7.21622 10.9439 6.40541 9.92079 6.40541H8.0066C6.95049 6.40541 6.12541 7.24865 6.12541 8.25405V19.5405H3.51815V3.74595C3.51815 3.35676 3.18812 3 2.75908 3C2.33003 3 2 3.32432 2 3.74595V19.6054C2 20.3514 2.62706 21 3.41914 21H21.2409C21.637 21 22 20.6757 22 20.2541C22 19.8324 21.637 19.5405 21.2409 19.5405ZM7.61056 19.5405V8.25405C7.61056 8.02703 7.80858 7.86486 8.0066 7.86486H9.92079C10.1518 7.86486 10.3168 8.05946 10.3168 8.25405V19.5405H7.61056ZM15.2673 19.5405V13.1514C15.2673 12.9243 15.4653 12.7622 15.6634 12.7622H17.5776C17.8086 12.7622 17.9736 12.9568 17.9736 13.1514V19.5405H15.2673Z" fill="white"/>
</svg>
