<svg width="24" height="24" viewBox="0 0 24 24" fill="none" xmlns="http://www.w3.org/2000/svg">
<path d="M22.9501 8.84999L13.2751 2.62499C12.4876 2.13749 11.4751 2.13749 10.7251 2.62499L1.05006 8.84999C0.675064 9.11249 0.562564 9.63749 0.787564 10.0125C1.05006 10.3875 1.57506 10.5 1.95006 10.275L2.58756 9.86249V19.35C2.58756 20.6625 3.63756 21.7125 4.95006 21.7125H19.0501C20.3626 21.7125 21.4126 20.6625 21.4126 19.35V9.86249L22.0501 10.275C22.2001 10.35 22.3501 10.425 22.5001 10.425C22.7626 10.425 23.0626 10.275 23.2126 10.05C23.4751 9.63749 23.3626 9.11249 22.9501 8.84999ZM10.0126 20.0625V13.875C10.0126 13.5 10.3126 13.2 10.6876 13.2H13.3126C13.6876 13.2 13.9876 13.5 13.9876 13.875V20.0625H10.0126ZM19.7251 19.35C19.7251 19.725 19.4251 20.025 19.0501 20.025H15.6751V13.875C15.6751 12.6 14.6251 11.55 13.3501 11.55H10.7251C9.45006 11.55 8.40006 12.6 8.40006 13.875V20.0625H5.02506C4.65006 20.0625 4.35006 19.7625 4.35006 19.3875V8.77499L11.6251 4.04999C11.8501 3.89999 12.1501 3.89999 12.3751 4.04999L19.7251 8.77499V19.35Z" fill="white"/>
</svg>
