<svg width="24" height="24" viewBox="0 0 24 24" fill="none" xmlns="http://www.w3.org/2000/svg">
<path d="M12.0166 7.71901H11.9835C11.5868 7.71901 11.2232 8.04959 11.2232 8.47934C11.2232 8.90909 11.5538 9.23967 11.9835 9.23967H12.0166C12.4133 9.23967 12.7769 8.90909 12.7769 8.47934C12.7769 8.04959 12.4463 7.71901 12.0166 7.71901Z" fill="white"/>
<path d="M12.0166 10.3306C11.6199 10.3306 11.2563 10.6612 11.2563 11.0909V16.1818C11.2563 16.5785 11.5868 16.9422 12.0166 16.9422C12.4133 16.9422 12.7769 16.6116 12.7769 16.1818V11.0579C12.7769 10.6612 12.4463 10.3306 12.0166 10.3306Z" fill="white"/>
<path d="M12.0165 2C6.49587 2 2 6.46281 2 11.9835C2 17.5041 6.49587 22 12.0165 22C17.5372 22 22 17.5041 22 11.9835C22 6.46281 17.5372 2 12.0165 2ZM12.0165 20.5124C7.32231 20.5124 3.4876 16.6777 3.4876 11.9835C3.4876 7.28926 7.32231 3.45455 12.0165 3.45455C16.7107 3.45455 20.5124 7.28926 20.5124 11.9835C20.5124 16.6777 16.7107 20.5124 12.0165 20.5124Z" fill="white"/>
</svg>
