<svg width="12" height="12" viewBox="0 0 12 12" fill="none" xmlns="http://www.w3.org/2000/svg">
<path d="M6.00829 3.8595H5.99176C5.79341 3.8595 5.61159 4.02479 5.61159 4.23967C5.61159 4.45455 5.77688 4.61984 5.99176 4.61984H6.00829C6.20664 4.61984 6.38845 4.45455 6.38845 4.23967C6.38845 4.02479 6.22317 3.8595 6.00829 3.8595Z" fill="white"/>
<path d="M6.0083 5.16529C5.80995 5.16529 5.62813 5.33058 5.62813 5.54546V8.09091C5.62813 8.28926 5.79342 8.47108 6.0083 8.47108C6.20664 8.47108 6.38846 8.30579 6.38846 8.09091V5.52893C6.38846 5.33058 6.22317 5.16529 6.0083 5.16529Z" fill="white"/>
<path d="M6.00826 1C3.24793 1 1 3.2314 1 5.99174C1 8.75207 3.24793 11 6.00826 11C8.7686 11 11 8.75207 11 5.99174C11 3.2314 8.7686 1 6.00826 1ZM6.00826 10.2562C3.66116 10.2562 1.7438 8.33884 1.7438 5.99174C1.7438 3.64463 3.66116 1.72727 6.00826 1.72727C8.35537 1.72727 10.2562 3.64463 10.2562 5.99174C10.2562 8.33884 8.35537 10.2562 6.00826 10.2562Z" fill="white"/>
</svg>
