<svg width="24" height="24" viewBox="0 0 24 24" fill="none" xmlns="http://www.w3.org/2000/svg">
<path d="M20.0351 3.95041C18.7776 2.69421 17.09 2 15.303 2C13.516 2 11.7952 2.69421 10.5377 3.95041C8.85005 5.63636 8.1882 8.01653 8.78386 10.3306L2.36401 16.7107C2.13237 16.9421 2 17.2727 2 17.6364V20.7107C2 21.405 2.56256 22 3.29059 22H6.36814C6.69906 22 7.02998 21.8678 7.29472 21.6364L8.05584 20.876C8.32057 20.6116 8.48603 20.2149 8.41985 19.8182V19.7521L8.81695 19.719C9.4457 19.6529 9.90899 19.1901 9.97517 18.562L10.0083 18.1653H10.0744C10.4385 18.1983 10.8025 18.0992 11.1003 17.8347C11.365 17.6033 11.5305 17.2397 11.5305 16.876V16.6116H11.7621C12.0931 16.6116 12.424 16.4793 12.6556 16.2479L13.7477 15.1901C16.031 15.7521 18.4136 15.124 20.0682 13.4711C22.6494 10.8264 22.6494 6.56198 20.0351 3.95041ZM18.9762 12.3802C17.6194 13.7355 15.6008 14.2314 13.7146 13.6033C13.4498 13.5041 13.152 13.5702 12.9535 13.7686L11.6298 15.0909H10.7363C10.3392 15.0909 9.97517 15.4215 9.97517 15.8512V16.6446L9.37952 16.5785C9.18096 16.5455 8.98241 16.6116 8.81695 16.7438C8.65149 16.876 8.55222 17.0413 8.55222 17.2397L8.45294 18.2314L7.46018 18.3306C7.26163 18.3636 7.06308 18.4628 6.9638 18.595C6.83143 18.7603 6.76525 18.9587 6.79834 19.157L6.89762 19.8843L6.26887 20.5124H3.48914V17.7355L10.1406 11.0909C10.3392 10.8926 10.4054 10.595 10.3061 10.3306C9.71044 8.44628 10.1737 6.42975 11.5636 5.04132C12.5563 4.04959 13.8469 3.52066 15.2699 3.52066C16.6598 3.52066 17.9834 4.04959 18.9762 5.04132C21.0279 7.02479 21.0279 10.3306 18.9762 12.3802Z" fill="white"/>
<path d="M16.428 5.20661C15.7993 5.20661 15.2036 5.43802 14.7403 5.90083C13.8138 6.82645 13.8138 8.31405 14.7403 9.23967C15.2036 9.70248 15.7993 9.93388 16.428 9.93388C17.0568 9.93388 17.6524 9.70248 18.1157 9.23967C18.579 8.77686 18.8107 8.18182 18.8107 7.55372C18.8107 6.92562 18.579 6.33058 18.1157 5.86777C17.6524 5.43802 17.0568 5.20661 16.428 5.20661ZM17.0568 8.18182C16.7259 8.5124 16.1302 8.5124 15.7993 8.18182C15.4684 7.85124 15.4684 7.28926 15.7993 6.92562C15.9647 6.76033 16.1964 6.66116 16.428 6.66116C16.6597 6.66116 16.8913 6.76033 17.0568 6.92562C17.2222 7.09091 17.3215 7.32231 17.3215 7.55372C17.3215 7.78512 17.2222 8.01653 17.0568 8.18182Z" fill="white"/>
</svg>
