<svg width="24" height="24" viewBox="0 0 24 24" fill="none" xmlns="http://www.w3.org/2000/svg">
<path d="M9.38923 22C9.00369 22 8.65028 21.8348 8.39325 21.5375C7.91133 20.9759 8.07197 20.3151 8.13623 20.0178L9.83902 12.5185H6.52982C6.30492 12.5185 5.85513 12.5185 5.46959 12.2211C4.82703 11.6925 5.0198 10.8006 5.05192 10.5032L6.40131 3.7307C6.46556 3.36729 6.59408 2.80567 7.076 2.40923C7.62218 1.97975 8.16836 1.97975 8.48964 2.01279H12.8912C13.2767 2.01279 14.0799 2.01279 14.5619 2.64049C15.0438 3.26818 14.8831 4.0941 14.8189 4.49054L14.4333 6.37363L17.2606 6.40667C18.3851 6.40667 18.8028 6.93526 18.9313 7.36474C19.1562 8.02547 18.7706 8.62013 18.61 8.85139L10.7386 21.0419C10.578 21.2732 10.3531 21.6366 9.9354 21.8679C9.77476 21.9339 9.61412 22 9.45348 22C9.45348 21.967 9.42135 22 9.38923 22ZM6.49769 10.9988C6.52982 10.9988 6.56195 10.9988 6.56195 10.9988H10.7707C10.9956 10.9988 11.1884 11.0979 11.349 11.2961C11.4776 11.4613 11.5418 11.6925 11.4776 11.9238L9.61412 20.1169L17.3891 8.02547C17.4213 7.99243 17.4534 7.92636 17.4534 7.89332C17.3891 7.89332 17.3249 7.89332 17.1964 7.89332L13.5016 7.86029C13.2767 7.86029 13.084 7.76118 12.9555 7.59599C12.8269 7.43081 12.7627 7.19955 12.8269 6.9683L13.4052 4.16018C13.5016 3.69766 13.4695 3.59855 13.4374 3.56551C13.4052 3.53248 13.3089 3.49944 12.8591 3.49944H8.48964C8.23261 3.49944 8.07197 3.49944 8.03984 3.53248C8.00772 3.56551 7.94346 3.7307 7.8792 3.99499L6.52982 10.7675C6.52982 10.8666 6.49769 10.9327 6.49769 10.9988Z" fill="white"/>
</svg>
