<svg width="24" height="24" viewBox="0 0 24 24" fill="none" xmlns="http://www.w3.org/2000/svg">
<path d="M20.9558 15.4188L18.2668 12.74C16.9057 11.384 14.781 11.2518 13.254 12.3431L11.6605 10.7557C12.1252 10.1273 12.3908 9.36668 12.3908 8.53989C12.3908 7.51468 11.9924 6.52253 11.2621 5.79496L8.5731 3.11616C7.07922 1.62795 4.6226 1.62795 3.09552 3.11616C2.39837 3.87681 2 4.83588 2 5.8611C2 6.88632 2.39837 7.84539 3.12871 8.57296L5.78451 11.2518C6.54806 12.0124 7.54398 12.3762 8.50671 12.3762C9.23705 12.3762 9.9342 12.1778 10.565 11.7809L12.2248 13.4345C11.8265 14.0298 11.6273 14.7573 11.6273 15.4849C11.6273 16.5101 12.0256 17.4692 12.756 18.1968L15.4118 20.8756C16.1753 21.6362 17.1713 22 18.134 22C19.1299 22 20.1258 21.6362 20.8562 20.8756C21.5865 20.148 21.9849 19.1889 21.9849 18.1637C22.0845 17.1385 21.6861 16.1794 20.9558 15.4188ZM6.84683 10.1935L4.19103 7.51467C3.72627 7.05167 3.49389 6.45639 3.49389 5.82803C3.49389 5.19967 3.72627 4.60438 4.19103 4.14138C4.6558 3.67838 5.25335 3.44688 5.88411 3.44688C6.48166 3.44688 7.11241 3.67838 7.57718 4.14138L10.2662 6.7871C10.6977 7.2501 10.9633 7.84539 10.9633 8.47375C10.9633 8.90368 10.8637 9.26747 10.6645 9.63125L9.83461 8.80446C9.53583 8.50682 9.07107 8.50682 8.77229 8.80446C8.47351 9.10211 8.47351 9.56511 8.77229 9.86275L9.53583 10.6234C8.6063 11.0864 7.54398 10.921 6.84683 10.1935ZM19.8603 19.8173C18.9307 20.7433 17.4036 20.7433 16.5073 19.8173L13.8515 17.1385C13.3867 16.6755 13.1544 16.0802 13.1544 15.4518C13.1544 15.1211 13.2208 14.7904 13.3535 14.4928L14.1171 15.2203C14.2499 15.3526 14.4491 15.4518 14.6482 15.4518C14.8474 15.4518 15.0466 15.3857 15.1794 15.2203C15.4782 14.9227 15.4782 14.4597 15.1794 14.1621L14.3495 13.4345C14.7146 13.236 15.113 13.1368 15.5114 13.1368C16.1089 13.1368 16.7397 13.3683 17.2045 13.8313L19.8934 16.4771C20.325 16.9401 20.5906 17.5353 20.5906 18.1637C20.5574 18.7921 20.325 19.3873 19.8603 19.8173Z" fill="white"/>
</svg>
