<svg width="24" height="24" viewBox="0 0 24 24" fill="none" xmlns="http://www.w3.org/2000/svg">
<path d="M11.9995 2C8.11857 2 5 5.27815 5 9.31788V14.6821C5 18.7219 8.15322 22 11.9995 22C13.8013 22 15.4992 21.3046 16.7813 20.0464C18.2366 18.6556 19.0336 16.6689 18.9989 14.649V9.31788C18.9989 5.27815 15.8457 2 11.9995 2ZM17.4396 9.31788V9.68212H12.8311V3.55629C15.4645 3.98675 17.4396 6.40397 17.4396 9.31788ZM11.2718 3.52318V9.68212H6.52463V9.31788C6.52463 6.33775 8.60368 3.88742 11.2718 3.52318ZM15.6724 19.0199C14.6676 19.9801 13.3508 20.5099 11.9995 20.5099C8.98484 20.5099 6.55928 17.894 6.55928 14.6821V11.1722H17.4743V14.6821C17.4743 16.3377 16.8159 17.9272 15.6724 19.0199Z" fill="white"/>
</svg>
