<svg width="741" height="888" viewBox="0 0 741 888" fill="none" xmlns="http://www.w3.org/2000/svg">
<g clip-path="url(#clip0_244_5885)">
<g clip-path="url(#clip1_244_5885)">
<rect width="888" height="888" transform="translate(-74)" fill="#161616"/>
<g filter="url(#filter0_f_244_5885)">
<path fill-rule="evenodd" clip-rule="evenodd" d="M1438.98 2.4705C1540.62 16.2847 1611.48 108.658 1660.52 198.717C1697.24 266.144 1675.11 343.905 1666.45 420.186C1659.27 483.39 1646.86 541.236 1615.35 596.499C1566.6 682.002 1535.06 797.7 1438.98 819.157C1336.47 842.052 1225.68 780.8 1161.16 697.934C1101.61 621.459 1130.6 517.075 1128.32 420.186C1125.93 319.094 1087.38 210.166 1147.73 129.018C1213.39 40.7327 1329.94 -12.3508 1438.98 2.4705Z" fill="#00FAED"/>
</g>
<g filter="url(#filter1_f_244_5885)">
<path fill-rule="evenodd" clip-rule="evenodd" d="M152.532 -180.954C274.512 -178.021 315.237 -17.7232 392.074 77.0226C455.406 155.116 575.164 217.796 555.935 316.472C536.663 415.37 393.351 415.756 313.966 477.844C253.041 525.495 229.877 630.484 152.532 631.981C75.0535 633.48 30.039 547.054 -15.2768 484.216C-51.3701 434.166 -62.9329 376.98 -74.9973 316.472C-92.0981 230.703 -135.199 144.753 -98.8185 65.2178C-48.1135 -45.6338 30.6309 -183.886 152.532 -180.954Z" fill="#00FAED"/>
</g>
<g filter="url(#filter2_f_244_5885)">
<path fill-rule="evenodd" clip-rule="evenodd" d="M1255.23 454.833C1317.64 445.512 1359.83 516.804 1414.39 548.513C1477.78 585.348 1575.92 586.33 1600.4 655.431C1624.78 724.253 1562.66 793.344 1522.81 854.527C1491.82 902.116 1442.38 928.766 1398.73 965.104C1350.9 1004.93 1315.63 1062.29 1255.23 1077.32C1186.13 1094.53 1088.12 1111.39 1048.34 1052.33C1004.08 986.609 1094.04 901.808 1084.07 823.195C1077.17 768.751 991.776 739.2 1001.82 685.247C1011.61 632.631 1087.63 627.407 1127.22 591.402C1174.55 548.374 1191.97 464.281 1255.23 454.833Z" fill="#C2FFFC"/>
</g>
<g filter="url(#filter3_f_244_5885)">
<path fill-rule="evenodd" clip-rule="evenodd" d="M444.06 351.206C493.895 352.889 536.91 376.3 583.783 393.308C653.49 418.602 758.428 405.606 784.889 474.878C810.906 542.986 724.854 602.119 687.453 664.703C659.704 711.137 632.733 754.515 594.756 793.035C548.76 839.69 508.683 900.807 444.06 911.582C376.046 922.921 301.676 897.847 251.823 850.211C204.326 804.827 181.763 733.574 189.49 668.335C196.17 611.931 269.008 588.396 289.124 535.279C307.502 486.75 263.892 423.334 297.308 383.634C330.378 344.345 392.735 349.472 444.06 351.206Z" fill="#C2FFFC"/>
</g>
<g filter="url(#filter4_f_244_5885)">
<path fill-rule="evenodd" clip-rule="evenodd" d="M935.784 532.819C1018.07 524.759 1075.42 390.542 1151.42 423.075C1220.08 452.46 1195.83 565.382 1184.22 639.154C1175.77 692.915 1106.11 718.532 1096.52 772.103C1084 842.041 1156.76 915.479 1123.52 978.276C1089.71 1042.17 1007.89 1070.65 935.784 1075.8C860.975 1081.14 779.775 1060.34 727.499 1006.56C677.834 955.461 668.806 876.446 672.858 805.306C676.055 749.194 735.164 713.514 747.32 658.641C761.815 593.209 693.06 499.724 748.798 462.512C805.568 424.612 867.85 539.473 935.784 532.819Z" fill="#FFCC80"/>
</g>
<g filter="url(#filter5_f_244_5885)">
<path fill-rule="evenodd" clip-rule="evenodd" d="M178.906 980.874C211.317 1020.67 300.448 1004.26 309.702 1054.75C318.061 1100.35 251.309 1126.57 209.155 1145.9C178.435 1159.98 141.272 1132.74 110.263 1146.17C69.7785 1163.7 56.7521 1226.55 12.8521 1230.92C-31.8127 1235.36 -74.632 1202.81 -102.044 1167.28C-130.484 1130.41 -147.589 1081.27 -137.704 1035.76C-128.313 992.528 -90.5275 960.732 -52.327 938.406C-22.1958 920.797 16.5529 939.125 49.1178 926.575C87.9487 911.611 112.722 843.95 151.106 860.009C190.202 876.365 152.146 948.015 178.906 980.874Z" fill="#FFCC80"/>
</g>
<g filter="url(#filter6_f_244_5885)">
<path fill-rule="evenodd" clip-rule="evenodd" d="M154.809 345.491C237.697 357.697 313.825 392.458 378.721 445.496C440.638 496.099 476.426 566.216 512.344 637.694C555.348 723.274 630.673 808.273 607.754 901.281C584.695 994.858 495.241 1075.92 400.338 1092.23C309.317 1107.88 239.644 1015.67 154.809 979.137C111.73 960.587 71.6687 942.686 26.2151 931.132C-61.5188 908.83 -203.896 965.874 -233.794 880.355C-263.355 795.798 -79.2754 771.576 -60.1635 684.059C-36.9372 577.7 -181.046 463.535 -122.705 371.651C-71.6172 291.192 60.5787 331.613 154.809 345.491Z" fill="#9885FF"/>
</g>
<g filter="url(#filter7_f_244_5885)">
<path fill-rule="evenodd" clip-rule="evenodd" d="M1481.35 731.832C1569.21 744.768 1649.91 781.602 1718.71 837.805C1784.34 891.427 1822.28 965.727 1860.36 1041.47C1905.94 1132.16 1985.79 1222.23 1961.5 1320.78C1937.05 1419.94 1842.23 1505.84 1741.62 1523.12C1645.14 1539.7 1571.28 1441.99 1481.35 1403.28C1435.68 1383.63 1393.21 1364.66 1345.03 1352.41C1252.02 1328.78 1101.09 1389.23 1069.4 1298.61C1038.06 1209.01 1233.2 1183.34 1253.46 1090.6C1278.08 977.896 1125.32 856.92 1187.16 759.554C1241.32 674.294 1381.45 717.127 1481.35 731.832Z" fill="#9885FF"/>
</g>
<g filter="url(#filter8_f_244_5885)">
<path fill-rule="evenodd" clip-rule="evenodd" d="M898.243 -224.995C1012.03 -226.038 1045.15 -61.3058 1109.16 32.8068C1150.12 93.0423 1164.13 162.721 1203.59 223.955C1264.53 318.519 1451.19 385.794 1401.77 486.86C1348.72 595.329 1156.06 473.796 1051.72 534.516C966.263 584.25 996.966 774.507 898.243 779.887C802.026 785.13 811.431 606.671 732.115 551.933C649.007 494.579 507.674 551.166 448.373 469.421C390.621 389.814 415.76 267.835 463.724 181.97C508.559 101.705 623.023 99.4885 690.119 36.6469C773.493 -41.4399 784.035 -223.948 898.243 -224.995Z" fill="#9885FF"/>
</g>
<g filter="url(#filter9_f_244_5885)">
<path fill-rule="evenodd" clip-rule="evenodd" d="M750.996 635.217C883.28 653.206 975.51 773.493 1039.34 890.766C1087.13 978.569 1058.34 1079.83 1047.06 1179.16C1037.72 1261.46 1021.56 1336.79 980.548 1408.75C917.099 1520.09 876.048 1670.75 750.996 1698.69C617.562 1728.51 473.365 1648.75 389.38 1540.84C311.871 1441.25 349.611 1305.33 346.635 1179.16C343.53 1047.52 293.353 905.674 371.907 800.005C457.369 685.041 609.069 615.917 750.996 635.217Z" fill="#00FAED"/>
</g>
</g>
<rect width="741" height="888" fill="#161616" fill-opacity="0.35"/>
<g filter="url(#filter10_b_244_5885)">
<path d="M102 70C102 52.3269 116.327 38 134 38H330C347.673 38 362 52.3269 362 70V266C362 283.673 347.673 298 330 298H134C116.327 298 102 283.673 102 266V70Z" fill="white" fill-opacity="0.05"/>
</g>
<path d="M378 70C378 52.3269 392.327 38 410 38H606C623.673 38 638 52.3269 638 70V266C638 283.673 623.673 298 606 298H410C392.327 298 378 283.673 378 266V70Z" fill="#00CCC2"/>
<path d="M429.611 84.0977C429.376 83.2509 428.825 82.5326 428.075 82.0977C427.326 81.6629 426.44 81.5465 425.607 81.7737C424.089 82.213 422.008 82.8632 420.447 83.3245C420.589 82.8628 420.573 82.3649 420.399 81.9143C420.004 80.9082 418.907 80.4601 417.991 80.4601H413.699C413.26 80.4342 412.848 80.2377 412.546 79.911C412.089 79.4818 411.49 79.2435 410.869 79.2432H407.381C406.647 79.2594 405.949 79.5723 405.44 80.1134C404.931 80.6544 404.653 81.3795 404.667 82.1296V87.7792C404.659 88.1586 404.723 88.536 404.858 88.8899C404.992 89.2437 405.194 89.5669 405.451 89.8412C405.707 90.1154 406.015 90.3351 406.355 90.4879C406.695 90.6407 407.061 90.7234 407.433 90.7314H411.621C412.159 90.7288 412.685 90.5637 413.131 90.2569L413.183 90.2833C414.402 90.9703 415.772 91.3314 417.165 91.3333C417.994 91.337 418.818 91.2096 419.608 90.9554L427.392 88.5348H427.444C427.871 88.3954 428.268 88.1707 428.61 87.8738C428.952 87.5769 429.232 87.2136 429.436 86.805C429.64 86.3964 429.762 85.9506 429.796 85.4935C429.829 85.0363 429.774 84.5768 429.633 84.1416L429.611 84.0977ZM407.433 88.9741C407.287 88.9663 407.144 88.9291 407.013 88.8647C406.881 88.8003 406.764 88.7099 406.667 88.5989C406.569 88.4878 406.495 88.3582 406.447 88.2175C406.399 88.0768 406.379 87.9279 406.388 87.7792V82.1296C406.375 81.8457 406.472 81.5681 406.658 81.3568C406.843 81.1455 407.103 81.0175 407.381 81.0005H410.865C411.057 81.0005 411.241 81.076 411.381 81.2114C411.518 81.3336 411.661 81.448 411.811 81.554V88.939C411.751 88.9455 411.69 88.9455 411.63 88.939L407.433 88.9741ZM426.863 86.8566L419.096 89.2641C418.471 89.4649 417.82 89.5657 417.165 89.5628C416.059 89.5608 414.971 89.2721 414.004 88.7237L413.522 88.4645V82.2086H417.999C418.153 82.1938 418.307 82.2181 418.449 82.2794C418.591 82.3408 418.716 82.4372 418.812 82.5601C418.881 82.7402 418.761 83.2762 417.857 84.1548L417.363 84.6337L417.703 85.2311C418.073 85.8989 418.073 85.8989 422.416 84.5809C424.261 84.0318 426.102 83.4695 426.102 83.4695C426.5 83.3743 426.919 83.4412 427.27 83.6561C427.621 83.8709 427.876 84.2168 427.981 84.6205C428.058 84.8411 428.09 85.0755 428.075 85.3092C428.06 85.5429 427.998 85.771 427.893 85.9793C427.789 86.1876 427.643 86.3718 427.466 86.5204C427.289 86.669 427.084 86.779 426.863 86.8434V86.8566Z" fill="white"/>
<path d="M431.297 68.4316C431.27 68.0998 431.13 67.7883 430.9 67.5521C430.67 67.3158 430.366 67.1699 430.042 67.14C428.971 67.0566 426.967 67.14 425.564 68.5502C425.329 68.7899 425.121 69.0568 424.945 69.3454C424.835 68.2708 424.414 67.2539 423.737 66.4239C422.446 64.939 420.296 64.6886 419.152 64.6667C418.804 64.6703 418.469 64.8079 418.216 65.0522C417.962 65.2965 417.808 65.6295 417.785 65.9846C417.694 67.2411 417.737 69.5739 419.019 71.0412C420.081 72.2581 421.715 72.5041 422.889 72.5041C423.177 72.5061 423.464 72.4915 423.75 72.4602V78.9094C423.75 79.1424 423.84 79.3659 424.002 79.5306C424.163 79.6954 424.382 79.788 424.61 79.788C424.838 79.788 425.057 79.6954 425.218 79.5306C425.379 79.3659 425.47 79.1424 425.47 78.9094V74.9555C426.691 74.9335 428.73 74.6875 429.999 73.4003C431.366 71.9681 431.401 69.6705 431.297 68.4316ZM423.268 70.7512C422.369 70.8083 420.997 70.6985 420.283 69.8726C419.483 68.9632 419.423 67.2674 419.462 66.4327C420.283 66.4854 421.668 66.7095 422.434 67.5837C423.199 68.458 423.302 69.9253 423.268 70.7512ZM428.751 72.1702C427.921 73.0137 426.399 73.1894 425.487 73.2158C425.603 72.2669 425.917 70.6678 426.777 69.7935C427.543 69.0159 428.704 68.8753 429.452 68.8753H429.611C429.637 69.6705 429.611 71.296 428.751 72.1702Z" fill="white"/>
<path d="M408.72 239.24C407.232 239.24 405.392 239.096 403.2 238.808V235.952C405.92 236.368 407.776 236.576 408.768 236.576C410.848 236.576 411.888 236.04 411.888 234.968V233.96C411.888 233.448 411.736 233.056 411.432 232.784C411.144 232.512 410.616 232.376 409.848 232.376H408.024C404.6 232.376 402.888 231.016 402.888 228.296V227.144C402.888 225.784 403.456 224.784 404.592 224.144C405.728 223.504 407.528 223.184 409.992 223.184C411.272 223.184 412.896 223.288 414.864 223.496V226.28C412.448 225.992 410.784 225.848 409.872 225.848C408.608 225.848 407.76 225.952 407.328 226.16C406.864 226.384 406.632 226.736 406.632 227.216V228.32C406.632 229.136 407.32 229.544 408.696 229.544H410.568C412.344 229.544 413.632 229.872 414.432 230.528C415.232 231.184 415.632 232.184 415.632 233.528V234.56C415.632 236.416 414.968 237.672 413.64 238.328C413 238.664 412.288 238.896 411.504 239.024C410.736 239.168 409.808 239.24 408.72 239.24ZM423.899 239.24C423.307 239.24 422.811 239.216 422.411 239.168C422.011 239.12 421.611 239.024 421.211 238.88C420.763 238.736 420.395 238.536 420.107 238.28C419.835 238.024 419.611 237.672 419.435 237.224C419.243 236.76 419.147 236.224 419.147 235.616V229.544H416.795V227.384H419.147V224.024H422.651V227.384H425.843V229.544H422.651V235.016C422.651 235.576 422.699 236 422.795 236.288C422.891 236.56 423.075 236.76 423.347 236.888C423.619 237 424.035 237.056 424.595 237.056C424.819 237.056 425.235 237.016 425.843 236.936V239.12C425.091 239.2 424.443 239.24 423.899 239.24ZM431.152 239.24C430.064 239.24 429.248 239.144 428.704 238.952C428.176 238.744 427.8 238.384 427.576 237.872C427.368 237.344 427.264 236.56 427.264 235.52C427.264 234.592 427.376 233.864 427.6 233.336C427.84 232.808 428.216 232.432 428.728 232.208C429.256 231.968 429.976 231.848 430.888 231.848H434.824V231.056C434.824 230.56 434.752 230.192 434.608 229.952C434.48 229.712 434.232 229.544 433.864 229.448C433.512 229.352 432.976 229.304 432.256 229.304C431.264 229.304 429.904 229.4 428.176 229.592V227.384C429.44 227.224 430.92 227.144 432.616 227.144C434.104 227.144 435.248 227.256 436.048 227.48C436.864 227.704 437.448 228.088 437.8 228.632C438.152 229.176 438.328 229.968 438.328 231.008V239H434.896V237.944C434.624 238.408 434.256 238.736 433.792 238.928C433.328 239.136 432.448 239.24 431.152 239.24ZM432.52 237.056C433.224 237.056 433.728 237.032 434.032 236.984C434.256 236.952 434.408 236.904 434.488 236.84C434.584 236.776 434.664 236.672 434.728 236.528C434.792 236.416 434.824 236.248 434.824 236.024V233.768H432.424C431.88 233.768 431.496 233.808 431.272 233.888C431.048 233.952 430.896 234.096 430.816 234.32C430.736 234.528 430.696 234.904 430.696 235.448C430.696 235.976 430.736 236.344 430.816 236.552C430.896 236.76 431.048 236.896 431.272 236.96C431.512 237.024 431.928 237.056 432.52 237.056ZM441.411 222.2H444.915V239H441.411V222.2ZM445.059 232.472L448.875 227.384H452.883L448.851 232.448L453.219 239H449.259L445.059 232.472ZM460.204 239.24C456.092 239.24 454.036 237.984 454.036 235.472V231.296C454.036 229.84 454.5 228.784 455.428 228.128C456.372 227.472 457.82 227.144 459.772 227.144C461.612 227.144 462.956 227.464 463.804 228.104C464.668 228.728 465.1 229.792 465.1 231.296V234.128H457.564V235.184C457.564 235.856 457.804 236.336 458.284 236.624C458.764 236.912 459.628 237.056 460.876 237.056C462.028 237.056 463.324 236.888 464.764 236.552V238.784C463.34 239.088 461.82 239.24 460.204 239.24ZM461.764 232.136V230.456C461.764 230.072 461.604 229.784 461.284 229.592C460.98 229.4 460.46 229.304 459.724 229.304C458.876 229.304 458.308 229.4 458.02 229.592C457.716 229.8 457.564 230.088 457.564 230.456V232.136H461.764ZM478.493 239.24C477.005 239.24 475.165 239.096 472.973 238.808V235.952C475.693 236.368 477.549 236.576 478.541 236.576C480.621 236.576 481.661 236.04 481.661 234.968V233.96C481.661 233.448 481.509 233.056 481.205 232.784C480.917 232.512 480.389 232.376 479.621 232.376H477.797C474.373 232.376 472.661 231.016 472.661 228.296V227.144C472.661 225.784 473.229 224.784 474.365 224.144C475.501 223.504 477.301 223.184 479.765 223.184C481.045 223.184 482.669 223.288 484.637 223.496V226.28C482.221 225.992 480.557 225.848 479.645 225.848C478.381 225.848 477.533 225.952 477.101 226.16C476.637 226.384 476.405 226.736 476.405 227.216V228.32C476.405 229.136 477.093 229.544 478.469 229.544H480.341C482.117 229.544 483.405 229.872 484.205 230.528C485.005 231.184 485.405 232.184 485.405 233.528V234.56C485.405 236.416 484.741 237.672 483.413 238.328C482.773 238.664 482.061 238.896 481.277 239.024C480.509 239.168 479.581 239.24 478.493 239.24ZM487.864 227.384H491.368V228.8C491.592 227.696 492.736 227.144 494.8 227.144C495.888 227.144 496.712 227.288 497.272 227.576C497.832 227.848 498.208 228.28 498.4 228.872C498.592 228.264 498.96 227.824 499.504 227.552C500.064 227.28 500.904 227.144 502.024 227.144C503.032 227.144 503.808 227.264 504.352 227.504C504.896 227.728 505.272 228.08 505.48 228.56C505.704 229.04 505.816 229.68 505.816 230.48V239H502.312V230.96C502.312 230.448 502.28 230.088 502.216 229.88C502.152 229.656 502.008 229.504 501.784 229.424C501.576 229.344 501.208 229.304 500.68 229.304C500.024 229.304 499.552 229.344 499.264 229.424C498.992 229.504 498.808 229.656 498.712 229.88C498.632 230.088 498.592 230.448 498.592 230.96V239H495.088V230.96C495.088 230.448 495.056 230.088 494.992 229.88C494.928 229.656 494.784 229.504 494.56 229.424C494.352 229.344 493.984 229.304 493.456 229.304C492.8 229.304 492.328 229.344 492.04 229.424C491.768 229.504 491.584 229.656 491.488 229.88C491.408 230.088 491.368 230.448 491.368 230.96V239H487.864V227.384ZM512.176 239.24C511.088 239.24 510.272 239.144 509.728 238.952C509.2 238.744 508.824 238.384 508.6 237.872C508.392 237.344 508.288 236.56 508.288 235.52C508.288 234.592 508.4 233.864 508.624 233.336C508.864 232.808 509.24 232.432 509.752 232.208C510.28 231.968 511 231.848 511.912 231.848H515.848V231.056C515.848 230.56 515.776 230.192 515.632 229.952C515.504 229.712 515.256 229.544 514.888 229.448C514.536 229.352 514 229.304 513.28 229.304C512.288 229.304 510.928 229.4 509.2 229.592V227.384C510.464 227.224 511.944 227.144 513.64 227.144C515.128 227.144 516.272 227.256 517.072 227.48C517.888 227.704 518.472 228.088 518.824 228.632C519.176 229.176 519.352 229.968 519.352 231.008V239H515.92V237.944C515.648 238.408 515.28 238.736 514.816 238.928C514.352 239.136 513.472 239.24 512.176 239.24ZM513.544 237.056C514.248 237.056 514.752 237.032 515.056 236.984C515.28 236.952 515.432 236.904 515.512 236.84C515.608 236.776 515.688 236.672 515.752 236.528C515.816 236.416 515.848 236.248 515.848 236.024V233.768H513.448C512.904 233.768 512.52 233.808 512.296 233.888C512.072 233.952 511.92 234.096 511.84 234.32C511.76 234.528 511.72 234.904 511.72 235.448C511.72 235.976 511.76 236.344 511.84 236.552C511.92 236.76 512.072 236.896 512.296 236.96C512.536 237.024 512.952 237.056 513.544 237.056ZM522.434 227.384H525.77V229.424C525.77 229.056 525.922 228.696 526.226 228.344C526.53 227.992 526.914 227.704 527.378 227.48C527.858 227.256 528.33 227.144 528.794 227.144H530.042V230.048H528.842C527.85 230.048 527.114 230.2 526.634 230.504C526.17 230.808 525.938 231.312 525.938 232.016V239H522.434V227.384ZM537.782 239.24C537.19 239.24 536.694 239.216 536.294 239.168C535.894 239.12 535.494 239.024 535.094 238.88C534.646 238.736 534.278 238.536 533.99 238.28C533.718 238.024 533.494 237.672 533.318 237.224C533.126 236.76 533.03 236.224 533.03 235.616V229.544H530.678V227.384H533.03V224.024H536.534V227.384H539.726V229.544H536.534V235.016C536.534 235.576 536.582 236 536.678 236.288C536.774 236.56 536.958 236.76 537.23 236.888C537.502 237 537.918 237.056 538.478 237.056C538.702 237.056 539.118 237.016 539.726 236.936V239.12C538.974 239.2 538.326 239.24 537.782 239.24ZM541.771 235.688H545.419L543.163 241.688H540.667L541.771 235.688ZM402.192 252.424H406.08L409.104 263.8L412.128 252.424H415.608L418.872 263.8L421.656 252.424H425.448L420.456 268H416.76L413.784 256.696L410.712 268H407.016L402.192 252.424ZM427.28 252.184H430.784V255.016H427.28V252.184ZM427.28 256.384H430.784V268H427.28V256.384ZM439.766 268.24C439.174 268.24 438.678 268.216 438.278 268.168C437.878 268.12 437.478 268.024 437.078 267.88C436.63 267.736 436.262 267.536 435.974 267.28C435.702 267.024 435.478 266.672 435.302 266.224C435.11 265.76 435.014 265.224 435.014 264.616V258.544H432.662V256.384H435.014V253.024H438.518V256.384H441.71V258.544H438.518V264.016C438.518 264.576 438.566 265 438.662 265.288C438.758 265.56 438.942 265.76 439.214 265.888C439.486 266 439.902 266.056 440.462 266.056C440.686 266.056 441.102 266.016 441.71 265.936V268.12C440.958 268.2 440.31 268.24 439.766 268.24ZM443.731 251.2H447.235V257.8C447.459 256.696 448.683 256.144 450.907 256.144C452.395 256.144 453.435 256.416 454.027 256.96C454.635 257.488 454.939 258.328 454.939 259.48V268H451.435V259.888C451.435 259.44 451.387 259.112 451.291 258.904C451.211 258.68 451.043 258.528 450.787 258.448C450.531 258.352 450.123 258.304 449.563 258.304C448.875 258.304 448.371 258.344 448.051 258.424C447.731 258.504 447.515 258.656 447.403 258.88C447.291 259.088 447.235 259.424 447.235 259.888V268H443.731V251.2ZM462.469 268.24C461.093 268.24 460.077 268.144 459.421 267.952C458.765 267.744 458.309 267.36 458.053 266.8C457.797 266.24 457.669 265.368 457.669 264.184V259.648C457.669 258.368 458.029 257.464 458.749 256.936C459.485 256.408 460.669 256.144 462.301 256.144C463.069 256.144 463.669 256.192 464.101 256.288C464.549 256.368 464.909 256.52 465.181 256.744C465.453 256.952 465.733 257.264 466.021 257.68V251.2H469.525V268H466.141V266.68C465.853 267.144 465.589 267.472 465.349 267.664C465.125 267.84 464.805 267.976 464.389 268.072C463.957 268.184 463.317 268.24 462.469 268.24ZM463.357 266.056C464.141 266.056 464.717 266.016 465.085 265.936C465.453 265.856 465.701 265.712 465.829 265.504C465.957 265.28 466.021 264.952 466.021 264.52V259.84C466.021 259.44 465.949 259.136 465.805 258.928C465.677 258.704 465.437 258.544 465.085 258.448C464.749 258.352 464.237 258.304 463.549 258.304C462.813 258.304 462.285 258.352 461.965 258.448C461.645 258.528 461.429 258.68 461.317 258.904C461.221 259.112 461.173 259.464 461.173 259.96V264.4C461.173 264.848 461.221 265.192 461.317 265.432C461.429 265.656 461.637 265.816 461.941 265.912C462.245 266.008 462.717 266.056 463.357 266.056ZM472.606 256.384H475.942V258.424C475.942 258.056 476.094 257.696 476.398 257.344C476.702 256.992 477.086 256.704 477.55 256.48C478.03 256.256 478.502 256.144 478.966 256.144H480.214V259.048H479.014C478.022 259.048 477.286 259.2 476.806 259.504C476.342 259.808 476.11 260.312 476.11 261.016V268H472.606V256.384ZM485.433 268.24C484.345 268.24 483.529 268.144 482.985 267.952C482.457 267.744 482.081 267.384 481.857 266.872C481.649 266.344 481.545 265.56 481.545 264.52C481.545 263.592 481.657 262.864 481.881 262.336C482.121 261.808 482.497 261.432 483.009 261.208C483.537 260.968 484.257 260.848 485.169 260.848H489.105V260.056C489.105 259.56 489.033 259.192 488.889 258.952C488.761 258.712 488.513 258.544 488.145 258.448C487.793 258.352 487.257 258.304 486.537 258.304C485.545 258.304 484.185 258.4 482.457 258.592V256.384C483.721 256.224 485.201 256.144 486.897 256.144C488.385 256.144 489.529 256.256 490.329 256.48C491.145 256.704 491.729 257.088 492.081 257.632C492.433 258.176 492.609 258.968 492.609 260.008V268H489.177V266.944C488.905 267.408 488.537 267.736 488.073 267.928C487.609 268.136 486.729 268.24 485.433 268.24ZM486.801 266.056C487.505 266.056 488.009 266.032 488.313 265.984C488.537 265.952 488.689 265.904 488.769 265.84C488.865 265.776 488.945 265.672 489.009 265.528C489.073 265.416 489.105 265.248 489.105 265.024V262.768H486.705C486.161 262.768 485.777 262.808 485.553 262.888C485.329 262.952 485.177 263.096 485.097 263.32C485.017 263.528 484.977 263.904 484.977 264.448C484.977 264.976 485.017 265.344 485.097 265.552C485.177 265.76 485.329 265.896 485.553 265.96C485.793 266.024 486.209 266.056 486.801 266.056ZM494.348 256.384H497.924L500.084 264.808L502.388 256.384H505.82L508.22 264.808L510.284 256.384H513.692L509.9 268H506.348L504.044 260.152L501.788 268H498.236L494.348 256.384ZM521.102 252.424H532.982V255.088H524.846V258.664H532.19V261.328H524.846V265.336H533.222V268H521.102V252.424ZM538.894 268.24C537.806 268.24 536.99 268.144 536.446 267.952C535.918 267.744 535.542 267.384 535.318 266.872C535.11 266.344 535.006 265.56 535.006 264.52C535.006 263.592 535.118 262.864 535.342 262.336C535.582 261.808 535.958 261.432 536.47 261.208C536.998 260.968 537.718 260.848 538.63 260.848H542.566V260.056C542.566 259.56 542.494 259.192 542.35 258.952C542.222 258.712 541.974 258.544 541.606 258.448C541.254 258.352 540.718 258.304 539.998 258.304C539.006 258.304 537.646 258.4 535.918 258.592V256.384C537.182 256.224 538.662 256.144 540.358 256.144C541.846 256.144 542.99 256.256 543.79 256.48C544.606 256.704 545.19 257.088 545.542 257.632C545.894 258.176 546.07 258.968 546.07 260.008V268H542.638V266.944C542.366 267.408 541.998 267.736 541.534 267.928C541.07 268.136 540.19 268.24 538.894 268.24ZM540.262 266.056C540.966 266.056 541.47 266.032 541.774 265.984C541.998 265.952 542.15 265.904 542.23 265.84C542.326 265.776 542.406 265.672 542.47 265.528C542.534 265.416 542.566 265.248 542.566 265.024V262.768H540.166C539.622 262.768 539.238 262.808 539.014 262.888C538.79 262.952 538.638 263.096 538.558 263.32C538.478 263.528 538.438 263.904 538.438 264.448C538.438 264.976 538.478 265.344 538.558 265.552C538.638 265.76 538.79 265.896 539.014 265.96C539.254 266.024 539.67 266.056 540.262 266.056ZM553.497 268.24C552.249 268.24 550.721 268.12 548.913 267.88V265.552C551.137 265.888 552.681 266.056 553.545 266.056C554.281 266.056 554.825 265.984 555.177 265.84C555.529 265.696 555.705 265.432 555.705 265.048V264.328C555.705 263.928 555.593 263.648 555.369 263.488C555.145 263.312 554.705 263.224 554.049 263.224H552.537C551.305 263.224 550.353 262.984 549.681 262.504C549.009 262.008 548.673 261.288 548.673 260.344V258.928C548.673 257.92 549.153 257.208 550.113 256.792C551.073 256.36 552.521 256.144 554.457 256.144C555.225 256.144 556.601 256.216 558.585 256.36V258.592C556.089 258.4 554.681 258.304 554.361 258.304C553.417 258.304 552.801 258.368 552.513 258.496C552.257 258.64 552.129 258.904 552.129 259.288V259.912C552.129 260.12 552.233 260.304 552.441 260.464C552.649 260.608 552.953 260.68 553.353 260.68H554.889C557.737 260.68 559.161 261.608 559.161 263.464V264.928C559.161 265.488 559.057 265.976 558.849 266.392C558.641 266.808 558.369 267.136 558.033 267.376C557.713 267.6 557.297 267.776 556.785 267.904C556.289 268.032 555.769 268.12 555.225 268.168C554.729 268.216 554.153 268.24 553.497 268.24ZM565.051 267.904L560.419 256.384H564.235L566.851 264.592L569.227 256.384H572.851L566.491 272.992H562.939L565.051 267.904ZM574.247 264.688H577.991V268H574.247V264.688Z" fill="white"/>
<g filter="url(#filter11_b_244_5885)">
<path d="M654 898C654 880.327 668.327 866 686 866H882C899.673 866 914 880.327 914 898V1094C914 1111.67 899.673 1126 882 1126H686C668.327 1126 654 1111.67 654 1094V898Z" fill="white" fill-opacity="0.05"/>
</g>
<g filter="url(#filter12_b_244_5885)">
<path d="M378 898C378 880.327 392.327 866 410 866H606C623.673 866 638 880.327 638 898V1094C638 1111.67 623.673 1126 606 1126H410C392.327 1126 378 1111.67 378 1094V898Z" fill="white" fill-opacity="0.05"/>
</g>
<g filter="url(#filter13_b_244_5885)">
<path d="M102 898C102 880.327 116.327 866 134 866H330C347.673 866 362 880.327 362 898V1094C362 1111.67 347.673 1126 330 1126H134C116.327 1126 102 1111.67 102 1094V898Z" fill="white" fill-opacity="0.05"/>
</g>
<g filter="url(#filter14_b_244_5885)">
<path d="M-174 898C-174 880.327 -159.673 866 -142 866H54C71.6731 866 86 880.327 86 898V1094C86 1111.67 71.6731 1126 54 1126H-142C-159.673 1126 -174 1111.67 -174 1094V898Z" fill="white" fill-opacity="0.05"/>
</g>
<g filter="url(#filter15_b_244_5885)">
<path d="M654 622C654 604.327 668.327 590 686 590H882C899.673 590 914 604.327 914 622V818C914 835.673 899.673 850 882 850H686C668.327 850 654 835.673 654 818V622Z" fill="white" fill-opacity="0.05"/>
</g>
<g filter="url(#filter16_b_244_5885)">
<path d="M378 622C378 604.327 392.327 590 410 590H606C623.673 590 638 604.327 638 622V818C638 835.673 623.673 850 606 850H410C392.327 850 378 835.673 378 818V622Z" fill="white" fill-opacity="0.05"/>
</g>
<path d="M102 622C102 604.327 116.327 590 134 590H330C347.673 590 362 604.327 362 622V818C362 835.673 347.673 850 330 850H134C116.327 850 102 835.673 102 818V622Z" fill="#7A5BD6"/>
<path d="M154.361 634.254C153.832 634.254 153.347 634.701 153.347 635.284V639.269C153.347 639.672 153.039 639.985 152.642 639.985H131.399C131.002 639.985 130.694 639.672 130.694 639.269V635.284C130.694 634.746 130.253 634.254 129.68 634.254C129.107 634.254 128.667 634.701 128.667 635.284V639.269C128.667 640.791 129.856 642 131.355 642H152.642C154.14 642 155.33 640.791 155.33 639.269V635.284C155.374 634.701 154.89 634.254 154.361 634.254Z" fill="white"/>
<path d="M141.315 635.328C141.492 635.507 141.756 635.597 142.021 635.597C142.285 635.597 142.505 635.507 142.726 635.328L149.028 629.104C149.425 628.701 149.425 628.075 149.072 627.672C148.676 627.269 148.058 627.269 147.662 627.627L143.034 632.239V619.03C143.034 618.493 142.593 618 142.021 618C141.492 618 141.007 618.448 141.007 619.03V632.239L136.379 627.672C135.983 627.269 135.366 627.313 134.969 627.672C134.572 628.075 134.616 628.701 134.969 629.104L141.315 635.328Z" fill="white"/>
<path d="M127.68 775.424H134.304C136.128 775.424 137.568 775.568 138.624 775.856C139.68 776.128 140.456 776.608 140.952 777.296C141.448 777.984 141.696 778.936 141.696 780.152V786.488C141.696 787.672 141.464 788.592 141 789.248C140.536 789.888 139.776 790.344 138.72 790.616C137.664 790.872 136.2 791 134.328 791H127.68V775.424ZM134.16 788.336C135.184 788.336 135.952 788.296 136.464 788.216C136.992 788.12 137.368 787.944 137.592 787.688C137.832 787.432 137.952 787.032 137.952 786.488V780.08C137.952 779.344 137.656 778.832 137.064 778.544C136.488 778.24 135.56 778.088 134.28 778.088H131.424V788.336H134.16ZM150.407 791.24C146.295 791.24 144.239 789.984 144.239 787.472V783.296C144.239 781.84 144.703 780.784 145.631 780.128C146.575 779.472 148.023 779.144 149.975 779.144C151.815 779.144 153.159 779.464 154.007 780.104C154.871 780.728 155.303 781.792 155.303 783.296V786.128H147.767V787.184C147.767 787.856 148.007 788.336 148.487 788.624C148.967 788.912 149.831 789.056 151.079 789.056C152.231 789.056 153.527 788.888 154.967 788.552V790.784C153.543 791.088 152.023 791.24 150.407 791.24ZM151.967 784.136V782.456C151.967 782.072 151.807 781.784 151.487 781.592C151.183 781.4 150.663 781.304 149.927 781.304C149.079 781.304 148.511 781.4 148.223 781.592C147.919 781.8 147.767 782.088 147.767 782.456V784.136H151.967ZM157.981 779.384H161.293V780.536C161.501 780.024 161.909 779.664 162.517 779.456C163.125 779.248 164.029 779.144 165.229 779.144C166.237 779.144 167.045 779.224 167.653 779.384C168.277 779.544 168.749 779.8 169.069 780.152C169.373 780.504 169.581 780.896 169.693 781.328C169.805 781.744 169.861 782.32 169.861 783.056V786.872C169.861 788.024 169.693 788.912 169.357 789.536C169.021 790.16 168.501 790.6 167.797 790.856C167.109 791.112 166.165 791.24 164.965 791.24C163.813 791.24 162.981 791.144 162.469 790.952C161.957 790.76 161.629 790.384 161.485 789.824V795.992H157.981V779.384ZM163.885 789.056C164.573 789.056 165.093 789.008 165.445 788.912C165.797 788.816 166.037 788.648 166.165 788.408C166.293 788.168 166.357 787.808 166.357 787.328V783.032C166.357 782.504 166.301 782.128 166.189 781.904C166.077 781.664 165.853 781.504 165.517 781.424C165.181 781.344 164.629 781.304 163.861 781.304C163.205 781.304 162.701 781.36 162.349 781.472C162.013 781.584 161.781 781.76 161.653 782C161.541 782.24 161.485 782.584 161.485 783.032V787.328C161.485 787.808 161.541 788.168 161.653 788.408C161.781 788.648 162.013 788.816 162.349 788.912C162.685 789.008 163.197 789.056 163.885 789.056ZM178.174 791.24C177.454 791.24 176.862 791.216 176.398 791.168C175.934 791.12 175.438 791.024 174.91 790.88C174.334 790.72 173.87 790.496 173.518 790.208C173.166 789.904 172.87 789.48 172.63 788.936C172.39 788.408 172.27 787.768 172.27 787.016V783.584C172.27 782.816 172.39 782.144 172.63 781.568C172.87 780.992 173.182 780.544 173.566 780.224C173.902 779.952 174.342 779.728 174.886 779.552C175.446 779.36 175.99 779.24 176.518 779.192C177.126 779.16 177.678 779.144 178.174 779.144C178.91 779.144 179.494 779.168 179.926 779.216C180.374 779.248 180.862 779.344 181.39 779.504C181.966 779.68 182.43 779.92 182.782 780.224C183.15 780.528 183.462 780.96 183.718 781.52C183.958 782.096 184.078 782.784 184.078 783.584V787.016C184.078 787.736 183.958 788.368 183.718 788.912C183.494 789.456 183.198 789.88 182.83 790.184C182.51 790.456 182.07 790.68 181.51 790.856C180.966 791.016 180.43 791.12 179.902 791.168C179.422 791.216 178.846 791.24 178.174 791.24ZM178.174 789.056C178.83 789.056 179.326 789.008 179.662 788.912C179.998 788.8 180.23 788.632 180.358 788.408C180.502 788.184 180.574 787.856 180.574 787.424V783.032C180.574 782.392 180.406 781.944 180.07 781.688C179.734 781.432 179.102 781.304 178.174 781.304C177.246 781.304 176.614 781.432 176.278 781.688C175.942 781.944 175.774 782.392 175.774 783.032V787.424C175.774 787.856 175.838 788.184 175.966 788.408C176.11 788.632 176.35 788.8 176.686 788.912C177.022 789.008 177.518 789.056 178.174 789.056ZM191.153 791.24C189.905 791.24 188.377 791.12 186.569 790.88V788.552C188.793 788.888 190.337 789.056 191.201 789.056C191.937 789.056 192.481 788.984 192.833 788.84C193.185 788.696 193.361 788.432 193.361 788.048V787.328C193.361 786.928 193.249 786.648 193.025 786.488C192.801 786.312 192.361 786.224 191.705 786.224H190.193C188.961 786.224 188.009 785.984 187.337 785.504C186.665 785.008 186.329 784.288 186.329 783.344V781.928C186.329 780.92 186.809 780.208 187.769 779.792C188.729 779.36 190.177 779.144 192.113 779.144C192.881 779.144 194.257 779.216 196.241 779.36V781.592C193.745 781.4 192.337 781.304 192.017 781.304C191.073 781.304 190.457 781.368 190.169 781.496C189.913 781.64 189.785 781.904 189.785 782.288V782.912C189.785 783.12 189.889 783.304 190.097 783.464C190.305 783.608 190.609 783.68 191.009 783.68H192.545C195.393 783.68 196.817 784.608 196.817 786.464V787.928C196.817 788.488 196.713 788.976 196.505 789.392C196.297 789.808 196.025 790.136 195.689 790.376C195.369 790.6 194.953 790.776 194.441 790.904C193.945 791.032 193.425 791.12 192.881 791.168C192.385 791.216 191.809 791.24 191.153 791.24ZM199.515 775.184H203.019V778.016H199.515V775.184ZM199.515 779.384H203.019V791H199.515V779.384ZM212 791.24C211.408 791.24 210.912 791.216 210.512 791.168C210.112 791.12 209.712 791.024 209.312 790.88C208.864 790.736 208.496 790.536 208.208 790.28C207.936 790.024 207.712 789.672 207.536 789.224C207.344 788.76 207.248 788.224 207.248 787.616V781.544H204.896V779.384H207.248V776.024H210.752V779.384H213.944V781.544H210.752V787.016C210.752 787.576 210.8 788 210.896 788.288C210.992 788.56 211.176 788.76 211.448 788.888C211.72 789 212.136 789.056 212.696 789.056C212.92 789.056 213.336 789.016 213.944 788.936V791.12C213.192 791.2 212.544 791.24 212 791.24ZM227.305 791.24C226.713 791.24 226.217 791.216 225.817 791.168C225.417 791.12 225.017 791.024 224.617 790.88C224.169 790.736 223.801 790.536 223.513 790.28C223.241 790.024 223.017 789.672 222.841 789.224C222.649 788.76 222.553 788.224 222.553 787.616V781.544H220.201V779.384H222.553V776.024H226.057V779.384H229.249V781.544H226.057V787.016C226.057 787.576 226.105 788 226.201 788.288C226.297 788.56 226.481 788.76 226.753 788.888C227.025 789 227.441 789.056 228.001 789.056C228.225 789.056 228.641 789.016 229.249 788.936V791.12C228.497 791.2 227.849 791.24 227.305 791.24ZM236.838 791.24C236.118 791.24 235.526 791.216 235.062 791.168C234.598 791.12 234.102 791.024 233.574 790.88C232.998 790.72 232.534 790.496 232.182 790.208C231.83 789.904 231.534 789.48 231.294 788.936C231.054 788.408 230.934 787.768 230.934 787.016V783.584C230.934 782.816 231.054 782.144 231.294 781.568C231.534 780.992 231.846 780.544 232.23 780.224C232.566 779.952 233.006 779.728 233.55 779.552C234.11 779.36 234.654 779.24 235.182 779.192C235.79 779.16 236.342 779.144 236.838 779.144C237.574 779.144 238.158 779.168 238.59 779.216C239.038 779.248 239.526 779.344 240.054 779.504C240.63 779.68 241.094 779.92 241.446 780.224C241.814 780.528 242.126 780.96 242.382 781.52C242.622 782.096 242.742 782.784 242.742 783.584V787.016C242.742 787.736 242.622 788.368 242.382 788.912C242.158 789.456 241.862 789.88 241.494 790.184C241.174 790.456 240.734 790.68 240.174 790.856C239.63 791.016 239.094 791.12 238.566 791.168C238.086 791.216 237.51 791.24 236.838 791.24ZM236.838 789.056C237.494 789.056 237.99 789.008 238.326 788.912C238.662 788.8 238.894 788.632 239.022 788.408C239.166 788.184 239.238 787.856 239.238 787.424V783.032C239.238 782.392 239.07 781.944 238.734 781.688C238.398 781.432 237.766 781.304 236.838 781.304C235.91 781.304 235.278 781.432 234.942 781.688C234.606 781.944 234.438 782.392 234.438 783.032V787.424C234.438 787.856 234.502 788.184 234.63 788.408C234.774 788.632 235.014 788.8 235.35 788.912C235.686 789.008 236.182 789.056 236.838 789.056ZM251.149 775.424H254.941L262.477 786.056V775.424H265.813V791H262.021L254.485 780.2V791H251.149V775.424ZM274.86 791.24C270.748 791.24 268.692 789.984 268.692 787.472V783.296C268.692 781.84 269.156 780.784 270.084 780.128C271.028 779.472 272.476 779.144 274.428 779.144C276.268 779.144 277.612 779.464 278.46 780.104C279.324 780.728 279.756 781.792 279.756 783.296V786.128H272.22V787.184C272.22 787.856 272.46 788.336 272.94 788.624C273.42 788.912 274.284 789.056 275.532 789.056C276.684 789.056 277.98 788.888 279.42 788.552V790.784C277.996 791.088 276.476 791.24 274.86 791.24ZM276.42 784.136V782.456C276.42 782.072 276.26 781.784 275.94 781.592C275.636 781.4 275.116 781.304 274.38 781.304C273.532 781.304 272.964 781.4 272.676 781.592C272.372 781.8 272.22 782.088 272.22 782.456V784.136H276.42ZM282.434 779.384H285.77V781.424C285.77 781.056 285.922 780.696 286.226 780.344C286.53 779.992 286.914 779.704 287.378 779.48C287.858 779.256 288.33 779.144 288.794 779.144H290.042V782.048H288.842C287.85 782.048 287.114 782.2 286.634 782.504C286.17 782.808 285.938 783.312 285.938 784.016V791H282.434V779.384ZM290.438 779.384H294.158L296.702 787.424L299.15 779.384H302.678L298.406 791H294.854L290.438 779.384ZM309.776 791.24C309.056 791.24 308.464 791.216 308 791.168C307.536 791.12 307.04 791.024 306.512 790.88C305.936 790.72 305.472 790.496 305.12 790.208C304.768 789.904 304.472 789.48 304.232 788.936C303.992 788.408 303.872 787.768 303.872 787.016V783.584C303.872 782.816 303.992 782.144 304.232 781.568C304.472 780.992 304.784 780.544 305.168 780.224C305.504 779.952 305.944 779.728 306.488 779.552C307.048 779.36 307.592 779.24 308.12 779.192C308.728 779.16 309.28 779.144 309.776 779.144C310.512 779.144 311.096 779.168 311.528 779.216C311.976 779.248 312.464 779.344 312.992 779.504C313.568 779.68 314.032 779.92 314.384 780.224C314.752 780.528 315.064 780.96 315.32 781.52C315.56 782.096 315.68 782.784 315.68 783.584V787.016C315.68 787.736 315.56 788.368 315.32 788.912C315.096 789.456 314.8 789.88 314.432 790.184C314.112 790.456 313.672 790.68 313.112 790.856C312.568 791.016 312.032 791.12 311.504 791.168C311.024 791.216 310.448 791.24 309.776 791.24ZM309.776 789.056C310.432 789.056 310.928 789.008 311.264 788.912C311.6 788.8 311.832 788.632 311.96 788.408C312.104 788.184 312.176 787.856 312.176 787.424V783.032C312.176 782.392 312.008 781.944 311.672 781.688C311.336 781.432 310.704 781.304 309.776 781.304C308.848 781.304 308.216 781.432 307.88 781.688C307.544 781.944 307.376 782.392 307.376 783.032V787.424C307.376 787.856 307.44 788.184 307.568 788.408C307.712 788.632 307.952 788.8 308.288 788.912C308.624 789.008 309.12 789.056 309.776 789.056ZM322.755 791.24C321.507 791.24 319.979 791.12 318.171 790.88V788.552C320.395 788.888 321.939 789.056 322.803 789.056C323.539 789.056 324.083 788.984 324.435 788.84C324.787 788.696 324.963 788.432 324.963 788.048V787.328C324.963 786.928 324.851 786.648 324.627 786.488C324.403 786.312 323.963 786.224 323.307 786.224H321.795C320.563 786.224 319.611 785.984 318.939 785.504C318.267 785.008 317.931 784.288 317.931 783.344V781.928C317.931 780.92 318.411 780.208 319.371 779.792C320.331 779.36 321.779 779.144 323.715 779.144C324.483 779.144 325.859 779.216 327.843 779.36V781.592C325.347 781.4 323.939 781.304 323.619 781.304C322.675 781.304 322.059 781.368 321.771 781.496C321.515 781.64 321.387 781.904 321.387 782.288V782.912C321.387 783.12 321.491 783.304 321.699 783.464C321.907 783.608 322.211 783.68 322.611 783.68H324.147C326.995 783.68 328.419 784.608 328.419 786.464V787.928C328.419 788.488 328.315 788.976 328.107 789.392C327.899 789.808 327.627 790.136 327.291 790.376C326.971 790.6 326.555 790.776 326.043 790.904C325.547 791.032 325.027 791.12 324.483 791.168C323.987 791.216 323.411 791.24 322.755 791.24ZM127.68 804.424H134.304C136.128 804.424 137.568 804.568 138.624 804.856C139.68 805.128 140.456 805.608 140.952 806.296C141.448 806.984 141.696 807.936 141.696 809.152V815.488C141.696 816.672 141.464 817.592 141 818.248C140.536 818.888 139.776 819.344 138.72 819.616C137.664 819.872 136.2 820 134.328 820H127.68V804.424ZM134.16 817.336C135.184 817.336 135.952 817.296 136.464 817.216C136.992 817.12 137.368 816.944 137.592 816.688C137.832 816.432 137.952 816.032 137.952 815.488V809.08C137.952 808.344 137.656 807.832 137.064 807.544C136.488 807.24 135.56 807.088 134.28 807.088H131.424V817.336H134.16ZM148.847 804.424H153.407L159.023 820H155.231L153.839 815.896H148.151L146.783 820H143.087L148.847 804.424ZM153.023 813.4L151.055 807.544H150.959L148.991 813.4H153.023ZM167.782 820.24C166.918 820.24 166.118 820.184 165.382 820.072C164.662 819.96 163.91 819.768 163.126 819.496C162.278 819.208 161.614 818.744 161.134 818.104C160.654 817.448 160.414 816.656 160.414 815.728V808.912C160.414 808.144 160.582 807.456 160.918 806.848C161.27 806.24 161.718 805.76 162.262 805.408C162.742 805.104 163.334 804.848 164.038 804.64C164.742 804.432 165.398 804.304 166.006 804.256C166.566 804.208 167.158 804.184 167.782 804.184C168.518 804.184 169.158 804.216 169.702 804.28C170.246 804.328 170.854 804.44 171.526 804.616C172.294 804.84 172.926 805.112 173.422 805.432C173.918 805.752 174.334 806.2 174.67 806.776C175.022 807.368 175.198 808.08 175.198 808.912V815.728C175.198 816.592 174.966 817.336 174.502 817.96C174.054 818.584 173.43 819.056 172.63 819.376C171.19 819.952 169.574 820.24 167.782 820.24ZM167.83 817.576C168.358 817.576 168.798 817.56 169.15 817.528C169.518 817.48 169.894 817.4 170.278 817.288C170.662 817.176 170.95 816.992 171.142 816.736C171.35 816.464 171.454 816.128 171.454 815.728V808.888C171.454 808.152 171.158 807.632 170.566 807.328C169.974 807.008 169.054 806.848 167.806 806.848C166.558 806.848 165.638 807 165.046 807.304C164.454 807.608 164.158 808.136 164.158 808.888V815.728C164.158 816.128 164.262 816.464 164.47 816.736C164.678 816.992 164.982 817.176 165.382 817.288C165.766 817.4 166.134 817.48 166.486 817.528C166.854 817.56 167.302 817.576 167.83 817.576ZM187.343 807.088H182.543V804.424H195.863V807.088H191.087V820H187.343V807.088ZM203.44 820.24C202.72 820.24 202.128 820.216 201.664 820.168C201.2 820.12 200.704 820.024 200.176 819.88C199.6 819.72 199.136 819.496 198.784 819.208C198.432 818.904 198.136 818.48 197.896 817.936C197.656 817.408 197.536 816.768 197.536 816.016V812.584C197.536 811.816 197.656 811.144 197.896 810.568C198.136 809.992 198.448 809.544 198.832 809.224C199.168 808.952 199.608 808.728 200.152 808.552C200.712 808.36 201.256 808.24 201.784 808.192C202.392 808.16 202.944 808.144 203.44 808.144C204.176 808.144 204.76 808.168 205.192 808.216C205.64 808.248 206.128 808.344 206.656 808.504C207.232 808.68 207.696 808.92 208.048 809.224C208.416 809.528 208.728 809.96 208.984 810.52C209.224 811.096 209.344 811.784 209.344 812.584V816.016C209.344 816.736 209.224 817.368 208.984 817.912C208.76 818.456 208.464 818.88 208.096 819.184C207.776 819.456 207.336 819.68 206.776 819.856C206.232 820.016 205.696 820.12 205.168 820.168C204.688 820.216 204.112 820.24 203.44 820.24ZM203.44 818.056C204.096 818.056 204.592 818.008 204.928 817.912C205.264 817.8 205.496 817.632 205.624 817.408C205.768 817.184 205.84 816.856 205.84 816.424V812.032C205.84 811.392 205.672 810.944 205.336 810.688C205 810.432 204.368 810.304 203.44 810.304C202.512 810.304 201.88 810.432 201.544 810.688C201.208 810.944 201.04 811.392 201.04 812.032V816.424C201.04 816.856 201.104 817.184 201.232 817.408C201.376 817.632 201.616 817.8 201.952 817.912C202.288 818.008 202.784 818.056 203.44 818.056ZM216.539 820.24C215.163 820.24 214.147 820.144 213.491 819.952C212.835 819.744 212.379 819.36 212.123 818.8C211.867 818.24 211.739 817.368 211.739 816.184V811.648C211.739 810.368 212.099 809.464 212.819 808.936C213.555 808.408 214.739 808.144 216.371 808.144C217.139 808.144 217.739 808.192 218.171 808.288C218.619 808.368 218.979 808.52 219.251 808.744C219.523 808.952 219.803 809.264 220.091 809.68V803.2H223.595V820H220.211V818.68C219.923 819.144 219.659 819.472 219.419 819.664C219.195 819.84 218.875 819.976 218.459 820.072C218.027 820.184 217.387 820.24 216.539 820.24ZM217.427 818.056C218.211 818.056 218.787 818.016 219.155 817.936C219.523 817.856 219.771 817.712 219.899 817.504C220.027 817.28 220.091 816.952 220.091 816.52V811.84C220.091 811.44 220.019 811.136 219.875 810.928C219.747 810.704 219.507 810.544 219.155 810.448C218.819 810.352 218.307 810.304 217.619 810.304C216.883 810.304 216.355 810.352 216.035 810.448C215.715 810.528 215.499 810.68 215.387 810.904C215.291 811.112 215.243 811.464 215.243 811.96V816.4C215.243 816.848 215.291 817.192 215.387 817.432C215.499 817.656 215.707 817.816 216.011 817.912C216.315 818.008 216.787 818.056 217.427 818.056ZM229.965 820.24C228.877 820.24 228.061 820.144 227.517 819.952C226.989 819.744 226.613 819.384 226.389 818.872C226.181 818.344 226.077 817.56 226.077 816.52C226.077 815.592 226.189 814.864 226.413 814.336C226.653 813.808 227.029 813.432 227.541 813.208C228.069 812.968 228.789 812.848 229.701 812.848H233.637V812.056C233.637 811.56 233.565 811.192 233.421 810.952C233.293 810.712 233.045 810.544 232.677 810.448C232.325 810.352 231.789 810.304 231.069 810.304C230.077 810.304 228.717 810.4 226.989 810.592V808.384C228.253 808.224 229.733 808.144 231.429 808.144C232.917 808.144 234.061 808.256 234.861 808.48C235.677 808.704 236.261 809.088 236.613 809.632C236.965 810.176 237.141 810.968 237.141 812.008V820H233.709V818.944C233.437 819.408 233.069 819.736 232.605 819.928C232.141 820.136 231.261 820.24 229.965 820.24ZM231.333 818.056C232.037 818.056 232.541 818.032 232.845 817.984C233.069 817.952 233.221 817.904 233.301 817.84C233.397 817.776 233.477 817.672 233.541 817.528C233.605 817.416 233.637 817.248 233.637 817.024V814.768H231.237C230.693 814.768 230.309 814.808 230.085 814.888C229.861 814.952 229.709 815.096 229.629 815.32C229.549 815.528 229.509 815.904 229.509 816.448C229.509 816.976 229.549 817.344 229.629 817.552C229.709 817.76 229.861 817.896 230.085 817.96C230.325 818.024 230.741 818.056 231.333 818.056ZM243.512 819.904L238.88 808.384H242.696L245.312 816.592L247.688 808.384H251.312L244.952 824.992H241.4L243.512 819.904ZM252.948 804.424H257.148L256.116 815.488H253.98L252.948 804.424ZM253.188 816.688H256.932V820H253.188V816.688Z" fill="white"/>
<g filter="url(#filter17_b_244_5885)">
<path d="M-174 622C-174 604.327 -159.673 590 -142 590H54C71.6731 590 86 604.327 86 622V818C86 835.673 71.6731 850 54 850H-142C-159.673 850 -174 835.673 -174 818V622Z" fill="white" fill-opacity="0.05"/>
</g>
<g filter="url(#filter18_b_244_5885)">
<path d="M654 346C654 328.327 668.327 314 686 314H882C899.673 314 914 328.327 914 346V542C914 559.673 899.673 574 882 574H686C668.327 574 654 559.673 654 542V346Z" fill="white" fill-opacity="0.05"/>
</g>
<path d="M378 346C378 328.327 392.327 314 410 314H606C623.673 314 638 328.327 638 346V542C638 559.673 623.673 574 606 574H410C392.327 574 378 559.673 378 542V346Z" fill="#7A5BD6"/>
<g filter="url(#filter19_d_244_5885)">
<path d="M536 424.2V463.8L507.002 480L503.777 478.2V460.201L507.001 458.4L510.224 460.201V470.999L529.556 460.199V427.8L526.336 426H526.333L507.002 415.199L500.556 418.799L497.334 416.999V413.399L506.999 408H507.002L536 424.2Z" fill="white"/>
<path d="M510.223 429.239V449.4L507.001 451.199L484.445 438.6V463.8L481.223 465.6L478 463.799V431.399L481.222 429.599L503.777 442.199V429.24L507.001 427.44L510.223 429.239Z" fill="white"/>
</g>
<path d="M102 346C102 328.327 116.327 314 134 314H330C347.673 314 362 328.327 362 346V542C362 559.673 347.673 574 330 574H134C116.327 574 102 559.673 102 542V346Z" fill="#00CCC2"/>
<path d="M154.967 348.485L151.219 344.742C150.955 344.565 150.69 344.477 150.426 344.477L144.738 344.962C140.461 341.395 135.083 339.853 130.542 341.086C129.836 341.262 129.263 341.835 129.087 342.54C127.852 347.032 129.395 352.448 133.01 356.676L132.525 362.269V362.357C132.525 362.621 132.614 362.929 132.79 363.15L136.538 366.937C136.802 367.201 137.111 367.333 137.463 367.333C137.596 367.333 137.728 367.333 137.816 367.289C138.257 367.157 138.61 366.761 138.742 366.32L139.271 361.608C139.888 361.917 140.506 362.181 141.123 362.401C141.343 362.489 141.564 362.533 141.784 362.533C142.357 362.533 142.886 362.313 143.283 361.917L149.852 355.355C150.426 354.782 150.646 353.902 150.381 353.153C150.161 352.536 149.896 351.92 149.588 351.303L154.217 350.775H154.305C154.79 350.687 155.143 350.334 155.275 349.85C155.408 349.322 155.319 348.837 154.967 348.485ZM136.89 364.559L134.509 362.137L134.818 358.57C135.612 359.274 136.449 359.935 137.331 360.507L136.89 364.559ZM148.442 353.902L141.916 360.419C141.872 360.463 141.828 360.463 141.784 360.463C139.492 359.671 137.287 358.261 135.479 356.456C131.6 352.536 129.836 347.296 130.982 343.068C131.026 343.024 131.026 342.98 131.071 342.98C131.952 342.76 132.834 342.628 133.76 342.628C137.419 342.628 141.387 344.345 144.429 347.428C146.237 349.233 147.648 351.435 148.442 353.725C148.486 353.813 148.486 353.858 148.442 353.902ZM148.53 349.366C147.957 348.485 147.295 347.604 146.59 346.811L150.161 346.503L152.542 348.881L148.53 349.366Z" fill="white"/>
<path d="M152.277 357.601C152.145 357.513 151.66 357.293 151.131 357.733C150.69 358.085 148.618 360.155 148.221 360.551C145.399 363.37 145.399 363.37 145.576 363.986C145.62 364.163 145.708 364.339 145.84 364.427C147.251 365.836 149.412 366.144 151.043 366.144C152.277 366.144 153.203 365.968 153.291 365.924C153.688 365.836 153.997 365.528 154.085 365.131C154.129 364.911 155.055 360.199 152.542 357.689C152.41 357.689 152.321 357.645 152.277 357.601ZM152.189 364.163C151.043 364.295 149.279 364.295 147.957 363.634C148.927 362.665 150.646 360.904 151.616 359.979C152.277 361.212 152.277 363.018 152.189 364.163Z" fill="white"/>
<path d="M139.403 347.736C137.375 347.736 135.744 349.366 135.744 351.391C135.744 353.417 137.375 355.047 139.403 355.047C141.431 355.047 143.062 353.417 143.062 351.391C143.062 349.366 141.431 347.736 139.403 347.736ZM139.403 353.109C138.477 353.109 137.728 352.36 137.728 351.435C137.728 350.511 138.477 349.762 139.403 349.762C140.329 349.762 141.123 350.467 141.123 351.391C141.123 352.316 140.329 353.109 139.403 353.109Z" fill="white"/>
<path d="M134.376 486.24C129.88 486.24 127.632 484.736 127.632 481.728V470.424H131.376V481.728C131.376 482.432 131.6 482.92 132.048 483.192C132.512 483.448 133.304 483.576 134.424 483.576C135.528 483.576 136.296 483.448 136.728 483.192C137.176 482.92 137.4 482.432 137.4 481.728V470.424H141.144V481.728C141.144 484.736 138.888 486.24 134.376 486.24ZM144.317 474.384H147.773V475.8C148.045 474.696 149.285 474.144 151.493 474.144C152.981 474.144 154.021 474.416 154.613 474.96C155.221 475.488 155.525 476.328 155.525 477.48V486H152.021V477.936C152.021 477.488 151.973 477.152 151.877 476.928C151.797 476.704 151.621 476.544 151.349 476.448C151.093 476.352 150.693 476.304 150.149 476.304C149.461 476.304 148.957 476.352 148.637 476.448C148.317 476.528 148.101 476.68 147.989 476.904C147.877 477.128 147.821 477.472 147.821 477.936V486H144.317V474.384ZM158.687 469.2H162.191V486H158.687V469.2ZM170.932 486.24C170.212 486.24 169.62 486.216 169.156 486.168C168.692 486.12 168.196 486.024 167.668 485.88C167.092 485.72 166.628 485.496 166.276 485.208C165.924 484.904 165.628 484.48 165.388 483.936C165.148 483.408 165.028 482.768 165.028 482.016V478.584C165.028 477.816 165.148 477.144 165.388 476.568C165.628 475.992 165.94 475.544 166.324 475.224C166.66 474.952 167.1 474.728 167.644 474.552C168.204 474.36 168.748 474.24 169.276 474.192C169.884 474.16 170.436 474.144 170.932 474.144C171.668 474.144 172.252 474.168 172.684 474.216C173.132 474.248 173.62 474.344 174.148 474.504C174.724 474.68 175.188 474.92 175.54 475.224C175.908 475.528 176.22 475.96 176.476 476.52C176.716 477.096 176.836 477.784 176.836 478.584V482.016C176.836 482.736 176.716 483.368 176.476 483.912C176.252 484.456 175.956 484.88 175.588 485.184C175.268 485.456 174.828 485.68 174.268 485.856C173.724 486.016 173.188 486.12 172.66 486.168C172.18 486.216 171.604 486.24 170.932 486.24ZM170.932 484.056C171.588 484.056 172.084 484.008 172.42 483.912C172.756 483.8 172.988 483.632 173.116 483.408C173.26 483.184 173.332 482.856 173.332 482.424V478.032C173.332 477.392 173.164 476.944 172.828 476.688C172.492 476.432 171.86 476.304 170.932 476.304C170.004 476.304 169.372 476.432 169.036 476.688C168.7 476.944 168.532 477.392 168.532 478.032V482.424C168.532 482.856 168.596 483.184 168.724 483.408C168.868 483.632 169.108 483.8 169.444 483.912C169.78 484.008 170.276 484.056 170.932 484.056ZM185.231 486.24C184.623 486.24 184.143 486.224 183.791 486.192C183.439 486.176 183.007 486.136 182.495 486.072C181.983 486.008 181.559 485.896 181.223 485.736C180.903 485.576 180.567 485.336 180.215 485.016C179.559 484.472 179.231 483.544 179.231 482.232V478.368C179.231 477.312 179.471 476.432 179.951 475.728C180.127 475.472 180.383 475.24 180.719 475.032C181.071 474.808 181.423 474.632 181.775 474.504C182.063 474.408 182.447 474.328 182.927 474.264C183.407 474.2 183.831 474.16 184.199 474.144H185.471C186.367 474.144 187.543 474.288 188.999 474.576V476.88C187.351 476.496 186.087 476.304 185.207 476.304C183.591 476.304 182.783 476.848 182.783 477.936V482.208C182.783 483.44 183.671 484.056 185.447 484.056C186.311 484.056 187.551 483.88 189.167 483.528V485.832C187.711 486.104 186.399 486.24 185.231 486.24ZM191.145 469.2H194.649V486H191.145V469.2ZM194.793 479.472L198.609 474.384H202.617L198.585 479.448L202.953 486H198.993L194.793 479.472ZM131.28 502.088H126.48V499.424H139.8V502.088H135.024V515H131.28V502.088ZM147.377 515.24C146.657 515.24 146.065 515.216 145.601 515.168C145.137 515.12 144.641 515.024 144.113 514.88C143.537 514.72 143.073 514.496 142.721 514.208C142.369 513.904 142.073 513.48 141.833 512.936C141.593 512.408 141.473 511.768 141.473 511.016V507.584C141.473 506.816 141.593 506.144 141.833 505.568C142.073 504.992 142.385 504.544 142.769 504.224C143.105 503.952 143.545 503.728 144.089 503.552C144.649 503.36 145.193 503.24 145.721 503.192C146.329 503.16 146.881 503.144 147.377 503.144C148.113 503.144 148.697 503.168 149.129 503.216C149.577 503.248 150.065 503.344 150.593 503.504C151.169 503.68 151.633 503.92 151.985 504.224C152.353 504.528 152.665 504.96 152.921 505.52C153.161 506.096 153.281 506.784 153.281 507.584V511.016C153.281 511.736 153.161 512.368 152.921 512.912C152.697 513.456 152.401 513.88 152.033 514.184C151.713 514.456 151.273 514.68 150.713 514.856C150.169 515.016 149.633 515.12 149.105 515.168C148.625 515.216 148.049 515.24 147.377 515.24ZM147.377 513.056C148.033 513.056 148.529 513.008 148.865 512.912C149.201 512.8 149.433 512.632 149.561 512.408C149.705 512.184 149.777 511.856 149.777 511.424V507.032C149.777 506.392 149.609 505.944 149.273 505.688C148.937 505.432 148.305 505.304 147.377 505.304C146.449 505.304 145.817 505.432 145.481 505.688C145.145 505.944 144.977 506.392 144.977 507.032V511.424C144.977 511.856 145.041 512.184 145.169 512.408C145.313 512.632 145.553 512.8 145.889 512.912C146.225 513.008 146.721 513.056 147.377 513.056ZM156.013 503.384H159.517V504.8C159.741 503.696 160.885 503.144 162.949 503.144C164.037 503.144 164.861 503.288 165.421 503.576C165.981 503.848 166.357 504.28 166.549 504.872C166.741 504.264 167.109 503.824 167.653 503.552C168.213 503.28 169.053 503.144 170.173 503.144C171.181 503.144 171.957 503.264 172.501 503.504C173.045 503.728 173.421 504.08 173.629 504.56C173.853 505.04 173.965 505.68 173.965 506.48V515H170.461V506.96C170.461 506.448 170.429 506.088 170.365 505.88C170.301 505.656 170.157 505.504 169.933 505.424C169.725 505.344 169.357 505.304 168.829 505.304C168.173 505.304 167.701 505.344 167.413 505.424C167.141 505.504 166.957 505.656 166.861 505.88C166.781 506.088 166.741 506.448 166.741 506.96V515H163.237V506.96C163.237 506.448 163.205 506.088 163.141 505.88C163.077 505.656 162.933 505.504 162.709 505.424C162.501 505.344 162.133 505.304 161.605 505.304C160.949 505.304 160.477 505.344 160.189 505.424C159.917 505.504 159.733 505.656 159.637 505.88C159.557 506.088 159.517 506.448 159.517 506.96V515H156.013V503.384ZM182.604 515.24C181.884 515.24 181.292 515.216 180.828 515.168C180.364 515.12 179.868 515.024 179.34 514.88C178.764 514.72 178.3 514.496 177.948 514.208C177.596 513.904 177.3 513.48 177.06 512.936C176.82 512.408 176.7 511.768 176.7 511.016V507.584C176.7 506.816 176.82 506.144 177.06 505.568C177.3 504.992 177.612 504.544 177.996 504.224C178.332 503.952 178.772 503.728 179.316 503.552C179.876 503.36 180.42 503.24 180.948 503.192C181.556 503.16 182.108 503.144 182.604 503.144C183.34 503.144 183.924 503.168 184.356 503.216C184.804 503.248 185.292 503.344 185.82 503.504C186.396 503.68 186.86 503.92 187.212 504.224C187.58 504.528 187.892 504.96 188.148 505.52C188.388 506.096 188.508 506.784 188.508 507.584V511.016C188.508 511.736 188.388 512.368 188.148 512.912C187.924 513.456 187.628 513.88 187.26 514.184C186.94 514.456 186.5 514.68 185.94 514.856C185.396 515.016 184.86 515.12 184.332 515.168C183.852 515.216 183.276 515.24 182.604 515.24ZM182.604 513.056C183.26 513.056 183.756 513.008 184.092 512.912C184.428 512.8 184.66 512.632 184.788 512.408C184.932 512.184 185.004 511.856 185.004 511.424V507.032C185.004 506.392 184.836 505.944 184.5 505.688C184.164 505.432 183.532 505.304 182.604 505.304C181.676 505.304 181.044 505.432 180.708 505.688C180.372 505.944 180.204 506.392 180.204 507.032V511.424C180.204 511.856 180.268 512.184 180.396 512.408C180.54 512.632 180.78 512.8 181.116 512.912C181.452 513.008 181.948 513.056 182.604 513.056ZM191.239 503.384H194.575V505.424C194.575 505.056 194.727 504.696 195.031 504.344C195.335 503.992 195.719 503.704 196.183 503.48C196.663 503.256 197.135 503.144 197.599 503.144H198.847V506.048H197.647C196.655 506.048 195.919 506.2 195.439 506.504C194.975 506.808 194.743 507.312 194.743 508.016V515H191.239V503.384ZM200.778 503.384H204.114V505.424C204.114 505.056 204.266 504.696 204.57 504.344C204.874 503.992 205.258 503.704 205.722 503.48C206.202 503.256 206.674 503.144 207.138 503.144H208.386V506.048H207.186C206.194 506.048 205.458 506.2 204.978 506.504C204.514 506.808 204.282 507.312 204.282 508.016V515H200.778V503.384ZM215.885 515.24C215.165 515.24 214.573 515.216 214.109 515.168C213.645 515.12 213.149 515.024 212.621 514.88C212.045 514.72 211.581 514.496 211.229 514.208C210.877 513.904 210.581 513.48 210.341 512.936C210.101 512.408 209.981 511.768 209.981 511.016V507.584C209.981 506.816 210.101 506.144 210.341 505.568C210.581 504.992 210.893 504.544 211.277 504.224C211.613 503.952 212.053 503.728 212.597 503.552C213.157 503.36 213.701 503.24 214.229 503.192C214.837 503.16 215.389 503.144 215.885 503.144C216.621 503.144 217.205 503.168 217.637 503.216C218.085 503.248 218.573 503.344 219.101 503.504C219.677 503.68 220.141 503.92 220.493 504.224C220.861 504.528 221.173 504.96 221.429 505.52C221.669 506.096 221.789 506.784 221.789 507.584V511.016C221.789 511.736 221.669 512.368 221.429 512.912C221.205 513.456 220.909 513.88 220.541 514.184C220.221 514.456 219.781 514.68 219.221 514.856C218.677 515.016 218.141 515.12 217.613 515.168C217.133 515.216 216.557 515.24 215.885 515.24ZM215.885 513.056C216.541 513.056 217.037 513.008 217.373 512.912C217.709 512.8 217.941 512.632 218.069 512.408C218.213 512.184 218.285 511.856 218.285 511.424V507.032C218.285 506.392 218.117 505.944 217.781 505.688C217.445 505.432 216.813 505.304 215.885 505.304C214.957 505.304 214.325 505.432 213.989 505.688C213.653 505.944 213.485 506.392 213.485 507.032V511.424C213.485 511.856 213.549 512.184 213.677 512.408C213.821 512.632 214.061 512.8 214.397 512.912C214.733 513.008 215.229 513.056 215.885 513.056ZM223.176 503.384H226.752L228.912 511.808L231.216 503.384H234.648L237.048 511.808L239.112 503.384H242.52L238.728 515H235.176L232.872 507.152L230.616 515H227.064L223.176 503.384ZM244.903 499.424H248.551L246.295 504.704H243.799L244.903 499.424ZM254.739 515.24C253.491 515.24 251.963 515.12 250.155 514.88V512.552C252.379 512.888 253.923 513.056 254.787 513.056C255.523 513.056 256.067 512.984 256.419 512.84C256.771 512.696 256.947 512.432 256.947 512.048V511.328C256.947 510.928 256.835 510.648 256.611 510.488C256.387 510.312 255.947 510.224 255.291 510.224H253.779C252.547 510.224 251.595 509.984 250.923 509.504C250.251 509.008 249.915 508.288 249.915 507.344V505.928C249.915 504.92 250.395 504.208 251.355 503.792C252.315 503.36 253.763 503.144 255.699 503.144C256.467 503.144 257.843 503.216 259.827 503.36V505.592C257.331 505.4 255.923 505.304 255.603 505.304C254.659 505.304 254.043 505.368 253.755 505.496C253.499 505.64 253.371 505.904 253.371 506.288V506.912C253.371 507.12 253.475 507.304 253.683 507.464C253.891 507.608 254.195 507.68 254.595 507.68H256.131C258.979 507.68 260.403 508.608 260.403 510.464V511.928C260.403 512.488 260.299 512.976 260.091 513.392C259.883 513.808 259.611 514.136 259.275 514.376C258.955 514.6 258.539 514.776 258.027 514.904C257.531 515.032 257.011 515.12 256.467 515.168C255.971 515.216 255.395 515.24 254.739 515.24ZM127.68 528.424H133.92C135.44 528.424 136.64 528.528 137.52 528.736C138.416 528.944 139.064 529.312 139.464 529.84C139.88 530.352 140.088 531.072 140.088 532V534.952C140.088 535.976 139.864 536.776 139.416 537.352C138.984 537.928 138.288 538.336 137.328 538.576C136.384 538.816 135.104 538.936 133.488 538.936H131.424V544H127.68V528.424ZM133.8 536.368C134.776 536.368 135.464 536.256 135.864 536.032C136.264 535.792 136.464 535.392 136.464 534.832V532.336C136.464 531.824 136.272 531.488 135.888 531.328C135.52 531.168 134.808 531.088 133.752 531.088H131.424V536.368H133.8ZM148.151 544.24C147.431 544.24 146.839 544.216 146.375 544.168C145.911 544.12 145.415 544.024 144.887 543.88C144.311 543.72 143.847 543.496 143.495 543.208C143.143 542.904 142.847 542.48 142.607 541.936C142.367 541.408 142.247 540.768 142.247 540.016V536.584C142.247 535.816 142.367 535.144 142.607 534.568C142.847 533.992 143.159 533.544 143.543 533.224C143.879 532.952 144.319 532.728 144.863 532.552C145.423 532.36 145.967 532.24 146.495 532.192C147.103 532.16 147.655 532.144 148.151 532.144C148.887 532.144 149.471 532.168 149.903 532.216C150.351 532.248 150.839 532.344 151.367 532.504C151.943 532.68 152.407 532.92 152.759 533.224C153.127 533.528 153.439 533.96 153.695 534.52C153.935 535.096 154.055 535.784 154.055 536.584V540.016C154.055 540.736 153.935 541.368 153.695 541.912C153.471 542.456 153.175 542.88 152.807 543.184C152.487 543.456 152.047 543.68 151.487 543.856C150.943 544.016 150.407 544.12 149.879 544.168C149.399 544.216 148.823 544.24 148.151 544.24ZM148.151 542.056C148.807 542.056 149.303 542.008 149.639 541.912C149.975 541.8 150.207 541.632 150.335 541.408C150.479 541.184 150.551 540.856 150.551 540.424V536.032C150.551 535.392 150.383 534.944 150.047 534.688C149.711 534.432 149.079 534.304 148.151 534.304C147.223 534.304 146.591 534.432 146.255 534.688C145.919 534.944 145.751 535.392 145.751 536.032V540.424C145.751 540.856 145.815 541.184 145.943 541.408C146.087 541.632 146.327 541.8 146.663 541.912C146.999 542.008 147.495 542.056 148.151 542.056ZM162.594 544.24C162.002 544.24 161.506 544.216 161.106 544.168C160.706 544.12 160.306 544.024 159.906 543.88C159.458 543.736 159.09 543.536 158.802 543.28C158.53 543.024 158.306 542.672 158.13 542.224C157.938 541.76 157.842 541.224 157.842 540.616V534.544H155.49V532.384H157.842V529.024H161.346V532.384H164.538V534.544H161.346V540.016C161.346 540.576 161.394 541 161.49 541.288C161.586 541.56 161.77 541.76 162.042 541.888C162.314 542 162.73 542.056 163.29 542.056C163.514 542.056 163.93 542.016 164.538 541.936V544.12C163.786 544.2 163.138 544.24 162.594 544.24ZM172.391 544.24C168.279 544.24 166.223 542.984 166.223 540.472V536.296C166.223 534.84 166.687 533.784 167.615 533.128C168.559 532.472 170.007 532.144 171.959 532.144C173.799 532.144 175.143 532.464 175.991 533.104C176.855 533.728 177.287 534.792 177.287 536.296V539.128H169.751V540.184C169.751 540.856 169.991 541.336 170.471 541.624C170.951 541.912 171.815 542.056 173.063 542.056C174.215 542.056 175.511 541.888 176.951 541.552V543.784C175.527 544.088 174.007 544.24 172.391 544.24ZM173.951 537.136V535.456C173.951 535.072 173.791 534.784 173.471 534.592C173.167 534.4 172.647 534.304 171.911 534.304C171.063 534.304 170.495 534.4 170.207 534.592C169.903 534.8 169.751 535.088 169.751 535.456V537.136H173.951ZM179.966 532.384H183.422V533.8C183.694 532.696 184.934 532.144 187.142 532.144C188.63 532.144 189.67 532.416 190.262 532.96C190.87 533.488 191.174 534.328 191.174 535.48V544H187.67V535.936C187.67 535.488 187.622 535.152 187.526 534.928C187.446 534.704 187.27 534.544 186.998 534.448C186.742 534.352 186.342 534.304 185.798 534.304C185.11 534.304 184.606 534.352 184.286 534.448C183.966 534.528 183.75 534.68 183.638 534.904C183.526 535.128 183.47 535.472 183.47 535.936V544H179.966V532.384ZM200.047 544.24C199.455 544.24 198.959 544.216 198.559 544.168C198.159 544.12 197.759 544.024 197.359 543.88C196.911 543.736 196.543 543.536 196.255 543.28C195.983 543.024 195.759 542.672 195.583 542.224C195.391 541.76 195.295 541.224 195.295 540.616V534.544H192.943V532.384H195.295V529.024H198.799V532.384H201.991V534.544H198.799V540.016C198.799 540.576 198.847 541 198.943 541.288C199.039 541.56 199.223 541.76 199.495 541.888C199.767 542 200.183 542.056 200.743 542.056C200.967 542.056 201.383 542.016 201.991 541.936V544.12C201.239 544.2 200.591 544.24 200.047 544.24ZM204.109 528.184H207.613V531.016H204.109V528.184ZM204.109 532.384H207.613V544H204.109V532.384ZM214.074 544.24C212.986 544.24 212.17 544.144 211.626 543.952C211.098 543.744 210.722 543.384 210.498 542.872C210.29 542.344 210.186 541.56 210.186 540.52C210.186 539.592 210.298 538.864 210.522 538.336C210.762 537.808 211.138 537.432 211.65 537.208C212.178 536.968 212.898 536.848 213.81 536.848H217.746V536.056C217.746 535.56 217.674 535.192 217.53 534.952C217.402 534.712 217.154 534.544 216.786 534.448C216.434 534.352 215.898 534.304 215.178 534.304C214.186 534.304 212.826 534.4 211.098 534.592V532.384C212.362 532.224 213.842 532.144 215.538 532.144C217.026 532.144 218.17 532.256 218.97 532.48C219.786 532.704 220.37 533.088 220.722 533.632C221.074 534.176 221.25 534.968 221.25 536.008V544H217.818V542.944C217.546 543.408 217.178 543.736 216.714 543.928C216.25 544.136 215.37 544.24 214.074 544.24ZM215.442 542.056C216.146 542.056 216.65 542.032 216.954 541.984C217.178 541.952 217.33 541.904 217.41 541.84C217.506 541.776 217.586 541.672 217.65 541.528C217.714 541.416 217.746 541.248 217.746 541.024V538.768H215.346C214.802 538.768 214.418 538.808 214.194 538.888C213.97 538.952 213.818 539.096 213.738 539.32C213.658 539.528 213.618 539.904 213.618 540.448C213.618 540.976 213.658 541.344 213.738 541.552C213.818 541.76 213.97 541.896 214.194 541.96C214.434 542.024 214.85 542.056 215.442 542.056ZM224.429 527.2H227.933V544H224.429V527.2Z" fill="white"/>
<g filter="url(#filter20_b_244_5885)">
<path d="M-174 346C-174 328.327 -159.673 314 -142 314H54C71.6731 314 86 328.327 86 346V542C86 559.673 71.6731 574 54 574H-142C-159.673 574 -174 559.673 -174 542V346Z" fill="white" fill-opacity="0.05"/>
</g>
<g filter="url(#filter21_b_244_5885)">
<path d="M654 70C654 52.3269 668.327 38 686 38H882C899.673 38 914 52.3269 914 70V266C914 283.673 899.673 298 882 298H686C668.327 298 654 283.673 654 266V70Z" fill="white" fill-opacity="0.05"/>
</g>
<g filter="url(#filter22_b_244_5885)">
<path d="M654 -206C654 -223.673 668.327 -238 686 -238H882C899.673 -238 914 -223.673 914 -206V-10C914 7.67311 899.673 22 882 22H686C668.327 22 654 7.67311 654 -10V-206Z" fill="white" fill-opacity="0.05"/>
</g>
<g filter="url(#filter23_b_244_5885)">
<path d="M-174 70C-174 52.3269 -159.673 38 -142 38H54C71.6731 38 86 52.3269 86 70V266C86 283.673 71.6731 298 54 298H-142C-159.673 298 -174 283.673 -174 266V70Z" fill="white" fill-opacity="0.05"/>
</g>
<g filter="url(#filter24_b_244_5885)">
<path d="M378 -206C378 -223.673 392.327 -238 410 -238H606C623.673 -238 638 -223.673 638 -206V-10C638 7.67311 623.673 22 606 22H410C392.327 22 378 7.67311 378 -10V-206Z" fill="white" fill-opacity="0.05"/>
</g>
<g filter="url(#filter25_b_244_5885)">
<path d="M102 -206C102 -223.673 116.327 -238 134 -238H330C347.673 -238 362 -223.673 362 -206V-10C362 7.67311 347.673 22 330 22H134C116.327 22 102 7.67311 102 -10V-206Z" fill="white" fill-opacity="0.05"/>
</g>
<g filter="url(#filter26_b_244_5885)">
<path d="M-174 -206C-174 -223.673 -159.673 -238 -142 -238H54C71.6731 -238 86 -223.673 86 -206V-10C86 7.67311 71.6731 22 54 22H-142C-159.673 22 -174 7.67311 -174 -10V-206Z" fill="white" fill-opacity="0.05"/>
</g>
</g>
<defs>
<filter id="filter0_f_244_5885" x="614" y="-500" width="1567" height="1824" filterUnits="userSpaceOnUse" color-interpolation-filters="sRGB">
<feFlood flood-opacity="0" result="BackgroundImageFix"/>
<feBlend mode="normal" in="SourceGraphic" in2="BackgroundImageFix" result="shape"/>
<feGaussianBlur stdDeviation="250" result="effect1_foregroundBlur_244_5885"/>
</filter>
<filter id="filter1_f_244_5885" x="-613" y="-681" width="1671" height="1813" filterUnits="userSpaceOnUse" color-interpolation-filters="sRGB">
<feFlood flood-opacity="0" result="BackgroundImageFix"/>
<feBlend mode="normal" in="SourceGraphic" in2="BackgroundImageFix" result="shape"/>
<feGaussianBlur stdDeviation="250" result="effect1_foregroundBlur_244_5885"/>
</filter>
<filter id="filter2_f_244_5885" x="501" y="-46" width="1604.91" height="1639.51" filterUnits="userSpaceOnUse" color-interpolation-filters="sRGB">
<feFlood flood-opacity="0" result="BackgroundImageFix"/>
<feBlend mode="normal" in="SourceGraphic" in2="BackgroundImageFix" result="shape"/>
<feGaussianBlur stdDeviation="250" result="effect1_foregroundBlur_244_5885"/>
</filter>
<filter id="filter3_f_244_5885" x="-312" y="-150" width="1601.71" height="1564.28" filterUnits="userSpaceOnUse" color-interpolation-filters="sRGB">
<feFlood flood-opacity="0" result="BackgroundImageFix"/>
<feBlend mode="normal" in="SourceGraphic" in2="BackgroundImageFix" result="shape"/>
<feGaussianBlur stdDeviation="250" result="effect1_foregroundBlur_244_5885"/>
</filter>
<filter id="filter4_f_244_5885" x="172" y="-82" width="1526.01" height="1658.61" filterUnits="userSpaceOnUse" color-interpolation-filters="sRGB">
<feFlood flood-opacity="0" result="BackgroundImageFix"/>
<feBlend mode="normal" in="SourceGraphic" in2="BackgroundImageFix" result="shape"/>
<feGaussianBlur stdDeviation="250" result="effect1_foregroundBlur_244_5885"/>
</filter>
<filter id="filter5_f_244_5885" x="-640.524" y="357.562" width="1450.94" height="1373.76" filterUnits="userSpaceOnUse" color-interpolation-filters="sRGB">
<feFlood flood-opacity="0" result="BackgroundImageFix"/>
<feBlend mode="normal" in="SourceGraphic" in2="BackgroundImageFix" result="shape"/>
<feGaussianBlur stdDeviation="250" result="effect1_foregroundBlur_244_5885"/>
</filter>
<filter id="filter6_f_244_5885" x="-737" y="-177" width="1849" height="1771" filterUnits="userSpaceOnUse" color-interpolation-filters="sRGB">
<feFlood flood-opacity="0" result="BackgroundImageFix"/>
<feBlend mode="normal" in="SourceGraphic" in2="BackgroundImageFix" result="shape"/>
<feGaussianBlur stdDeviation="250" result="effect1_foregroundBlur_244_5885"/>
</filter>
<filter id="filter7_f_244_5885" x="566" y="208" width="1900" height="1817" filterUnits="userSpaceOnUse" color-interpolation-filters="sRGB">
<feFlood flood-opacity="0" result="BackgroundImageFix"/>
<feBlend mode="normal" in="SourceGraphic" in2="BackgroundImageFix" result="shape"/>
<feGaussianBlur stdDeviation="250" result="effect1_foregroundBlur_244_5885"/>
</filter>
<filter id="filter8_f_244_5885" x="-85" y="-725" width="1995" height="2005" filterUnits="userSpaceOnUse" color-interpolation-filters="sRGB">
<feFlood flood-opacity="0" result="BackgroundImageFix"/>
<feBlend mode="normal" in="SourceGraphic" in2="BackgroundImageFix" result="shape"/>
<feGaussianBlur stdDeviation="250" result="effect1_foregroundBlur_244_5885"/>
</filter>
<filter id="filter9_f_244_5885" x="-172" y="132" width="1738" height="2073" filterUnits="userSpaceOnUse" color-interpolation-filters="sRGB">
<feFlood flood-opacity="0" result="BackgroundImageFix"/>
<feBlend mode="normal" in="SourceGraphic" in2="BackgroundImageFix" result="shape"/>
<feGaussianBlur stdDeviation="250" result="effect1_foregroundBlur_244_5885"/>
</filter>
<filter id="filter10_b_244_5885" x="52" y="-12" width="360" height="360" filterUnits="userSpaceOnUse" color-interpolation-filters="sRGB">
<feFlood flood-opacity="0" result="BackgroundImageFix"/>
<feGaussianBlur in="BackgroundImageFix" stdDeviation="25"/>
<feComposite in2="SourceAlpha" operator="in" result="effect1_backgroundBlur_244_5885"/>
<feBlend mode="normal" in="SourceGraphic" in2="effect1_backgroundBlur_244_5885" result="shape"/>
</filter>
<filter id="filter11_b_244_5885" x="604" y="816" width="360" height="360" filterUnits="userSpaceOnUse" color-interpolation-filters="sRGB">
<feFlood flood-opacity="0" result="BackgroundImageFix"/>
<feGaussianBlur in="BackgroundImageFix" stdDeviation="25"/>
<feComposite in2="SourceAlpha" operator="in" result="effect1_backgroundBlur_244_5885"/>
<feBlend mode="normal" in="SourceGraphic" in2="effect1_backgroundBlur_244_5885" result="shape"/>
</filter>
<filter id="filter12_b_244_5885" x="328" y="816" width="360" height="360" filterUnits="userSpaceOnUse" color-interpolation-filters="sRGB">
<feFlood flood-opacity="0" result="BackgroundImageFix"/>
<feGaussianBlur in="BackgroundImageFix" stdDeviation="25"/>
<feComposite in2="SourceAlpha" operator="in" result="effect1_backgroundBlur_244_5885"/>
<feBlend mode="normal" in="SourceGraphic" in2="effect1_backgroundBlur_244_5885" result="shape"/>
</filter>
<filter id="filter13_b_244_5885" x="52" y="816" width="360" height="360" filterUnits="userSpaceOnUse" color-interpolation-filters="sRGB">
<feFlood flood-opacity="0" result="BackgroundImageFix"/>
<feGaussianBlur in="BackgroundImageFix" stdDeviation="25"/>
<feComposite in2="SourceAlpha" operator="in" result="effect1_backgroundBlur_244_5885"/>
<feBlend mode="normal" in="SourceGraphic" in2="effect1_backgroundBlur_244_5885" result="shape"/>
</filter>
<filter id="filter14_b_244_5885" x="-224" y="816" width="360" height="360" filterUnits="userSpaceOnUse" color-interpolation-filters="sRGB">
<feFlood flood-opacity="0" result="BackgroundImageFix"/>
<feGaussianBlur in="BackgroundImageFix" stdDeviation="25"/>
<feComposite in2="SourceAlpha" operator="in" result="effect1_backgroundBlur_244_5885"/>
<feBlend mode="normal" in="SourceGraphic" in2="effect1_backgroundBlur_244_5885" result="shape"/>
</filter>
<filter id="filter15_b_244_5885" x="604" y="540" width="360" height="360" filterUnits="userSpaceOnUse" color-interpolation-filters="sRGB">
<feFlood flood-opacity="0" result="BackgroundImageFix"/>
<feGaussianBlur in="BackgroundImageFix" stdDeviation="25"/>
<feComposite in2="SourceAlpha" operator="in" result="effect1_backgroundBlur_244_5885"/>
<feBlend mode="normal" in="SourceGraphic" in2="effect1_backgroundBlur_244_5885" result="shape"/>
</filter>
<filter id="filter16_b_244_5885" x="328" y="540" width="360" height="360" filterUnits="userSpaceOnUse" color-interpolation-filters="sRGB">
<feFlood flood-opacity="0" result="BackgroundImageFix"/>
<feGaussianBlur in="BackgroundImageFix" stdDeviation="25"/>
<feComposite in2="SourceAlpha" operator="in" result="effect1_backgroundBlur_244_5885"/>
<feBlend mode="normal" in="SourceGraphic" in2="effect1_backgroundBlur_244_5885" result="shape"/>
</filter>
<filter id="filter17_b_244_5885" x="-224" y="540" width="360" height="360" filterUnits="userSpaceOnUse" color-interpolation-filters="sRGB">
<feFlood flood-opacity="0" result="BackgroundImageFix"/>
<feGaussianBlur in="BackgroundImageFix" stdDeviation="25"/>
<feComposite in2="SourceAlpha" operator="in" result="effect1_backgroundBlur_244_5885"/>
<feBlend mode="normal" in="SourceGraphic" in2="effect1_backgroundBlur_244_5885" result="shape"/>
</filter>
<filter id="filter18_b_244_5885" x="604" y="264" width="360" height="360" filterUnits="userSpaceOnUse" color-interpolation-filters="sRGB">
<feFlood flood-opacity="0" result="BackgroundImageFix"/>
<feGaussianBlur in="BackgroundImageFix" stdDeviation="25"/>
<feComposite in2="SourceAlpha" operator="in" result="effect1_backgroundBlur_244_5885"/>
<feBlend mode="normal" in="SourceGraphic" in2="effect1_backgroundBlur_244_5885" result="shape"/>
</filter>
<filter id="filter19_d_244_5885" x="474" y="404" width="66" height="80" filterUnits="userSpaceOnUse" color-interpolation-filters="sRGB">
<feFlood flood-opacity="0" result="BackgroundImageFix"/>
<feColorMatrix in="SourceAlpha" type="matrix" values="0 0 0 0 0 0 0 0 0 0 0 0 0 0 0 0 0 0 127 0" result="hardAlpha"/>
<feOffset/>
<feGaussianBlur stdDeviation="2"/>
<feComposite in2="hardAlpha" operator="out"/>
<feColorMatrix type="matrix" values="0 0 0 0 0.278431 0 0 0 0 1 0 0 0 0 0.964706 0 0 0 0.2 0"/>
<feBlend mode="normal" in2="BackgroundImageFix" result="effect1_dropShadow_244_5885"/>
<feBlend mode="normal" in="SourceGraphic" in2="effect1_dropShadow_244_5885" result="shape"/>
</filter>
<filter id="filter20_b_244_5885" x="-184" y="304" width="280" height="280" filterUnits="userSpaceOnUse" color-interpolation-filters="sRGB">
<feFlood flood-opacity="0" result="BackgroundImageFix"/>
<feGaussianBlur in="BackgroundImageFix" stdDeviation="5"/>
<feComposite in2="SourceAlpha" operator="in" result="effect1_backgroundBlur_244_5885"/>
<feBlend mode="normal" in="SourceGraphic" in2="effect1_backgroundBlur_244_5885" result="shape"/>
</filter>
<filter id="filter21_b_244_5885" x="644" y="28" width="280" height="280" filterUnits="userSpaceOnUse" color-interpolation-filters="sRGB">
<feFlood flood-opacity="0" result="BackgroundImageFix"/>
<feGaussianBlur in="BackgroundImageFix" stdDeviation="5"/>
<feComposite in2="SourceAlpha" operator="in" result="effect1_backgroundBlur_244_5885"/>
<feBlend mode="normal" in="SourceGraphic" in2="effect1_backgroundBlur_244_5885" result="shape"/>
</filter>
<filter id="filter22_b_244_5885" x="644" y="-248" width="280" height="280" filterUnits="userSpaceOnUse" color-interpolation-filters="sRGB">
<feFlood flood-opacity="0" result="BackgroundImageFix"/>
<feGaussianBlur in="BackgroundImageFix" stdDeviation="5"/>
<feComposite in2="SourceAlpha" operator="in" result="effect1_backgroundBlur_244_5885"/>
<feBlend mode="normal" in="SourceGraphic" in2="effect1_backgroundBlur_244_5885" result="shape"/>
</filter>
<filter id="filter23_b_244_5885" x="-184" y="28" width="280" height="280" filterUnits="userSpaceOnUse" color-interpolation-filters="sRGB">
<feFlood flood-opacity="0" result="BackgroundImageFix"/>
<feGaussianBlur in="BackgroundImageFix" stdDeviation="5"/>
<feComposite in2="SourceAlpha" operator="in" result="effect1_backgroundBlur_244_5885"/>
<feBlend mode="normal" in="SourceGraphic" in2="effect1_backgroundBlur_244_5885" result="shape"/>
</filter>
<filter id="filter24_b_244_5885" x="368" y="-248" width="280" height="280" filterUnits="userSpaceOnUse" color-interpolation-filters="sRGB">
<feFlood flood-opacity="0" result="BackgroundImageFix"/>
<feGaussianBlur in="BackgroundImageFix" stdDeviation="5"/>
<feComposite in2="SourceAlpha" operator="in" result="effect1_backgroundBlur_244_5885"/>
<feBlend mode="normal" in="SourceGraphic" in2="effect1_backgroundBlur_244_5885" result="shape"/>
</filter>
<filter id="filter25_b_244_5885" x="92" y="-248" width="280" height="280" filterUnits="userSpaceOnUse" color-interpolation-filters="sRGB">
<feFlood flood-opacity="0" result="BackgroundImageFix"/>
<feGaussianBlur in="BackgroundImageFix" stdDeviation="5"/>
<feComposite in2="SourceAlpha" operator="in" result="effect1_backgroundBlur_244_5885"/>
<feBlend mode="normal" in="SourceGraphic" in2="effect1_backgroundBlur_244_5885" result="shape"/>
</filter>
<filter id="filter26_b_244_5885" x="-184" y="-248" width="280" height="280" filterUnits="userSpaceOnUse" color-interpolation-filters="sRGB">
<feFlood flood-opacity="0" result="BackgroundImageFix"/>
<feGaussianBlur in="BackgroundImageFix" stdDeviation="5"/>
<feComposite in2="SourceAlpha" operator="in" result="effect1_backgroundBlur_244_5885"/>
<feBlend mode="normal" in="SourceGraphic" in2="effect1_backgroundBlur_244_5885" result="shape"/>
</filter>
<clipPath id="clip0_244_5885">
<path d="M0 32C0 14.3269 14.3269 0 32 0H709C726.673 0 741 14.3269 741 32V856C741 873.673 726.673 888 709 888H32C14.3269 888 0 873.673 0 856V32Z" fill="white"/>
</clipPath>
<clipPath id="clip1_244_5885">
<rect width="888" height="888" fill="white" transform="translate(-74)"/>
</clipPath>
</defs>
</svg>
