<svg width="24" height="24" viewBox="0 0 24 24" fill="none" xmlns="http://www.w3.org/2000/svg">
<path d="M21.6366 5.70861C20.5796 4.58278 19.4564 3.45695 18.3333 2.36423C18.102 2.13245 17.8378 2 17.5405 2C17.2432 2 16.9459 2.09933 16.7477 2.33112L4.294 14.7152C4.0958 14.9139 3.96366 15.1457 3.86456 15.3775L2.04772 20.9404C1.94861 21.2053 2.01468 21.4702 2.14682 21.6689C2.31198 21.8675 2.54322 22 2.84052 22H2.97266L8.6214 20.1126C8.88567 20.0132 9.1169 19.8808 9.28207 19.6821L21.6697 7.29801C21.8679 7.09933 22 6.80132 22 6.50331C22 6.20529 21.8679 5.94039 21.6366 5.70861ZM8.225 18.6556C8.19196 18.6887 8.15893 18.6887 8.12589 18.7218L3.86456 20.1457L5.28501 15.8742C5.28501 15.8411 5.31804 15.8079 5.35107 15.7748L14.4353 6.70198L17.3092 9.58278L8.225 18.6556ZM18.3333 8.52318L15.4594 5.64238L17.4744 3.62251C18.4324 4.54966 19.3903 5.54304 20.3153 6.50331L18.3333 8.52318Z" fill="white"/>
</svg>
