<svg width="24" height="24" viewBox="0 0 24 24" fill="none" xmlns="http://www.w3.org/2000/svg">
<path d="M11.3077 20.3077C11.3077 20.69 11.6176 21 12 21C12.3824 21 12.6923 20.69 12.6923 20.3077V12.6923H20.3077C20.69 12.6923 21 12.3824 21 12C21 11.6176 20.69 11.3077 20.3077 11.3077H12.6923V3.69231C12.6923 3.30996 12.3824 3 12 3C11.6176 3 11.3077 3.30996 11.3077 3.69231V11.3077H3.69231C3.30996 11.3077 3 11.6176 3 12C3 12.3824 3.30996 12.6923 3.69231 12.6923H11.3077V20.3077Z" fill="white"/>
</svg>
