<svg width="24" height="24" viewBox="0 0 24 24" fill="none" xmlns="http://www.w3.org/2000/svg">
<path d="M11.9835 2C6.46281 2 2 6.46281 2 11.9835C2 17.5041 6.46281 22 11.9835 22C17.5041 22 22 17.5041 22 11.9835C22 6.46281 17.5041 2 11.9835 2ZM11.9835 20.5124C7.28926 20.5124 3.4876 16.6777 3.4876 11.9835C3.4876 7.28926 7.28926 3.4876 11.9835 3.4876C16.6777 3.4876 20.5124 7.32231 20.5124 12.0165C20.5124 16.6777 16.6777 20.5124 11.9835 20.5124Z" fill="white"/>
<path d="M12.5785 5.40496C11.6198 5.23967 10.6281 5.50413 9.90083 6.13223C9.17355 6.76033 8.7438 7.65289 8.7438 8.64463C8.7438 9.00826 8.80992 9.3719 8.94215 9.73554C9.07438 10.1322 9.50413 10.3306 9.90083 10.1983C10.2975 10.0661 10.4959 9.63636 10.3636 9.23967C10.2975 9.04132 10.2645 8.84298 10.2645 8.64463C10.2645 8.1157 10.4959 7.61983 10.8926 7.28926C11.2893 6.95868 11.8182 6.79339 12.3802 6.89256C13.0744 7.02479 13.6694 7.61983 13.8017 8.31405C13.9339 9.1405 13.5041 9.96694 12.7438 10.2975C11.8843 10.6612 11.3223 11.5207 11.3223 12.5124V14.562C11.3223 14.9587 11.6529 15.3223 12.0826 15.3223C12.4793 15.3223 12.843 14.9917 12.843 14.562V12.5124C12.843 12.1488 13.0413 11.8182 13.3388 11.6859C14.7603 11.0909 15.5868 9.60331 15.3223 8.08264C14.9587 6.72727 13.9008 5.63636 12.5785 5.40496Z" fill="white"/>
<path d="M12.0165 16.5455H11.9174C11.5207 16.5455 11.157 16.876 11.157 17.3058C11.157 17.7355 11.4876 18.0661 11.9174 18.0661H12.0165C12.4132 18.0661 12.7438 17.7355 12.7438 17.3058C12.7438 16.876 12.4463 16.5455 12.0165 16.5455Z" fill="white"/>
</svg>
