<svg width="24" height="24" viewBox="0 0 24 24" fill="none" xmlns="http://www.w3.org/2000/svg">
<path d="M19.9412 3C19.6619 3 19.3827 3.09278 19.1965 3.32474L5.18746 17.2887L5.09438 6.15464C5.09438 5.59794 4.62896 5.08763 4.02392 5.13402C3.46542 5.13402 3 5.59794 3 6.20103L3.13963 19.8402C3.13963 20.3969 3.60504 20.8608 4.16354 20.8608L17.8933 21C18.4518 21 18.9173 20.5361 18.9173 19.9794C18.9173 19.4227 18.4518 18.9124 17.8933 18.9124L6.63025 18.8196L20.6858 4.80928C21.1047 4.39175 21.1047 3.74227 20.6858 3.32474C20.4997 3.13918 20.2204 3 19.9412 3Z" fill="white"/>
</svg>
