<svg width="32" height="32" viewBox="0 0 32 32" fill="none" xmlns="http://www.w3.org/2000/svg">
<circle cx="16" cy="16" r="16" fill="#2DCC66"/>
<path d="M21.9559 9.25C21.7464 9.25 21.537 9.31959 21.3974 9.49356L10.8906 19.9665L10.8208 11.616C10.8208 11.1985 10.4717 10.8157 10.0179 10.8505C9.59906 10.8505 9.25 11.1985 9.25 11.6508L9.35472 21.8802C9.35472 22.2977 9.70378 22.6456 10.1227 22.6456L20.42 22.75C20.8389 22.75 21.1879 22.4021 21.1879 21.9845C21.1879 21.567 20.8389 21.1843 20.42 21.1843L11.9727 21.1147L22.5144 10.607C22.8285 10.2938 22.8285 9.8067 22.5144 9.49356C22.3748 9.35438 22.1653 9.25 21.9559 9.25Z" fill="white"/>
</svg>
