<svg width="24" height="24" viewBox="0 0 24 24" fill="none" xmlns="http://www.w3.org/2000/svg">
<path d="M4.06433 21C3.78363 21 3.50292 20.9067 3.31579 20.6736C2.89474 20.2539 2.89474 19.601 3.31579 19.1813L17.4912 5.05181H6.16959C5.60819 5.05181 5.14035 4.58549 5.14035 4.02591C5.14035 3.46632 5.60819 3 6.16959 3H19.9708C20.5322 3 21 3.46632 21 4.02591V17.8756C21 18.4352 20.5322 18.9016 19.9708 18.9016C19.4094 18.9016 18.9415 18.4352 18.9415 17.8756V6.63731L4.81287 20.7202C4.62573 20.9067 4.34503 21 4.06433 21Z" fill="white"/>
</svg>
