<svg width="24" height="24" viewBox="0 0 24 24" fill="none" xmlns="http://www.w3.org/2000/svg">
<path d="M8.8097 21.2707C8.8097 20.8741 8.47388 20.5105 8.03731 20.5105H5.04851C4.74627 20.5105 4.51119 20.2791 4.51119 19.9816V4.04937C4.51119 3.75188 4.74627 3.5205 5.04851 3.5205H8.03731C8.4403 3.5205 8.8097 3.18996 8.8097 2.76025C8.8097 2.33054 8.47388 2 8.03731 2H5.04851C3.90672 2 3 2.89247 3 4.01632V19.9816C3 21.1054 3.90672 21.9979 5.04851 21.9979H8.03731C8.47388 22.031 8.8097 21.6674 8.8097 21.2707Z" fill="white"/>
<path d="M8.00374 11.4867C7.86941 11.6189 7.80224 11.8172 7.80224 12.0155C7.80224 12.2139 7.86941 12.3791 8.00374 12.5444L12.6716 17.2712C12.9739 17.5687 13.444 17.5687 13.7463 17.3042C14.0485 17.0067 14.0485 16.544 13.7799 16.2465L10.3209 12.7758H20.2276C20.6306 12.7758 21 12.4452 21 12.0155C21 11.6189 20.6642 11.2553 20.2276 11.2553H10.3209L13.7463 7.78457C14.0485 7.48708 14.0149 7.02432 13.7463 6.72683C13.444 6.42934 12.9739 6.4624 12.6716 6.72683L8.00374 11.4867Z" fill="white"/>
</svg>
