<svg width="24" height="24" viewBox="0 0 24 24" fill="none" xmlns="http://www.w3.org/2000/svg">
<path d="M5.41249 20.664C5.11431 20.664 4.81612 20.5647 4.5842 20.3992C4.12035 20.0683 3.85529 19.4726 3.95469 18.91L4.81612 13.5818L1.10535 9.77594C0.707763 9.37881 0.575235 8.78311 0.740894 8.2205C0.906554 7.691 1.3704 7.29386 1.90051 7.22767L7.03596 6.40032L9.35519 1.53545C9.62025 1.00594 10.1172 0.674999 10.6805 0.674999C11.2437 0.674999 11.7738 1.00594 12.0057 1.53545L14.325 6.36722L19.4273 7.16149C19.9574 7.26077 20.4212 7.62481 20.5869 8.15432C20.7857 8.71692 20.62 9.31262 20.2225 9.70975L16.5448 13.5487L17.4062 18.91C17.5056 19.5057 17.2737 20.0683 16.7767 20.3992C16.3129 20.7302 15.7497 20.7633 15.2527 20.4985L10.6805 18.0164L6.10826 20.4985C5.90947 20.6309 5.64442 20.664 5.41249 20.664ZM2.16557 8.68382C2.16557 8.68382 2.16557 8.71692 2.16557 8.75001L6.042 12.7213C6.27392 12.953 6.37332 13.317 6.34019 13.648L5.44563 19.1747C5.44563 19.1747 5.44563 19.1747 5.44563 19.2078L10.2166 16.6265C10.5148 16.461 10.8793 16.461 11.2106 16.6265L15.9816 19.2078C15.9816 19.2078 15.9816 19.2078 15.9816 19.1747L15.087 13.6149C15.0207 13.2839 15.1533 12.953 15.3852 12.6882L19.2616 8.71692C19.2948 8.68382 19.2616 8.65073 19.2616 8.65073L13.9274 7.82337C13.5961 7.75718 13.2979 7.55862 13.1654 7.22767L10.6805 2.19734L8.29497 7.26077C8.16244 7.55862 7.86425 7.79028 7.53294 7.85647L2.16557 8.68382Z" fill="white"/>
</svg>
