<svg width="24" height="24" viewBox="0 0 24 24" fill="none" xmlns="http://www.w3.org/2000/svg">
<path d="M17.8075 6.52893L19.166 5.00826C19.4377 4.71074 19.4038 4.21488 19.0981 3.95041C18.7245 3.68595 18.2491 3.71901 17.9774 4.04959L16.5509 5.70248C15.4302 5.07438 14.1396 4.64463 12.7811 4.54545V3.45455H14.9547C15.3623 3.45455 15.7019 3.12397 15.7019 2.72727C15.7019 2.33058 15.3623 2 14.9547 2H9.07925C8.6717 2 8.33208 2.33058 8.33208 2.72727C8.33208 3.12397 8.6717 3.45455 9.07925 3.45455H11.2528V4.5124C6.63396 4.87603 3 8.64463 3 13.2397C3 18.0661 7.04151 22 12 22C16.9585 22 21 18.0661 21 13.2397C21 10.562 19.7434 8.14876 17.8075 6.52893ZM12 20.5124C7.89057 20.5124 4.5283 17.2397 4.5283 13.2397C4.5283 9.23967 7.89057 5.96694 12 5.96694C16.1094 5.96694 19.4717 9.23967 19.4717 13.2397C19.4717 17.2397 16.1094 20.5124 12 20.5124Z" fill="white"/>
<path d="M12.7473 13.1074V9.27273C12.7473 8.87603 12.4077 8.54546 12.0002 8.54546C11.5926 8.54546 11.253 8.87603 11.253 9.27273V13.405C11.253 13.6033 11.3209 13.8017 11.4907 13.9339L14.0039 16.3802C14.1398 16.5124 14.3435 16.6116 14.5473 16.6116C14.7511 16.6116 14.9549 16.5455 15.0907 16.3802C15.3964 16.0826 15.3964 15.6198 15.0907 15.3223L12.7473 13.1074Z" fill="white"/>
</svg>
