<svg width="24" height="24" viewBox="0 0 24 24" fill="none" xmlns="http://www.w3.org/2000/svg">
<path d="M20.2089 6.01981H5.53852L8.24182 3.27941C8.53852 2.98225 8.53852 2.52002 8.24182 2.22286C7.94512 1.92571 7.48358 1.92571 7.18688 2.22286L3.2638 6.21791C2.9671 6.51506 2.9671 6.9773 3.2638 7.27445L7.18688 11.2695C7.31874 11.4016 7.51655 11.5006 7.71435 11.5006C7.91215 11.5006 8.07699 11.4346 8.24182 11.3025C8.53852 11.0054 8.53852 10.5431 8.24182 10.246L5.57149 7.53859H19.4836V9.5196C19.4836 9.91581 19.8132 10.279 20.2418 10.279C20.6704 10.279 21.0001 9.94882 21.0001 9.5196V6.7792C20.9671 6.34998 20.6374 6.01981 20.2089 6.01981Z" fill="white"/>
<path d="M16.8132 12.7222C16.5165 12.4251 16.0549 12.4251 15.7582 12.7222C15.4615 13.0194 15.4615 13.4816 15.7582 13.7788L18.4286 16.4862H4.51648V14.5052C4.51648 14.109 4.18681 13.7458 3.75824 13.7458C3.32967 13.7458 3 14.0759 3 14.5052V17.2456C3 17.6418 3.32967 18.005 3.75824 18.005H18.4286L15.7253 20.7454C15.4286 21.0425 15.4286 21.5047 15.7253 21.8019C15.8571 21.934 16.0549 22 16.2527 22C16.4506 22 16.6484 21.934 16.7802 21.7689L20.7033 17.7738C21 17.4767 21 17.0144 20.7033 16.7173L16.8132 12.7222Z" fill="white"/>
</svg>
