<svg width="24" height="24" viewBox="0 0 24 24" fill="none" xmlns="http://www.w3.org/2000/svg">
<path d="M4.24976 11.0612C4.34867 11.0612 4.48056 11.0288 4.57947 10.9964L8.23927 9.73381C8.63493 9.60432 8.83275 9.18345 8.70087 8.79496C8.56898 8.40647 8.14036 8.21223 7.7447 8.34173L5.46969 9.1187C6.55774 6.33453 9.32732 4.45683 12.4926 4.45683C15.9545 4.45683 18.9549 6.72302 19.8122 9.96043C19.9111 10.3489 20.3067 10.5755 20.7024 10.4784C21.098 10.3813 21.3288 9.99281 21.2299 9.60432C20.2078 5.71942 16.614 3 12.4596 3C8.76681 3 5.50266 5.13669 4.15085 8.34173L3.45845 6.39928C3.32657 6.01079 2.89794 5.81655 2.50229 5.94604C2.10663 6.07554 1.9088 6.4964 2.04069 6.88489L3.29359 10.4137C3.49142 10.8345 3.8541 11.0612 4.24976 11.0612Z" fill="white"/>
<path d="M21.9551 17.7626L20.6033 14.2986C20.5043 14.0719 20.3395 13.8777 20.1087 13.7806C19.8779 13.6835 19.6141 13.6835 19.3833 13.7806L15.7565 15.1403C15.3608 15.2698 15.196 15.6906 15.3279 16.0791C15.4598 16.4676 15.8884 16.6295 16.284 16.5L18.559 15.6583C17.2402 18.0216 14.6684 19.5755 11.8 19.5755C8.53581 19.5755 5.66731 17.5683 4.64521 14.5899C4.51332 14.2014 4.0847 14.0072 3.72201 14.1367C3.32636 14.2662 3.12853 14.687 3.26042 15.0432C4.48035 18.6043 7.90935 21 11.8 21C15.196 21 18.2623 19.1547 19.812 16.3058L20.5703 18.2806C20.6692 18.5719 20.9659 18.7338 21.2627 18.7338C21.3616 18.7338 21.4275 18.7338 21.5265 18.6691C21.9221 18.5719 22.087 18.1511 21.9551 17.7626Z" fill="white"/>
</svg>
