<svg width="24" height="24" viewBox="0 0 24 24" fill="none" xmlns="http://www.w3.org/2000/svg">
<path d="M16.9875 12.1818C16.8182 12.1818 16.6488 12.1818 16.5134 12.2149C15.5312 11.124 14.3458 10.3306 13.025 9.93388C14.3458 9.20661 15.2602 7.81818 15.2602 6.2314C15.2602 3.8843 13.2959 2 10.9251 2C8.5205 2 6.59002 3.91736 6.59002 6.2314C6.59002 7.81818 7.50446 9.20661 8.82531 9.93388C7.50446 10.3306 6.2852 11.124 5.30303 12.2479C3.88057 13.9008 3.06774 16.2149 3 18.7273C3 19.0248 3.16934 19.2893 3.40642 19.4215C4.32086 19.8512 7.50446 21.2727 10.9251 21.2727C11.9073 21.2727 12.9234 21.1736 13.9394 20.9752C14.7861 21.6033 15.836 22 16.9875 22C19.7647 22 22 19.7851 22 17.1074C22 14.4298 19.7647 12.1818 16.9875 12.1818ZM10.9251 3.4876C12.4831 3.4876 13.7362 4.71074 13.7362 6.2314C13.7362 7.75207 12.4831 8.97521 10.9251 8.97521C9.3672 8.97521 8.11408 7.75207 8.11408 6.2314C8.11408 4.71074 9.3672 3.4876 10.9251 3.4876ZM4.55793 18.2975C4.6934 16.314 5.37077 14.5289 6.48841 13.2066C7.6738 11.8512 9.2656 11.0909 10.959 11.0909C12.4153 11.0909 13.7701 11.6529 14.8877 12.6446C13.1943 13.438 12.0089 15.124 12.0089 17.0744C12.0089 18.0331 12.2799 18.8926 12.7879 19.6529C12.1783 19.719 11.5686 19.7851 10.9929 19.7851C8.28342 19.7851 5.70945 18.8264 4.55793 18.2975ZM16.9875 20.5124C15.057 20.5124 13.4991 18.9917 13.4991 17.1074C13.4991 15.2231 15.057 13.7025 16.9875 13.7025C18.918 13.7025 20.4759 15.2231 20.4759 17.1074C20.4759 18.9917 18.918 20.5124 16.9875 20.5124Z" fill="white"/>
<path d="M18.647 15.3223C18.3422 15.0248 17.868 15.0248 17.5632 15.3223L17.0213 15.8512L16.4794 15.3223C16.1746 15.0248 15.7005 15.0248 15.3957 15.3223C15.0909 15.6198 15.0909 16.0826 15.3957 16.3802L15.9376 16.9091L15.3957 17.438C15.0909 17.7355 15.0909 18.1983 15.3957 18.4959C15.5311 18.6281 15.7343 18.7273 15.9376 18.7273C16.1408 18.7273 16.344 18.6612 16.4794 18.4959L17.0213 17.9669L17.5632 18.4959C17.6987 18.6281 17.9019 18.7273 18.1051 18.7273C18.3083 18.7273 18.5115 18.6612 18.647 18.4959C18.9518 18.1983 18.9518 17.7355 18.647 17.438L18.1051 16.9091L18.647 16.3802C18.9179 16.0826 18.9179 15.5868 18.647 15.3223Z" fill="white"/>
</svg>
