<svg width="24" height="24" viewBox="0 0 24 24" fill="none" xmlns="http://www.w3.org/2000/svg">
<path d="M20.2731 14.562V13.5041C20.2731 12.876 20.0362 12.281 19.5625 11.8182C19.0887 11.3554 18.4796 11.124 17.8367 11.124C16.4831 11.124 15.4003 12.1818 15.4003 13.5041V14.562C14.3174 15.2893 13.6068 16.5124 13.6068 17.9008C13.6068 20.1488 15.5018 22 17.8028 22C20.1039 22 21.9989 20.1488 21.9989 17.9008C22.0327 16.5124 21.3221 15.2893 20.2731 14.562ZM16.923 13.5041C16.923 13.0083 17.3291 12.6116 17.8367 12.6116C18.0735 12.6116 18.3104 12.7107 18.4796 12.876C18.6488 13.0413 18.7503 13.2727 18.7503 13.5041V13.9008C18.4458 13.8347 18.1412 13.8017 17.8367 13.8017C17.5321 13.8017 17.2276 13.8347 16.9569 13.9008V13.5041H16.923ZM17.8367 20.5124C16.3478 20.5124 15.1634 19.3554 15.1634 17.9008C15.1634 16.4463 16.3478 15.2893 17.8367 15.2893C19.3256 15.2893 20.51 16.4463 20.51 17.9008C20.51 19.3223 19.2917 20.5124 17.8367 20.5124Z" fill="white"/>
<path d="M17.8366 17.4711C17.4305 17.4711 17.0583 17.8017 17.0583 18.2314V18.6942C17.0583 19.0909 17.3967 19.4545 17.8366 19.4545C18.2765 19.4545 18.6149 19.124 18.6149 18.6942V18.2314C18.5811 17.8017 18.2427 17.4711 17.8366 17.4711Z" fill="white"/>
<path d="M10.1214 11.2893C11.3396 11.2893 12.4901 11.6529 13.5053 12.3471C13.8436 12.5785 14.3174 12.5124 14.5543 12.1818C14.7911 11.8512 14.7235 11.3884 14.3851 11.157C13.7083 10.6942 12.9977 10.3636 12.2532 10.1322C13.6406 9.40496 14.5881 7.95041 14.5881 6.33058C14.5881 3.95041 12.5916 2 10.1552 2C7.71879 2 5.68845 3.91736 5.68845 6.33058C5.68845 7.98347 6.63594 9.40496 8.02334 10.1322C6.63594 10.5289 5.3839 11.3554 4.36873 12.5124C2.87981 14.2314 2.06768 16.5785 2 19.157C2 19.4545 2.16919 19.719 2.40607 19.8512C3.31972 20.3141 6.6021 21.7686 10.0875 21.7686C10.3921 21.7686 10.6966 21.7686 11.0012 21.7355C11.4072 21.7025 11.7456 21.3719 11.7118 20.9421C11.678 20.5124 11.3396 20.2149 10.8997 20.2479C10.6628 20.2479 10.3921 20.2479 10.1214 20.2479C7.3804 20.2479 4.74096 19.2562 3.55659 18.7273C3.69195 16.6777 4.36873 14.8264 5.51925 13.5041C6.73746 12.0826 8.36173 11.2893 10.1214 11.2893ZM10.1214 3.4876C11.7118 3.4876 13.0315 4.77686 13.0315 6.33058C13.0315 7.8843 11.7118 9.17355 10.1214 9.17355C8.53092 9.17355 7.2112 7.8843 7.2112 6.33058C7.2112 4.77686 8.49709 3.4876 10.1214 3.4876Z" fill="white"/>
</svg>
