<svg width="24" height="24" viewBox="0 0 24 24" fill="none" xmlns="http://www.w3.org/2000/svg">
<path d="M21.5586 11.802C21.1881 11.637 20.7165 11.769 20.5481 12.165L20.3797 12.495L19.6724 12.165C19.3019 12 18.8304 12.132 18.6619 12.5281C18.4935 12.9241 18.6283 13.3531 19.0324 13.5182L19.7398 13.8482L18.6283 16.0924C17.3484 15.8614 16.0011 16.4554 15.3948 17.6766C14.6875 19.1287 15.2938 20.8449 16.7758 21.571C17.1799 21.769 17.6178 21.868 18.0557 21.868C19.1672 21.868 20.2113 21.2739 20.7165 20.2178C21.3228 18.9967 20.9523 17.5776 19.9755 16.7525L21.9291 12.7921C22.0975 12.396 21.9628 11.967 21.5586 11.802ZM19.4029 19.5248C19.0661 20.2178 18.1904 20.5149 17.4831 20.1848C16.7758 19.8548 16.4726 18.9967 16.8094 18.3036C17.0452 17.8086 17.5841 17.5116 18.123 17.5116C18.3251 17.5116 18.5609 17.5446 18.763 17.6436C19.4366 17.9736 19.7398 18.7987 19.4029 19.5248Z" fill="white"/>
<path d="M12.7004 20.4158C12.1952 20.4818 11.6562 20.5149 11.151 20.5149C8.3891 20.5149 5.72823 19.4917 4.51568 18.9637C4.65041 16.8845 5.32405 15.0033 6.50292 13.6502C7.71546 12.231 9.36588 11.4389 11.151 11.4389C12.9362 11.4389 14.5866 12.231 15.7991 13.6502C16.0686 13.9802 16.5401 14.0132 16.8769 13.7492C17.2138 13.4851 17.2474 13.0231 16.978 12.6931C15.9675 11.5049 14.6876 10.6799 13.273 10.2508C14.6876 9.52475 15.6307 8.07261 15.6307 6.38944C15.6307 3.9802 13.6435 2 11.151 2C8.65856 2 6.70501 3.9802 6.70501 6.38944C6.70501 8.0396 7.6481 9.49175 9.06274 10.2508C7.6481 10.6799 6.40187 11.5049 5.35773 12.6931C3.87573 14.4092 3.03368 16.7855 3 19.3927C3 19.6898 3.16841 19.9538 3.40418 20.0858C4.34728 20.5479 7.6481 22 11.151 22C11.7236 22 12.2962 21.967 12.8688 21.901C13.273 21.868 13.5761 21.4719 13.5424 21.0759C13.5087 20.6799 13.1382 20.3498 12.7004 20.4158ZM11.151 3.51815C12.7677 3.51815 14.115 4.80528 14.115 6.42244C14.115 8.0396 12.8014 9.32673 11.151 9.32673C9.5006 9.32673 8.18701 8.0396 8.18701 6.42244C8.18701 4.80528 9.53429 3.51815 11.151 3.51815Z" fill="white"/>
</svg>
