<svg width="24" height="24" viewBox="0 0 24 24" fill="none" xmlns="http://www.w3.org/2000/svg">
<path d="M21.4231 15.6726L14.3475 5.10486C13.7854 4.39898 12.9258 4 12 4C11.0412 4 10.1815 4.39898 9.65249 5.10486L2.57691 15.6726C1.91564 16.5013 1.81645 17.5754 2.3124 18.4962C2.80836 19.4169 3.80026 20 4.92442 20H19.0756C20.1997 20 21.1916 19.4169 21.6876 18.4962C22.1835 17.6061 22.0844 16.5013 21.4231 15.6726ZM20.3651 17.8824C20.1005 18.3427 19.6377 18.6189 19.0756 18.6189H4.92442C4.36234 18.6189 3.89945 18.3427 3.63494 17.8824C3.4035 17.422 3.43656 16.9003 3.7672 16.5013L10.8428 5.93351C11.1073 5.59591 11.5371 5.38108 12 5.38108C12.4629 5.38108 12.8927 5.56522 13.1572 5.93351L20.2328 16.5013C20.5634 16.9003 20.5965 17.422 20.3651 17.8824Z" fill="white"/>
<path d="M11.9999 9.70846C11.6032 9.70846 11.2395 10.0154 11.2395 10.4143V13.7596C11.2395 14.1279 11.5701 14.4655 11.9999 14.4655C12.4298 14.4655 12.7604 14.1586 12.7604 13.7596V10.3837C12.7604 10.0154 12.3967 9.70846 11.9999 9.70846Z" fill="white"/>
<path d="M11.9999 15.2737C11.6032 15.2737 11.2395 15.5806 11.2395 15.9796V16.133C11.2395 16.5013 11.5701 16.8389 11.9999 16.8389C12.4298 16.8389 12.7604 16.532 12.7604 16.133V15.9489C12.7604 15.5806 12.3967 15.2737 11.9999 15.2737Z" fill="white"/>
</svg>
