<svg width="12" height="12" viewBox="0 0 12 12" fill="none" xmlns="http://www.w3.org/2000/svg">
<path d="M10.7115 7.83632L7.17375 2.55243C6.89271 2.19949 6.46289 2 6 2C5.52058 2 5.09075 2.19949 4.82625 2.55243L1.28846 7.83632C0.957821 8.25064 0.908226 8.78772 1.1562 9.24808C1.40418 9.70844 1.90013 10 2.46221 10H9.53779C10.0999 10 10.5958 9.70844 10.8438 9.24808C11.0918 8.80307 11.0422 8.25064 10.7115 7.83632ZM10.1825 8.94118C10.0503 9.17136 9.81883 9.30946 9.53779 9.30946H2.46221C2.18117 9.30946 1.94973 9.17136 1.81747 8.94118C1.70175 8.711 1.71828 8.45013 1.8836 8.25064L5.42139 2.96675C5.55364 2.79795 5.76856 2.69054 6 2.69054C6.23144 2.69054 6.44636 2.78261 6.57861 2.96675L10.1164 8.25064C10.2817 8.45013 10.2983 8.711 10.1825 8.94118Z" fill="white"/>
<path d="M5.99997 4.85423C5.80159 4.85423 5.61974 5.00768 5.61974 5.20717V6.87981C5.61974 7.06395 5.78505 7.23275 5.99997 7.23275C6.21488 7.23275 6.3802 7.07929 6.3802 6.87981V5.19183C6.3802 5.00768 6.19835 4.85423 5.99997 4.85423Z" fill="white"/>
<path d="M5.99997 7.63684C5.80159 7.63684 5.61974 7.79029 5.61974 7.98978V8.06651C5.61974 8.25065 5.78505 8.41945 5.99997 8.41945C6.21488 8.41945 6.3802 8.26599 6.3802 8.06651V7.97443C6.3802 7.79029 6.19835 7.63684 5.99997 7.63684Z" fill="white"/>
</svg>
