<svg width="24" height="24" viewBox="0 0 24 24" fill="none" xmlns="http://www.w3.org/2000/svg">
<path d="M21.2707 12.1836C20.8741 12.1836 20.5105 12.5198 20.5105 12.9568V18.9491C20.5105 19.2517 20.2791 19.487 19.9816 19.487H4.04937C3.75188 19.487 3.5205 19.2517 3.5205 18.9491V12.9568C3.5205 12.5534 3.18996 12.1836 2.76025 12.1836C2.33054 12.1836 2 12.5198 2 12.9568V18.9491C2 20.0922 2.89247 21 4.01632 21H19.9816C21.1054 21 21.9979 20.0922 21.9979 18.9491V12.9568C22.031 12.5198 21.6674 12.1836 21.2707 12.1836Z" fill="white"/>
<path d="M7.2888 8.19904C7.48713 8.19904 7.6524 8.1318 7.81767 7.99731L11.2884 4.56798V9.48616C11.2884 9.88961 11.6189 10.2594 12.0486 10.2594C12.4453 10.2594 12.8089 9.92323 12.8089 9.48616V4.53436L16.2465 7.96369C16.544 8.26628 17.0068 8.23266 17.3043 7.96369C17.6018 7.66111 17.5687 7.19041 17.3043 6.88782L12.5444 2.21451C12.247 1.94554 11.7842 1.91192 11.5198 2.21451L6.75993 6.88782C6.46244 7.19041 6.46244 7.66111 6.72687 7.96369C6.89215 8.09818 7.09047 8.19904 7.2888 8.19904Z" fill="white"/>
<path fill-rule="evenodd" clip-rule="evenodd" d="M12 16.5C12.8284 16.5 13.5 15.8284 13.5 15C13.5 14.1716 12.8284 13.5 12 13.5C11.1716 13.5 10.5 14.1716 10.5 15C10.5 15.8284 11.1716 16.5 12 16.5ZM12 18C13.6569 18 15 16.6569 15 15C15 13.3431 13.6569 12 12 12C10.3431 12 9 13.3431 9 15C9 16.6569 10.3431 18 12 18Z" fill="white"/>
</svg>
