<svg width="24" height="24" viewBox="0 0 24 24" fill="none" xmlns="http://www.w3.org/2000/svg">
<path d="M20.67 6.92562C18.8825 3.8843 15.7046 2.06612 12.1957 2C12.0964 2 11.964 2 11.8647 2C8.35575 2.06612 5.17787 3.91736 3.39032 6.92562C2.49654 8.44628 2 10.2314 2 12.0165C2 14.1653 2.66206 16.1818 3.91997 17.9008C5.80683 20.4463 8.68678 21.9669 11.8315 22C11.8978 22 11.9309 22 11.9971 22C12.0633 22 12.0964 22 12.1626 22C15.3405 21.9669 18.2204 20.4463 20.0742 17.9008C21.3321 16.1818 21.9941 14.1322 21.9941 12.0165C22.0603 10.2314 21.5638 8.47934 20.67 6.92562ZM18.8494 6.92562C17.6245 7.32231 16.3335 7.61983 15.0425 7.78512C14.6784 6.33058 14.1156 4.94215 13.3874 3.61983C15.6053 3.98347 17.5252 5.1405 18.8494 6.92562ZM11.8315 20.2149C11.2357 19.1901 10.7392 18.1322 10.375 17.0744C11.335 17.0083 12.3281 17.0083 13.2881 17.0413C12.9239 18.1322 12.4274 19.1901 11.8315 20.2149ZM13.5529 7.91736C12.3943 7.98347 11.2026 7.98347 10.0771 7.8843C10.4743 6.46281 11.0371 5.10744 11.7984 3.81818C12.5929 5.1405 13.1888 6.49587 13.5529 7.91736ZM9.74607 9.3719C10.4743 9.43802 11.2357 9.47107 12.0302 9.47107C12.6591 9.47107 13.2881 9.43802 13.8839 9.40496C14.0163 10.2645 14.1156 11.157 14.1156 12.0165C14.1156 13.2066 13.9832 14.3967 13.7184 15.5537C12.4936 15.4545 11.2026 15.4876 9.97779 15.5868C9.71296 14.4298 9.54745 13.2397 9.54745 12.0165C9.51435 11.124 9.61366 10.2314 9.74607 9.3719ZM10.1764 3.71901C9.48125 5.00826 8.9516 6.36364 8.58747 7.75207C7.42887 7.58678 6.30337 7.32231 5.21098 6.95868C6.43578 5.27273 8.19023 4.14876 10.1764 3.71901ZM3.52273 12.0165C3.52273 10.6942 3.82066 9.40496 4.41651 8.21488C5.67442 8.64463 6.96543 8.97521 8.28954 9.17355C8.12403 10.0992 8.05782 11.0579 8.05782 12.0165C8.05782 13.2727 8.19023 14.5289 8.48816 15.7521C7.26335 15.9504 6.07165 16.2149 4.87995 16.5785C3.98617 15.2231 3.52273 13.6694 3.52273 12.0165ZM5.83993 17.8678C6.83302 17.5702 7.8261 17.3719 8.85229 17.2066C9.18332 18.2645 9.64676 19.3223 10.1764 20.314C8.52126 19.9504 6.99853 19.124 5.83993 17.8678ZM13.4205 20.4132C13.9832 19.3554 14.4798 18.2645 14.8108 17.1736C15.9694 17.3058 17.128 17.5372 18.2204 17.8678C16.9294 19.2231 15.2742 20.1157 13.4205 20.4132ZM19.2135 16.6116C17.9225 16.1818 16.5653 15.9174 15.208 15.719C15.4729 14.5289 15.6053 13.2727 15.6053 12.0165C15.6053 11.0909 15.5391 10.1653 15.3736 9.23967C16.8301 9.04132 18.2866 8.71074 19.6769 8.21488C20.2728 9.3719 20.5707 10.6942 20.5707 12.0165C20.5707 13.6694 20.0742 15.2231 19.2135 16.6116Z" fill="white"/>
</svg>
