<svg width="24" height="24" viewBox="0 0 24 24" fill="none" xmlns="http://www.w3.org/2000/svg">
<path d="M19.29 22C18.563 22 17.902 21.7026 17.3732 21.2068L7.95441 11.755C6.30198 12.1185 4.61651 11.6228 3.42677 10.433C2.20397 9.1772 1.70825 7.35953 2.17093 5.67406C2.23702 5.40967 2.43531 5.21138 2.6997 5.14529C2.96409 5.07919 3.22848 5.14529 3.42677 5.34358C3.42677 5.34358 5.4259 8.492 6.96295 6.996C8.5 5.5 5.27748 3.42677 5.27748 3.42677C5.07919 3.22848 5.01309 2.96409 5.07919 2.6997C5.14529 2.43531 5.34358 2.23702 5.60797 2.17093C7.29344 1.70825 9.1111 2.20397 10.3669 3.42677C11.5236 4.58346 12.0194 6.20284 11.7219 7.78916L21.2068 17.3402C22.2644 18.3977 22.2644 20.1162 21.2068 21.1738C20.6781 21.7356 19.984 22 19.29 22ZM8.18575 10.1687C8.38404 10.1687 8.58233 10.2347 8.71452 10.4L18.4308 20.1493C18.8934 20.612 19.6866 20.612 20.1493 20.1493C20.612 19.6866 20.612 18.8934 20.1493 18.3977L10.4 8.64842C10.2017 8.45013 10.1026 8.1527 10.1687 7.88831C10.4991 6.69856 10.1687 5.40967 9.30939 4.51737C8.81367 4.02164 8.18574 3.69115 7.49173 3.55896C8.3098 4.37704 9.5 6.5 7.95441 8C6.40881 9.5 5.08076 9.15709 3.52591 7.55782C3.65811 8.21879 3.98859 8.87976 4.48432 9.37549C5.40967 10.3008 6.73161 10.6313 7.95441 10.2017C8.0205 10.2017 8.11965 10.1687 8.18575 10.1687Z" fill="white"/>
</svg>
